<svg width="317" height="35" viewBox="0 0 317 35" fill="none" xmlns="http://www.w3.org/2000/svg">
<path d="M9.91253 11.196L16.6692 7.24824C17.0473 7.0282 17.3787 6.73531 17.6445 6.3863C17.9102 6.0373 18.105 5.63901 18.2179 5.21417C18.3308 4.78934 18.3594 4.34628 18.3022 3.91029C18.245 3.47431 18.1031 3.05394 17.8846 2.67318C17.6661 2.29242 17.3752 1.95873 17.0286 1.69116C16.682 1.42359 16.2864 1.22738 15.8645 1.11374C15.4426 1.0001 15.0026 0.97125 14.5696 1.02884C14.1366 1.08642 13.7191 1.22932 13.341 1.44936L1.66602 8.23519L9.91253 11.196Z" fill="#E84336"/>
<path d="M15.0002 21.2939C15.7323 21.2938 16.444 21.0506 17.025 20.602C17.6059 20.1534 18.0238 19.5244 18.2138 18.8125C18.4039 18.1006 18.3555 17.3454 18.0761 16.664C17.7968 15.9825 17.3021 15.4129 16.6686 15.0432L4.9937 8.25737C4.22885 7.81297 3.31999 7.69271 2.46708 7.92304C1.61416 8.15338 0.88705 8.71544 0.445699 9.48558C0.00434816 10.2557 -0.115089 11.1709 0.113662 12.0297C0.342413 12.8885 0.900615 13.6206 1.66547 14.065L13.3404 20.8509C13.8452 21.1433 14.4178 21.2962 15.0002 21.2939Z" fill="#4283F2"/>
<path d="M26.6144 21.2936C27.1965 21.2983 27.7694 21.1469 28.2742 20.855L39.9491 14.0648L31.8115 11.0645L24.9503 15.0517C24.3172 15.4212 23.8227 15.9905 23.5432 16.6715C23.2638 17.3525 23.215 18.1072 23.4045 18.8189C23.594 19.5306 24.0111 20.1596 24.5914 20.6085C25.1716 21.0575 25.8826 21.3013 26.6144 21.3024V21.2936Z" fill="#F9BA07"/>
<path d="M38.2846 14.5038C39.0168 14.5047 39.7288 14.2621 40.31 13.8137C40.8912 13.3653 41.3091 12.7362 41.4988 12.0241C41.6885 11.3121 41.6394 10.5568 41.3591 9.87573C41.0788 9.19463 40.583 8.62578 39.9487 8.25753L28.2738 1.4717C27.8956 1.25194 27.4782 1.10933 27.0453 1.05201C26.6124 0.994695 26.1726 1.02379 25.7509 1.13763C25.3291 1.25148 24.9338 1.44784 24.5875 1.71552C24.2411 1.9832 23.9505 2.31695 23.7323 2.69771C23.514 3.07847 23.3724 3.49879 23.3155 3.93466C23.2586 4.37054 23.2875 4.81343 23.4005 5.23806C23.5136 5.66269 23.7086 6.06074 23.9744 6.40948C24.2403 6.75822 24.5717 7.05082 24.9499 7.27058L36.6248 14.0652C37.1303 14.3553 37.7027 14.5066 38.2846 14.5038Z" fill="#35A653"/>
<path d="M55.4401 13.5704C54.3898 12.9726 53.5206 12.1005 52.9247 11.0468C52.3184 9.96119 52 8.73762 52 7.49323C52 6.24883 52.3184 5.02527 52.9247 3.93969C53.5206 2.88595 54.3898 2.01386 55.4401 1.41608C56.4945 0.808239 57.6909 0.49216 58.907 0.500161C59.855 0.493893 60.7954 0.671035 61.6766 1.02189C62.4942 1.33975 63.2254 1.84691 63.8106 2.50205L62.655 3.64211C62.22 3.10823 61.6584 2.69234 61.0217 2.43248C60.3454 2.15159 59.6197 2.00966 58.8877 2.0151C57.9705 2.00977 57.0678 2.2442 56.2683 2.69528C55.4554 3.15203 54.7796 3.81936 54.3115 4.6276C53.8289 5.50653 53.5759 6.49366 53.5759 7.49709C53.5759 8.50053 53.8289 9.48765 54.3115 10.3666C54.7781 11.176 55.4542 11.8437 56.2683 12.2989C57.01 12.6991 57.8307 12.9301 58.6716 12.9755C59.5126 13.021 60.3532 12.8797 61.1335 12.5617C61.7236 12.2933 62.2581 11.9157 62.7089 11.4487C63.0428 11.077 63.3042 10.6457 63.4794 10.1772C63.6851 9.65788 63.8048 9.10829 63.8337 8.55021H58.9532V7.07392H65.363C65.4222 7.39521 65.4531 7.72108 65.4555 8.0478C65.4591 8.86356 65.329 9.67438 65.0703 10.4477C64.8155 11.2171 64.3886 11.9178 63.8222 12.496C63.1905 13.1557 62.4264 13.6733 61.5804 14.0144C60.7343 14.3555 59.8257 14.5124 58.9147 14.4747C57.6971 14.4876 56.4979 14.1755 55.4401 13.5704Z" fill="#646464"/>
<path d="M68.9414 13.8407C68.2253 13.4168 67.6411 12.8012 67.2542 12.0629C66.8573 11.2854 66.6503 10.4244 66.6503 9.55092C66.6503 8.6774 66.8573 7.8164 67.2542 7.0389C67.6421 6.30134 68.2261 5.68601 68.9414 5.26117C69.6877 4.83819 70.5303 4.61591 71.3874 4.61591C72.2446 4.61591 73.0872 4.83819 73.8335 5.26117C74.5538 5.68335 75.1422 6.29908 75.5322 7.0389C75.9291 7.8164 76.1361 8.6774 76.1361 9.55092C76.1361 10.4244 75.9291 11.2854 75.5322 12.0629C75.1433 12.8036 74.5547 13.4196 73.8335 13.8407C73.0872 14.2637 72.2446 14.4859 71.3874 14.4859C70.5303 14.4859 69.6877 14.2637 68.9414 13.8407ZM72.9513 12.6156C73.4393 12.3189 73.8385 11.8956 74.107 11.3905C74.3956 10.8198 74.546 10.1889 74.546 9.54899C74.546 8.90906 74.3956 8.27815 74.107 7.70749C73.8385 7.20234 73.4393 6.77913 72.9513 6.4824C72.4771 6.19965 71.9352 6.05139 71.3836 6.05343C70.8408 6.05435 70.3084 6.20258 69.8427 6.4824C69.3548 6.77913 68.9556 7.20234 68.6871 7.70749C68.3985 8.27815 68.2481 8.90906 68.2481 9.54899C68.2481 10.1889 68.3985 10.8198 68.6871 11.3905C68.9556 11.8956 69.3548 12.3189 69.8427 12.6156C70.3084 12.8954 70.8408 13.0436 71.3836 13.0446C71.9352 13.0466 72.4771 12.8983 72.9513 12.6156Z" fill="#646464"/>
<path d="M79.5112 13.8413C78.7951 13.4175 78.2109 12.8019 77.824 12.0636C77.4271 11.2861 77.2201 10.4251 77.2201 9.55158C77.2201 8.67806 77.4271 7.81706 77.824 7.03956C78.2119 6.302 78.7959 5.68667 79.5112 5.26183C80.2511 4.8268 81.0958 4.60358 81.9534 4.61644C82.8132 4.60511 83.6599 4.82817 84.4033 5.26183C85.1224 5.68426 85.7095 6.30002 86.0982 7.03956C86.4975 7.81631 86.7058 8.6776 86.7058 9.55158C86.7058 10.4256 86.4975 11.2868 86.0982 12.0636C85.7107 12.804 85.1233 13.4201 84.4033 13.8413C83.6599 14.275 82.8132 14.4981 81.9534 14.4867C81.0958 14.4996 80.2511 14.2764 79.5112 13.8413ZM83.5173 12.6162C84.0059 12.3203 84.4052 11.8969 84.6729 11.3912C84.9592 10.8198 85.1083 10.1891 85.1083 9.54965C85.1083 8.91016 84.9592 8.27953 84.6729 7.70815C84.4052 7.20243 84.0059 6.77904 83.5173 6.48306C83.0464 6.2024 82.5088 6.05427 81.9611 6.05427C81.4133 6.05427 80.8757 6.2024 80.4048 6.48306C79.9152 6.77765 79.5154 7.2014 79.2492 7.70815C78.9606 8.27881 78.8102 8.90972 78.8102 9.54965C78.8102 10.1896 78.9606 10.8205 79.2492 11.3912C79.5154 11.8979 79.9152 12.3216 80.4048 12.6162C80.8757 12.8969 81.4133 13.045 81.9611 13.045C82.5088 13.045 83.0464 12.8969 83.5173 12.6162Z" fill="#646464"/>
<path d="M89.6303 17.7207C88.9759 17.2561 88.4765 16.6042 88.1974 15.8502L89.6689 15.2319C89.8476 15.7746 90.1979 16.244 90.6665 16.569C91.1642 16.92 91.761 17.1015 92.3692 17.0869C92.7858 17.1137 93.2033 17.0511 93.5939 16.9031C93.9845 16.7552 94.3391 16.5253 94.6342 16.229C95.1957 15.5622 95.4798 14.7042 95.4277 13.8329V12.8397H95.3506C95.0274 13.3285 94.5861 13.7273 94.0679 13.9991C93.4844 14.3169 92.8289 14.4779 92.165 14.4667C91.3922 14.4696 90.635 14.2481 89.9847 13.829C89.3037 13.3936 88.7506 12.784 88.3823 12.0629C87.9898 11.2765 87.7854 10.4091 87.7854 9.5296C87.7854 8.65012 87.9898 7.78274 88.3823 6.99633C88.7536 6.27736 89.3061 5.66846 89.9847 5.23019C90.635 4.8111 91.3922 4.58964 92.165 4.59253C92.8289 4.58126 93.4844 4.74235 94.0679 5.06015C94.5884 5.3373 95.0299 5.74298 95.3506 6.23887H95.4277V4.89397H96.9377V13.7826C96.9649 14.6855 96.7592 15.58 96.3406 16.3797C95.9708 17.0638 95.4026 17.619 94.7112 17.9719C93.9824 18.3285 93.1799 18.5073 92.3692 18.4936C91.3962 18.546 90.4334 18.2743 89.6303 17.7207ZM93.9177 12.6232C94.39 12.3268 94.7734 11.9074 95.0271 11.4098C95.3195 10.835 95.4639 10.1959 95.4469 9.55086C95.463 8.90215 95.3188 8.25953 95.0271 7.68037C94.777 7.18019 94.3928 6.75992 93.9177 6.46688C93.4611 6.19355 92.9393 6.04924 92.4077 6.04924C91.876 6.04924 91.3542 6.19355 90.8977 6.46688C90.4253 6.76333 90.0419 7.1827 89.7883 7.68037C89.5119 8.26151 89.3684 8.89728 89.3684 9.5412C89.3684 10.1851 89.5119 10.8209 89.7883 11.402C90.0419 11.8997 90.4253 12.3191 90.8977 12.6155C91.3534 12.8913 91.8755 13.037 92.4077 13.037C92.9399 13.037 93.462 12.8913 93.9177 12.6155V12.6232Z" fill="#646464"/>
<path d="M99.6516 1.03569H101.235V14.4267H99.6516V1.03569Z" fill="#646464"/>
<path d="M104.991 14.0858C104.291 13.6636 103.721 13.0566 103.342 12.3312C102.936 11.5463 102.731 10.6725 102.745 9.7883C102.737 8.92856 102.929 8.07885 103.307 7.3072C103.662 6.57302 104.212 5.95216 104.898 5.51401C105.61 5.06607 106.435 4.83513 107.275 4.84929C108.101 4.8324 108.916 5.0422 109.632 5.45604C110.303 5.862 110.839 6.45759 111.173 7.16807C111.548 7.96209 111.734 8.8326 111.716 9.71101C111.722 9.84101 111.709 9.97113 111.678 10.0975H104.347C104.353 10.7212 104.527 11.3316 104.852 11.8636C105.135 12.3195 105.534 12.6917 106.008 12.9418C106.455 13.1723 106.95 13.2928 107.452 13.2935C108.621 13.2935 109.519 12.7203 110.149 11.5738L111.547 12.2501C111.162 12.9835 110.594 13.6041 109.898 14.051C109.154 14.4908 108.307 14.7266 107.443 14.7347C106.579 14.7429 105.728 14.5231 104.975 14.0974L104.991 14.0858ZM110.052 8.75644C110.022 8.36547 109.915 7.98442 109.736 7.6357C109.529 7.23901 109.216 6.90836 108.831 6.68113C108.347 6.40573 107.796 6.27185 107.24 6.29467C106.574 6.28286 105.928 6.5229 105.43 6.96712C104.91 7.43465 104.569 8.06837 104.463 8.76031L110.052 8.75644Z" fill="#646464"/>
<path d="M117.787 1.03507H121.832C123.078 1.00674 124.31 1.29948 125.411 1.88529C126.406 2.42829 127.222 3.25007 127.76 4.25045C128.3 5.33 128.581 6.52098 128.581 7.72862C128.581 8.93627 128.3 10.1272 127.76 11.2068C127.225 12.2094 126.408 13.0319 125.411 13.572C124.311 14.1609 123.078 14.4551 121.832 14.426H117.787V1.03507ZM121.832 12.9111C123.411 12.9111 124.661 12.4551 125.58 11.543C126.499 10.631 126.959 9.3595 126.959 7.72862C126.959 6.09775 126.499 4.82628 125.58 3.91423C124.661 3.00217 123.411 2.54743 121.832 2.55001H119.371V12.9111H121.832Z" fill="#646464"/>
<path d="M132.667 14.0862C131.966 13.6651 131.396 13.0579 131.018 12.3317C130.61 11.5474 130.405 10.6731 130.421 9.78873C130.411 8.92929 130.603 8.07956 130.979 7.30764C131.336 6.57409 131.888 5.9536 132.574 5.51444C133.285 5.06609 134.111 4.83512 134.951 4.84973C135.777 4.83342 136.592 5.04318 137.308 5.45648C137.978 5.86368 138.513 6.45892 138.849 7.16851C139.221 7.96343 139.405 8.83352 139.388 9.71144C139.396 9.8415 139.383 9.97194 139.35 10.0979H132.035C132.037 10.7221 132.211 11.3336 132.539 11.864C132.821 12.3211 133.22 12.6935 133.695 12.9423C134.142 13.1727 134.637 13.2932 135.14 13.294C136.308 13.294 137.207 12.7207 137.836 11.5742L139.234 12.2505C138.848 12.9841 138.279 13.6046 137.582 14.0514C136.838 14.4913 135.992 14.7271 135.128 14.7352C134.265 14.7434 133.415 14.5236 132.663 14.0978L132.667 14.0862ZM137.728 8.75688C137.697 8.36567 137.588 7.98465 137.408 7.63613C137.203 7.2396 136.891 6.90887 136.507 6.68157C136.022 6.40566 135.469 6.27177 134.912 6.2951C134.247 6.28351 133.602 6.52359 133.106 6.96755C132.585 7.4347 132.242 8.06839 132.135 8.76075L137.728 8.75688Z" fill="#646464"/>
<path d="M139.789 5.1511H141.503L144.338 12.5558H144.373L147.242 5.1511H148.922L145.139 14.4262H143.533L139.789 5.1511Z" fill="#646464"/>
<path d="M151.308 14.0862C150.608 13.6651 150.037 13.0579 149.659 12.3317C149.253 11.5467 149.048 10.6729 149.062 9.78873C149.055 8.92949 149.246 8.08018 149.621 7.30764C149.978 6.57409 150.53 5.9536 151.215 5.51444C151.927 5.0665 152.752 4.83557 153.592 4.84973C154.418 4.83342 155.233 5.04318 155.95 5.45648C156.619 5.86368 157.155 6.45892 157.49 7.16851C157.864 7.9628 158.049 8.83333 158.03 9.71144C158.036 9.84125 158.024 9.9713 157.995 10.0979H150.665C150.668 10.7219 150.843 11.3329 151.169 11.864C151.451 12.3211 151.85 12.6935 152.325 12.9423C152.772 13.1727 153.267 13.2932 153.769 13.294C154.925 13.294 155.838 12.722 156.466 11.5742L157.864 12.2505C157.479 12.984 156.911 13.6045 156.215 14.0514C155.471 14.4912 154.624 14.727 153.76 14.7352C152.896 14.7433 152.045 14.5235 151.292 14.0978L151.308 14.0862ZM156.369 8.75688C156.338 8.36623 156.231 7.98553 156.054 7.63613C155.845 7.24029 155.532 6.90992 155.148 6.68157C154.663 6.40566 154.111 6.27177 153.554 6.2951C152.889 6.28389 152.244 6.52392 151.747 6.96755C151.228 7.4357 150.885 8.0689 150.776 8.76075L156.369 8.75688Z" fill="#646464"/>
<path d="M159.648 1.03569H161.235V14.4267H159.648V1.03569Z" fill="#646464"/>
<path d="M165.037 14.0787C164.321 13.6549 163.737 13.0393 163.35 12.301C162.953 11.5235 162.746 10.6625 162.746 9.789C162.746 8.91548 162.953 8.05448 163.35 7.27698C163.738 6.53942 164.322 5.92409 165.037 5.49925C165.777 5.06422 166.622 4.841 167.479 4.85386C168.339 4.84253 169.186 5.06559 169.929 5.49925C170.648 5.92167 171.235 6.53744 171.624 7.27698C172.023 8.05373 172.232 8.91502 172.232 9.789C172.232 10.663 172.023 11.5243 171.624 12.301C171.236 13.0414 170.649 13.6575 169.929 14.0787C169.185 14.5084 168.338 14.7274 167.479 14.7125C166.623 14.7289 165.778 14.5097 165.037 14.0787ZM169.043 12.8537C169.532 12.5577 169.931 12.1343 170.199 11.6286C170.485 11.0572 170.634 10.4266 170.634 9.78707C170.634 9.14757 170.485 8.51694 170.199 7.94557C169.931 7.43985 169.532 7.01646 169.043 6.72048C168.572 6.43982 168.035 6.29169 167.487 6.29169C166.939 6.29169 166.401 6.43982 165.931 6.72048C165.441 7.01507 165.041 7.43882 164.775 7.94557C164.486 8.51623 164.336 9.14714 164.336 9.78707C164.336 10.427 164.486 11.0579 164.775 11.6286C165.041 12.1353 165.441 12.5591 165.931 12.8537C166.401 13.1343 166.939 13.2824 167.487 13.2824C168.035 13.2824 168.572 13.1343 169.043 12.8537Z" fill="#646464"/>
<path d="M173.665 5.15087H175.175V6.51509H175.248C175.572 6.01817 176.014 5.61032 176.535 5.32865C177.124 5.0029 177.788 4.83768 178.461 4.84943C179.24 4.84585 180.003 5.07013 180.656 5.49482C181.336 5.93225 181.889 6.54137 182.259 7.26096C182.652 8.04457 182.856 8.90946 182.856 9.78651C182.856 10.6636 182.652 11.5284 182.259 12.312C181.889 13.0316 181.336 13.6408 180.656 14.0782C180.003 14.5029 179.24 14.7272 178.461 14.7236C177.781 14.7372 177.109 14.5734 176.512 14.2482C175.986 13.9657 175.545 13.5483 175.233 13.0386H175.16L175.233 14.3294V18.4645H173.65L173.665 5.15087ZM179.751 12.8531C180.228 12.5546 180.614 12.1309 180.868 11.628C181.144 11.0534 181.287 10.424 181.287 9.78651C181.287 9.14898 181.144 8.51962 180.868 7.94501C180.614 7.44209 180.228 7.01845 179.751 6.71992C179.296 6.43679 178.77 6.28813 178.234 6.29094C177.697 6.28714 177.17 6.43298 176.712 6.71219C176.234 7.00363 175.847 7.42413 175.595 7.92568C175.319 8.50548 175.175 9.13998 175.175 9.78264C175.175 10.4253 175.319 11.0598 175.595 11.6396C175.846 12.1445 176.233 12.5688 176.712 12.8647C177.171 13.141 177.698 13.2854 178.234 13.2821C178.77 13.2849 179.296 13.1362 179.751 12.8531Z" fill="#646464"/>
<path d="M186.573 14.0863C185.873 13.6643 185.301 13.0574 184.921 12.3317C184.516 11.5465 184.312 10.6727 184.328 9.78879C184.318 8.92934 184.509 8.07962 184.886 7.30769C185.239 6.57484 185.787 5.95421 186.469 5.5145C187.179 5.06666 188.004 4.8357 188.842 4.84978C189.67 4.83297 190.486 5.04274 191.203 5.45653C191.872 5.86479 192.407 6.45974 192.744 7.16856C193.116 7.96348 193.301 8.83357 193.284 9.7115C193.291 9.84155 193.278 9.97199 193.245 10.098H185.93C185.933 10.7216 186.106 11.3325 186.431 11.8641C186.714 12.32 187.113 12.6922 187.586 12.9423C188.033 13.1728 188.528 13.2933 189.031 13.294C190.199 13.294 191.098 12.7208 191.727 11.5743L193.126 12.2506C192.741 12.984 192.173 13.6046 191.477 14.0515C190.733 14.4913 189.887 14.7272 189.024 14.7353C188.16 14.7434 187.31 14.5236 186.558 14.0979L186.573 14.0863ZM191.635 8.75693C191.604 8.36573 191.495 7.9847 191.315 7.63619C191.109 7.23865 190.795 6.9077 190.41 6.68162C189.926 6.40564 189.375 6.27172 188.819 6.29516C188.154 6.28356 187.509 6.52364 187.012 6.96761C186.491 7.43374 186.147 8.06792 186.042 8.7608L191.635 8.75693Z" fill="#646464"/>
<path d="M194.913 5.15092H196.423V6.66586H196.485C196.682 6.12412 197.06 5.66786 197.556 5.37507C198.031 5.04531 198.592 4.86257 199.17 4.84948C199.539 4.84593 199.906 4.91011 200.252 5.03885V6.73929C199.847 6.53686 199.398 6.43984 198.946 6.45717C198.509 6.45681 198.083 6.59178 197.725 6.84364C197.343 7.10236 197.032 7.45317 196.82 7.8639C196.596 8.29163 196.481 8.76821 196.485 9.25131V14.4261H194.902L194.913 5.15092Z" fill="#646464"/>
<path d="M207.205 14.3026C206.569 14.0164 206.003 13.5959 205.545 13.0697C205.054 12.4997 204.701 11.8239 204.512 11.0949L206.022 10.4804C206.205 11.2355 206.607 11.9189 207.178 12.4437C207.72 12.9457 208.432 13.222 209.169 13.2166C209.88 13.2402 210.577 13.0193 211.146 12.5905C211.406 12.3906 211.615 12.1306 211.754 11.8326C211.894 11.5347 211.96 11.2074 211.947 10.8785C211.954 10.5866 211.897 10.2967 211.78 10.0295C211.663 9.76229 211.488 9.52433 211.269 9.33264C210.604 8.81794 209.849 8.43376 209.042 8.20029L208.203 7.90272C207.351 7.62046 206.564 7.16825 205.891 6.57328C205.587 6.28032 205.35 5.92488 205.196 5.53131C205.042 5.13775 204.974 4.71537 204.998 4.29314C204.995 3.66609 205.176 3.05207 205.518 2.52701C205.875 1.97244 206.374 1.52405 206.962 1.22849C207.605 0.897037 208.32 0.729786 209.042 0.741545C209.739 0.725879 210.43 0.872726 211.061 1.17052C211.589 1.41754 212.059 1.77455 212.44 2.21783C212.752 2.57264 212.99 2.98655 213.141 3.4352L211.669 4.069C211.503 3.51886 211.156 3.04097 210.686 2.71221C210.216 2.38346 209.649 2.22294 209.077 2.25648C208.443 2.24015 207.824 2.44506 207.324 2.83618C207.098 3.0047 206.914 3.22449 206.788 3.47766C206.662 3.73084 206.598 4.01024 206.6 4.29314C206.595 4.54015 206.648 4.78489 206.754 5.00771C206.861 5.23054 207.018 5.42524 207.213 5.57621C207.779 5.98444 208.409 6.29648 209.077 6.49986L209.936 6.79743C210.918 7.12286 211.822 7.64925 212.59 8.34329C212.916 8.67153 213.17 9.06466 213.335 9.49733C213.5 9.93 213.573 10.3926 213.549 10.8553C213.575 11.6325 213.344 12.3963 212.891 13.0272C212.463 13.6015 211.886 14.0467 211.223 14.3142C210.56 14.5871 209.851 14.7276 209.135 14.7277C208.469 14.7245 207.811 14.5796 207.205 14.3026Z" fill="#646464"/>
<path d="M217.417 14.5339C217.116 14.4169 216.841 14.2424 216.608 14.0199C216.362 13.7823 216.173 13.4915 216.057 13.1697C215.93 12.7968 215.87 12.4043 215.88 12.0103V6.59597H214.242V5.15832H215.88V2.38738H217.447V5.15832H219.72V6.59597H217.447V11.6471C217.413 12.0672 217.525 12.4864 217.763 12.8335C217.88 12.9762 218.029 13.0888 218.198 13.1621C218.367 13.2353 218.55 13.2671 218.734 13.2547C219.087 13.2626 219.435 13.1716 219.739 12.9919V14.5378C219.554 14.6078 219.364 14.6608 219.169 14.6963C218.927 14.7215 218.684 14.7267 218.441 14.7117C218.092 14.7161 217.744 14.6558 217.417 14.5339Z" fill="#646464"/>
<path d="M222.189 13.7345C221.561 12.9611 221.244 11.9791 221.303 10.9828V5.1511H222.886V10.7239C222.886 12.4321 223.657 13.2849 225.198 13.2823C225.687 13.2883 226.166 13.138 226.565 12.8533C226.969 12.5685 227.29 12.1819 227.497 11.7326C227.715 11.2767 227.827 10.7772 227.825 10.2718V5.1511H229.389V14.4262H227.898V13.0388H227.825C227.524 13.541 227.096 13.9543 226.584 14.2369C226.046 14.5575 225.431 14.7257 224.805 14.7238C223.644 14.7161 222.772 14.3863 222.189 13.7345Z" fill="#646464"/>
<path d="M233.102 14.0866C232.421 13.6521 231.867 13.0423 231.5 12.3204C231.107 11.534 230.903 10.6667 230.903 9.78716C230.903 8.90767 231.107 8.04029 231.5 7.25389C231.867 6.53206 232.421 5.92218 233.102 5.48775C233.759 5.0669 234.523 4.84545 235.302 4.85008C235.974 4.84029 236.638 5.00539 237.228 5.3293C237.755 5.60228 238.199 6.01198 238.515 6.51574H238.588L238.515 5.24428V1.03569H240.082V14.4267H238.588V13.0393H238.515C238.203 13.5518 237.758 13.9698 237.228 14.2489C236.637 14.5698 235.974 14.7335 235.302 14.7242C234.523 14.7289 233.759 14.5074 233.102 14.0866ZM237.062 12.8653C237.541 12.5684 237.929 12.1445 238.183 11.6403C238.457 11.0598 238.599 10.4255 238.599 9.78329C238.599 9.14105 238.457 8.50682 238.183 7.92634C237.929 7.42534 237.541 7.00518 237.062 6.71284C236.605 6.43491 236.08 6.28798 235.545 6.28798C235.01 6.28798 234.485 6.43491 234.027 6.71284C233.549 7.01174 233.162 7.4352 232.906 7.93793C232.631 8.51254 232.488 9.1419 232.488 9.77943C232.488 10.417 232.631 11.0463 232.906 11.6209C233.162 12.1237 233.549 12.5471 234.027 12.846C234.483 13.1291 235.009 13.2778 235.545 13.275C236.078 13.2806 236.603 13.1389 237.062 12.8653Z" fill="#646464"/>
<path d="M243.865 14.0862C243.166 13.664 242.595 13.0571 242.216 12.3317C241.81 11.5467 241.605 10.6729 241.619 9.78873C241.611 8.929 241.804 8.07929 242.182 7.30764C242.536 6.57346 243.087 5.95259 243.773 5.51444C244.484 5.0665 245.31 4.83557 246.149 4.84973C246.975 4.83342 247.79 5.04318 248.507 5.45648C249.177 5.86244 249.713 6.45803 250.048 7.16851C250.422 7.96253 250.608 8.83304 250.591 9.71144C250.596 9.84144 250.583 9.97157 250.552 10.0979H243.222C243.225 10.7219 243.4 11.3329 243.726 11.864C244.009 12.32 244.408 12.6921 244.882 12.9423C245.328 13.1727 245.821 13.2932 246.323 13.294C247.494 13.294 248.392 12.7207 249.019 11.5742L250.417 12.2505C250.033 12.984 249.464 13.6045 248.769 14.0514C248.024 14.4912 247.177 14.727 246.313 14.7352C245.449 14.7433 244.598 14.5235 243.846 14.0978L243.865 14.0862ZM248.927 8.75688C248.897 8.36591 248.789 7.98485 248.611 7.63613C248.404 7.23945 248.09 6.9088 247.706 6.68157C247.22 6.40566 246.668 6.27177 246.111 6.2951C245.446 6.28389 244.801 6.52392 244.304 6.96755C243.785 7.43509 243.443 8.06881 243.337 8.76075L248.927 8.75688Z" fill="#646464"/>
<path d="M252.204 5.15079H253.714V6.53433H253.791C254.083 6.02928 254.509 5.61476 255.02 5.3363C255.563 5.01602 256.182 4.84785 256.811 4.84935C257.94 4.84935 258.803 5.18171 259.392 5.84257C260.016 6.60059 260.332 7.56641 260.278 8.54781V14.4221H258.71V8.79515C258.71 7.12563 257.94 6.29087 256.399 6.29087C255.918 6.28583 255.448 6.43623 255.059 6.71984C254.661 7.00746 254.343 7.39356 254.138 7.84058C253.921 8.29665 253.809 8.79597 253.811 9.30142V14.4259H252.224L252.204 5.15079Z" fill="#646464"/>
<path d="M264.404 14.5339C264.104 14.4169 263.829 14.2423 263.595 14.0199C263.349 13.7823 263.161 13.4915 263.044 13.1697C262.919 12.7964 262.859 12.4041 262.867 12.0103V6.59597H261.226V5.15832H262.867V2.38738H264.435V5.15832H266.708V6.59597H264.435V11.6471C264.401 12.0672 264.512 12.4864 264.751 12.8335C264.867 12.9762 265.016 13.0888 265.185 13.1621C265.354 13.2353 265.538 13.2671 265.721 13.2547C266.074 13.2612 266.422 13.1703 266.727 12.9919V14.5378C266.542 14.6078 266.351 14.6608 266.157 14.6962C265.917 14.721 265.676 14.7261 265.436 14.7117C265.084 14.717 264.734 14.6567 264.404 14.5339Z" fill="#646464"/>
<path d="M275.19 13.8082C274.145 13.2107 273.283 12.338 272.698 11.2846C272.106 10.1941 271.796 8.97245 271.796 7.73104C271.796 6.48963 272.106 5.26797 272.698 4.17751C273.283 3.12409 274.145 2.25142 275.19 1.6539C276.255 1.04077 277.464 0.724531 278.691 0.737977C279.638 0.72559 280.577 0.919414 281.442 1.30608C282.262 1.68373 282.99 2.23634 283.576 2.92536L282.459 4.02679C282.011 3.45619 281.439 2.9961 280.787 2.68189C280.128 2.38644 279.413 2.23999 278.691 2.25291C277.765 2.24412 276.853 2.47862 276.045 2.93309C275.239 3.38822 274.573 4.0566 274.119 4.86541C273.649 5.74825 273.402 6.73385 273.402 7.73491C273.402 8.73596 273.649 9.72156 274.119 10.6044C274.571 11.4147 275.237 12.0835 276.045 12.5367C276.853 12.9924 277.765 13.2282 278.691 13.2208C279.487 13.2246 280.273 13.0462 280.99 12.6993C281.707 12.3525 282.336 11.8461 282.828 11.2189L283.984 12.3435C283.364 13.0868 282.588 13.6833 281.711 14.0903C280.682 14.5576 279.557 14.7765 278.428 14.7296C277.299 14.6826 276.197 14.371 275.209 13.8198L275.19 13.8082Z" fill="#646464"/>
<path d="M285.513 0.524939H287.096V13.9159H285.513V0.524939Z" fill="#646464"/>
<path d="M290.031 13.2237C289.404 12.45 289.089 11.4678 289.149 10.4721V4.64035H290.732V10.2132C290.732 11.9213 291.503 12.7741 293.044 12.7716C293.535 12.7783 294.015 12.6281 294.415 12.3426C294.817 12.0555 295.138 11.6696 295.347 11.2218C295.562 10.765 295.672 10.266 295.671 9.761V4.64035H297.239V13.9155H295.748V12.5281H295.671C295.37 13.0293 294.944 13.4424 294.434 13.7261C293.888 14.0467 293.264 14.2111 292.632 14.2015C291.491 14.2015 290.625 13.8756 290.031 13.2237Z" fill="#646464"/>
<path d="M302.224 13.7381C301.697 13.4567 301.256 13.039 300.945 12.5285H300.875V13.9159H299.365V0.524939H300.948V4.73353L300.875 6.00499H300.948C301.272 5.50807 301.714 5.10022 302.235 4.81855C302.824 4.4928 303.488 4.32758 304.161 4.33934C304.941 4.33523 305.706 4.55952 306.361 4.98473C307.039 5.42299 307.592 6.0319 307.963 6.75087C308.356 7.53448 308.56 8.39937 308.56 9.27641C308.56 10.1535 308.356 11.0183 307.963 11.802C307.592 12.5209 307.039 13.1298 306.361 13.5681C305.706 13.9933 304.941 14.2176 304.161 14.2135C303.485 14.2258 302.818 14.062 302.224 13.7381ZM305.448 12.343C305.924 12.0445 306.311 11.6208 306.565 11.1179C306.84 10.5433 306.983 9.91394 306.983 9.27641C306.983 8.63889 306.84 8.00952 306.565 7.43492C306.311 6.932 305.924 6.50836 305.448 6.20983C304.989 5.93155 304.464 5.78445 303.928 5.78445C303.392 5.78445 302.867 5.93155 302.408 6.20983C301.93 6.50127 301.543 6.92176 301.291 7.42332C301.015 8.00312 300.872 8.63762 300.872 9.28028C300.872 9.92293 301.015 10.5574 301.291 11.1372C301.543 11.6421 301.929 12.0665 302.408 12.3623C302.867 12.638 303.392 12.7824 303.926 12.7797C304.464 12.7803 304.991 12.629 305.448 12.343Z" fill="#646464"/>
<path d="M310.844 13.974C310.19 13.5167 309.689 12.8713 309.407 12.1229L310.806 11.5084C311.021 12.048 311.386 12.5146 311.857 12.8533C312.291 13.1595 312.81 13.3229 313.34 13.3209C313.862 13.3416 314.378 13.2072 314.823 12.9344C314.993 12.838 315.136 12.6998 315.239 12.5329C315.341 12.3659 315.4 12.1757 315.409 11.9799C315.411 11.8058 315.372 11.6336 315.296 11.4772C315.22 11.3208 315.108 11.1846 314.97 11.0794C314.518 10.773 314.008 10.5625 313.471 10.4611L312.204 10.1403C311.547 10.0012 310.935 9.69962 310.424 9.26303C310.183 9.05671 309.992 8.79829 309.864 8.50714C309.737 8.21599 309.677 7.89968 309.689 7.58192C309.674 7.04571 309.849 6.5216 310.182 6.10176C310.528 5.67802 310.982 5.35617 311.495 5.17038C312.067 4.95264 312.675 4.84386 313.286 4.84962C314.045 4.84109 314.793 5.0316 315.455 5.40226C316.083 5.74073 316.574 6.28701 316.846 6.94812L315.447 7.54714C315.269 7.12118 314.949 6.77026 314.542 6.55392C314.124 6.34061 313.66 6.2319 313.19 6.23703C312.728 6.23224 312.274 6.35525 311.877 6.59257C311.7 6.67615 311.55 6.80766 311.444 6.97224C311.337 7.13683 311.279 7.32792 311.276 7.52394C311.27 7.6748 311.303 7.82455 311.37 7.95956C311.438 8.09457 311.537 8.21053 311.661 8.29687C312.036 8.53323 312.449 8.70317 312.882 8.79928L314.261 9.1355C315.031 9.2933 315.744 9.65948 316.322 10.1944C316.541 10.4136 316.713 10.6747 316.83 10.9621C316.946 11.2496 317.004 11.5576 317 11.8678C317.004 12.391 316.841 12.9017 316.534 13.3248C316.201 13.7803 315.751 14.1358 315.232 14.3528C314.632 14.6153 313.983 14.747 313.329 14.7392C312.44 14.7594 311.569 14.491 310.844 13.974Z" fill="#646464"/>
<path d="M59.5527 22.9688V31.5H58.416L54.1211 24.9199V31.5H52.9902V22.9688H54.1211L58.4336 29.5664V22.9688H59.5527ZM65.1309 30.416V27.1523C65.1309 26.9023 65.0801 26.6855 64.9785 26.502C64.8809 26.3145 64.7324 26.1699 64.5332 26.0684C64.334 25.9668 64.0879 25.916 63.7949 25.916C63.5215 25.916 63.2812 25.9629 63.0742 26.0566C62.8711 26.1504 62.7109 26.2734 62.5938 26.4258C62.4805 26.5781 62.4238 26.7422 62.4238 26.918H61.3398C61.3398 26.6914 61.3984 26.4668 61.5156 26.2441C61.6328 26.0215 61.8008 25.8203 62.0195 25.6406C62.2422 25.457 62.5078 25.3125 62.8164 25.207C63.1289 25.0977 63.4766 25.043 63.8594 25.043C64.3203 25.043 64.7266 25.1211 65.0781 25.2773C65.4336 25.4336 65.7109 25.6699 65.9102 25.9863C66.1133 26.2988 66.2148 26.6914 66.2148 27.1641V30.1172C66.2148 30.3281 66.2324 30.5527 66.2676 30.791C66.3066 31.0293 66.3633 31.2344 66.4375 31.4062V31.5H65.3066C65.252 31.375 65.209 31.209 65.1777 31.002C65.1465 30.791 65.1309 30.5957 65.1309 30.416ZM65.3184 27.6562L65.3301 28.418H64.2344C63.9258 28.418 63.6504 28.4434 63.4082 28.4941C63.166 28.541 62.9629 28.6133 62.7988 28.7109C62.6348 28.8086 62.5098 28.9316 62.4238 29.0801C62.3379 29.2246 62.2949 29.3945 62.2949 29.5898C62.2949 29.7891 62.3398 29.9707 62.4297 30.1348C62.5195 30.2988 62.6543 30.4297 62.834 30.5273C63.0176 30.6211 63.2422 30.668 63.5078 30.668C63.8398 30.668 64.1328 30.5977 64.3867 30.457C64.6406 30.3164 64.8418 30.1445 64.9902 29.9414C65.1426 29.7383 65.2246 29.541 65.2363 29.3496L65.6992 29.8711C65.6719 30.0352 65.5977 30.2168 65.4766 30.416C65.3555 30.6152 65.1934 30.8066 64.9902 30.9902C64.791 31.1699 64.5527 31.3203 64.2754 31.4414C64.002 31.5586 63.6934 31.6172 63.3496 31.6172C62.9199 31.6172 62.543 31.5332 62.2188 31.3652C61.8984 31.1973 61.6484 30.9727 61.4688 30.6914C61.293 30.4062 61.2051 30.0879 61.2051 29.7363C61.2051 29.3965 61.2715 29.0977 61.4043 28.8398C61.5371 28.5781 61.7285 28.3613 61.9785 28.1895C62.2285 28.0137 62.5293 27.8809 62.8809 27.791C63.2324 27.7012 63.625 27.6562 64.0586 27.6562H65.3184ZM70.5742 25.1602V25.9922H67.1465V25.1602H70.5742ZM68.3066 23.6191H69.3906V29.9297C69.3906 30.1445 69.4238 30.3066 69.4902 30.416C69.5566 30.5254 69.6426 30.5977 69.748 30.6328C69.8535 30.668 69.9668 30.6855 70.0879 30.6855C70.1777 30.6855 70.2715 30.6777 70.3691 30.6621C70.4707 30.6426 70.5469 30.627 70.5977 30.6152L70.6035 31.5C70.5176 31.5273 70.4043 31.5527 70.2637 31.5762C70.127 31.6035 69.9609 31.6172 69.7656 31.6172C69.5 31.6172 69.2559 31.5645 69.0332 31.459C68.8105 31.3535 68.6328 31.1777 68.5 30.9316C68.3711 30.6816 68.3066 30.3457 68.3066 29.9238V23.6191ZM73.0234 25.1602V31.5H71.9336V25.1602H73.0234ZM71.8516 23.4785C71.8516 23.3027 71.9043 23.1543 72.0098 23.0332C72.1191 22.9121 72.2793 22.8516 72.4902 22.8516C72.6973 22.8516 72.8555 22.9121 72.9648 23.0332C73.0781 23.1543 73.1348 23.3027 73.1348 23.4785C73.1348 23.6465 73.0781 23.791 72.9648 23.9121C72.8555 24.0293 72.6973 24.0879 72.4902 24.0879C72.2793 24.0879 72.1191 24.0293 72.0098 23.9121C71.9043 23.791 71.8516 23.6465 71.8516 23.4785ZM74.4766 28.4004V28.2656C74.4766 27.8086 74.543 27.3848 74.6758 26.9941C74.8086 26.5996 75 26.2578 75.25 25.9688C75.5 25.6758 75.8027 25.4492 76.1582 25.2891C76.5137 25.125 76.9121 25.043 77.3535 25.043C77.7988 25.043 78.1992 25.125 78.5547 25.2891C78.9141 25.4492 79.2188 25.6758 79.4688 25.9688C79.7227 26.2578 79.916 26.5996 80.0488 26.9941C80.1816 27.3848 80.248 27.8086 80.248 28.2656V28.4004C80.248 28.8574 80.1816 29.2812 80.0488 29.6719C79.916 30.0625 79.7227 30.4043 79.4688 30.6973C79.2188 30.9863 78.916 31.2129 78.5605 31.377C78.209 31.5371 77.8105 31.6172 77.3652 31.6172C76.9199 31.6172 76.5195 31.5371 76.1641 31.377C75.8086 31.2129 75.5039 30.9863 75.25 30.6973C75 30.4043 74.8086 30.0625 74.6758 29.6719C74.543 29.2812 74.4766 28.8574 74.4766 28.4004ZM75.5605 28.2656V28.4004C75.5605 28.7168 75.5977 29.0156 75.6719 29.2969C75.7461 29.5742 75.8574 29.8203 76.0059 30.0352C76.1582 30.25 76.3477 30.4199 76.5742 30.5449C76.8008 30.666 77.0645 30.7266 77.3652 30.7266C77.6621 30.7266 77.9219 30.666 78.1445 30.5449C78.3711 30.4199 78.5586 30.25 78.707 30.0352C78.8555 29.8203 78.9668 29.5742 79.041 29.2969C79.1191 29.0156 79.1582 28.7168 79.1582 28.4004V28.2656C79.1582 27.9531 79.1191 27.6582 79.041 27.3809C78.9668 27.0996 78.8535 26.8516 78.7012 26.6367C78.5527 26.418 78.3652 26.2461 78.1387 26.1211C77.916 25.9961 77.6543 25.9336 77.3535 25.9336C77.0566 25.9336 76.7949 25.9961 76.5684 26.1211C76.3457 26.2461 76.1582 26.418 76.0059 26.6367C75.8574 26.8516 75.7461 27.0996 75.6719 27.3809C75.5977 27.6582 75.5605 27.9531 75.5605 28.2656ZM82.6914 26.5137V31.5H81.6074V25.1602H82.6328L82.6914 26.5137ZM82.4336 28.0898L81.9824 28.0723C81.9863 27.6387 82.0508 27.2383 82.1758 26.8711C82.3008 26.5 82.4766 26.1777 82.7031 25.9043C82.9297 25.6309 83.1992 25.4199 83.5117 25.2715C83.8281 25.1191 84.1777 25.043 84.5605 25.043C84.873 25.043 85.1543 25.0859 85.4043 25.1719C85.6543 25.2539 85.8672 25.3867 86.043 25.5703C86.2227 25.7539 86.3594 25.9922 86.4531 26.2852C86.5469 26.5742 86.5938 26.9277 86.5938 27.3457V31.5H85.5039V27.334C85.5039 27.002 85.4551 26.7363 85.3574 26.5371C85.2598 26.334 85.1172 26.1875 84.9297 26.0977C84.7422 26.0039 84.5117 25.957 84.2383 25.957C83.9688 25.957 83.7227 26.0137 83.5 26.127C83.2812 26.2402 83.0918 26.3965 82.9316 26.5957C82.7754 26.7949 82.6523 27.0234 82.5625 27.2812C82.4766 27.5352 82.4336 27.8047 82.4336 28.0898ZM91.9785 30.416V27.1523C91.9785 26.9023 91.9277 26.6855 91.8262 26.502C91.7285 26.3145 91.5801 26.1699 91.3809 26.0684C91.1816 25.9668 90.9355 25.916 90.6426 25.916C90.3691 25.916 90.1289 25.9629 89.9219 26.0566C89.7188 26.1504 89.5586 26.2734 89.4414 26.4258C89.3281 26.5781 89.2715 26.7422 89.2715 26.918H88.1875C88.1875 26.6914 88.2461 26.4668 88.3633 26.2441C88.4805 26.0215 88.6484 25.8203 88.8672 25.6406C89.0898 25.457 89.3555 25.3125 89.6641 25.207C89.9766 25.0977 90.3242 25.043 90.707 25.043C91.168 25.043 91.5742 25.1211 91.9258 25.2773C92.2812 25.4336 92.5586 25.6699 92.7578 25.9863C92.9609 26.2988 93.0625 26.6914 93.0625 27.1641V30.1172C93.0625 30.3281 93.0801 30.5527 93.1152 30.791C93.1543 31.0293 93.2109 31.2344 93.2852 31.4062V31.5H92.1543C92.0996 31.375 92.0566 31.209 92.0254 31.002C91.9941 30.791 91.9785 30.5957 91.9785 30.416ZM92.166 27.6562L92.1777 28.418H91.082C90.7734 28.418 90.498 28.4434 90.2559 28.4941C90.0137 28.541 89.8105 28.6133 89.6465 28.7109C89.4824 28.8086 89.3574 28.9316 89.2715 29.0801C89.1855 29.2246 89.1426 29.3945 89.1426 29.5898C89.1426 29.7891 89.1875 29.9707 89.2773 30.1348C89.3672 30.2988 89.502 30.4297 89.6816 30.5273C89.8652 30.6211 90.0898 30.668 90.3555 30.668C90.6875 30.668 90.9805 30.5977 91.2344 30.457C91.4883 30.3164 91.6895 30.1445 91.8379 29.9414C91.9902 29.7383 92.0723 29.541 92.084 29.3496L92.5469 29.8711C92.5195 30.0352 92.4453 30.2168 92.3242 30.416C92.2031 30.6152 92.041 30.8066 91.8379 30.9902C91.6387 31.1699 91.4004 31.3203 91.123 31.4414C90.8496 31.5586 90.541 31.6172 90.1973 31.6172C89.7676 31.6172 89.3906 31.5332 89.0664 31.3652C88.7461 31.1973 88.4961 30.9727 88.3164 30.6914C88.1406 30.4062 88.0527 30.0879 88.0527 29.7363C88.0527 29.3965 88.1191 29.0977 88.252 28.8398C88.3848 28.5781 88.5762 28.3613 88.8262 28.1895C89.0762 28.0137 89.377 27.8809 89.7285 27.791C90.0801 27.7012 90.4727 27.6562 90.9062 27.6562H92.166ZM95.9453 22.5V31.5H94.8555V22.5H95.9453ZM102.039 22.9688V31.5H100.908V22.9688H102.039ZM105.016 26.5137V31.5H103.932V25.1602H104.957L105.016 26.5137ZM104.758 28.0898L104.307 28.0723C104.311 27.6387 104.375 27.2383 104.5 26.8711C104.625 26.5 104.801 26.1777 105.027 25.9043C105.254 25.6309 105.523 25.4199 105.836 25.2715C106.152 25.1191 106.502 25.043 106.885 25.043C107.197 25.043 107.479 25.0859 107.729 25.1719C107.979 25.2539 108.191 25.3867 108.367 25.5703C108.547 25.7539 108.684 25.9922 108.777 26.2852C108.871 26.5742 108.918 26.9277 108.918 27.3457V31.5H107.828V27.334C107.828 27.002 107.779 26.7363 107.682 26.5371C107.584 26.334 107.441 26.1875 107.254 26.0977C107.066 26.0039 106.836 25.957 106.562 25.957C106.293 25.957 106.047 26.0137 105.824 26.127C105.605 26.2402 105.416 26.3965 105.256 26.5957C105.1 26.7949 104.977 27.0234 104.887 27.2812C104.801 27.5352 104.758 27.8047 104.758 28.0898ZM114.256 29.8184C114.256 29.6621 114.221 29.5176 114.15 29.3848C114.084 29.248 113.945 29.125 113.734 29.0156C113.527 28.9023 113.215 28.8047 112.797 28.7227C112.445 28.6484 112.127 28.5605 111.842 28.459C111.561 28.3574 111.32 28.2344 111.121 28.0898C110.926 27.9453 110.775 27.7754 110.67 27.5801C110.564 27.3848 110.512 27.1562 110.512 26.8945C110.512 26.6445 110.566 26.4082 110.676 26.1855C110.789 25.9629 110.947 25.7656 111.15 25.5938C111.357 25.4219 111.605 25.2871 111.895 25.1895C112.184 25.0918 112.506 25.043 112.861 25.043C113.369 25.043 113.803 25.1328 114.162 25.3125C114.521 25.4922 114.797 25.7324 114.988 26.0332C115.18 26.3301 115.275 26.6602 115.275 27.0234H114.191C114.191 26.8477 114.139 26.6777 114.033 26.5137C113.932 26.3457 113.781 26.207 113.582 26.0977C113.387 25.9883 113.146 25.9336 112.861 25.9336C112.561 25.9336 112.316 25.9805 112.129 26.0742C111.945 26.1641 111.811 26.2793 111.725 26.4199C111.643 26.5605 111.602 26.709 111.602 26.8652C111.602 26.9824 111.621 27.0879 111.66 27.1816C111.703 27.2715 111.777 27.3555 111.883 27.4336C111.988 27.5078 112.137 27.5781 112.328 27.6445C112.52 27.7109 112.764 27.7773 113.061 27.8438C113.58 27.9609 114.008 28.1016 114.344 28.2656C114.68 28.4297 114.93 28.6309 115.094 28.8691C115.258 29.1074 115.34 29.3965 115.34 29.7363C115.34 30.0137 115.281 30.2676 115.164 30.498C115.051 30.7285 114.885 30.9277 114.666 31.0957C114.451 31.2598 114.193 31.3887 113.893 31.4824C113.596 31.5723 113.262 31.6172 112.891 31.6172C112.332 31.6172 111.859 31.5176 111.473 31.3184C111.086 31.1191 110.793 30.8613 110.594 30.5449C110.395 30.2285 110.295 29.8945 110.295 29.543H111.385C111.4 29.8398 111.486 30.0762 111.643 30.252C111.799 30.4238 111.99 30.5469 112.217 30.6211C112.443 30.6914 112.668 30.7266 112.891 30.7266C113.188 30.7266 113.436 30.6875 113.635 30.6094C113.838 30.5312 113.992 30.4238 114.098 30.2871C114.203 30.1504 114.256 29.9941 114.256 29.8184ZM119.418 25.1602V25.9922H115.99V25.1602H119.418ZM117.15 23.6191H118.234V29.9297C118.234 30.1445 118.268 30.3066 118.334 30.416C118.4 30.5254 118.486 30.5977 118.592 30.6328C118.697 30.668 118.811 30.6855 118.932 30.6855C119.021 30.6855 119.115 30.6777 119.213 30.6621C119.314 30.6426 119.391 30.627 119.441 30.6152L119.447 31.5C119.361 31.5273 119.248 31.5527 119.107 31.5762C118.971 31.6035 118.805 31.6172 118.609 31.6172C118.344 31.6172 118.1 31.5645 117.877 31.459C117.654 31.3535 117.477 31.1777 117.344 30.9316C117.215 30.6816 117.15 30.3457 117.15 29.9238V23.6191ZM121.867 25.1602V31.5H120.777V25.1602H121.867ZM120.695 23.4785C120.695 23.3027 120.748 23.1543 120.854 23.0332C120.963 22.9121 121.123 22.8516 121.334 22.8516C121.541 22.8516 121.699 22.9121 121.809 23.0332C121.922 23.1543 121.979 23.3027 121.979 23.4785C121.979 23.6465 121.922 23.791 121.809 23.9121C121.699 24.0293 121.541 24.0879 121.334 24.0879C121.123 24.0879 120.963 24.0293 120.854 23.9121C120.748 23.791 120.695 23.6465 120.695 23.4785ZM126.262 25.1602V25.9922H122.834V25.1602H126.262ZM123.994 23.6191H125.078V29.9297C125.078 30.1445 125.111 30.3066 125.178 30.416C125.244 30.5254 125.33 30.5977 125.436 30.6328C125.541 30.668 125.654 30.6855 125.775 30.6855C125.865 30.6855 125.959 30.6777 126.057 30.6621C126.158 30.6426 126.234 30.627 126.285 30.6152L126.291 31.5C126.205 31.5273 126.092 31.5527 125.951 31.5762C125.814 31.6035 125.648 31.6172 125.453 31.6172C125.188 31.6172 124.943 31.5645 124.721 31.459C124.498 31.3535 124.32 31.1777 124.188 30.9316C124.059 30.6816 123.994 30.3457 123.994 29.9238V23.6191ZM131.412 30.0352V25.1602H132.502V31.5H131.465L131.412 30.0352ZM131.617 28.6992L132.068 28.6875C132.068 29.1094 132.023 29.5 131.934 29.8594C131.848 30.2148 131.707 30.5234 131.512 30.7852C131.316 31.0469 131.061 31.252 130.744 31.4004C130.428 31.5449 130.043 31.6172 129.59 31.6172C129.281 31.6172 128.998 31.5723 128.74 31.4824C128.486 31.3926 128.268 31.2539 128.084 31.0664C127.9 30.8789 127.758 30.6348 127.656 30.334C127.559 30.0332 127.51 29.6719 127.51 29.25V25.1602H128.594V29.2617C128.594 29.5469 128.625 29.7832 128.688 29.9707C128.754 30.1543 128.842 30.3008 128.951 30.4102C129.064 30.5156 129.189 30.5898 129.326 30.6328C129.467 30.6758 129.611 30.6973 129.76 30.6973C130.221 30.6973 130.586 30.6094 130.855 30.4336C131.125 30.2539 131.318 30.0137 131.436 29.7129C131.557 29.4082 131.617 29.0703 131.617 28.6992ZM136.785 31.6172C136.344 31.6172 135.943 31.543 135.584 31.3945C135.229 31.2422 134.922 31.0293 134.664 30.7559C134.41 30.4824 134.215 30.1582 134.078 29.7832C133.941 29.4082 133.873 28.998 133.873 28.5527V28.3066C133.873 27.791 133.949 27.332 134.102 26.9297C134.254 26.5234 134.461 26.1797 134.723 25.8984C134.984 25.6172 135.281 25.4043 135.613 25.2598C135.945 25.1152 136.289 25.043 136.645 25.043C137.098 25.043 137.488 25.1211 137.816 25.2773C138.148 25.4336 138.42 25.6523 138.631 25.9336C138.842 26.2109 138.998 26.5391 139.1 26.918C139.201 27.293 139.252 27.7031 139.252 28.1484V28.6348H134.518V27.75H138.168V27.668C138.152 27.3867 138.094 27.1133 137.992 26.8477C137.895 26.582 137.738 26.3633 137.523 26.1914C137.309 26.0195 137.016 25.9336 136.645 25.9336C136.398 25.9336 136.172 25.9863 135.965 26.0918C135.758 26.1934 135.58 26.3457 135.432 26.5488C135.283 26.752 135.168 27 135.086 27.293C135.004 27.5859 134.963 27.9238 134.963 28.3066V28.5527C134.963 28.8535 135.004 29.1367 135.086 29.4023C135.172 29.6641 135.295 29.8945 135.455 30.0938C135.619 30.293 135.816 30.4492 136.047 30.5625C136.281 30.6758 136.547 30.7324 136.844 30.7324C137.227 30.7324 137.551 30.6543 137.816 30.498C138.082 30.3418 138.314 30.1328 138.514 29.8711L139.17 30.3926C139.033 30.5996 138.859 30.7969 138.648 30.9844C138.438 31.1719 138.178 31.3242 137.869 31.4414C137.564 31.5586 137.203 31.6172 136.785 31.6172ZM143.207 28.4004V28.2656C143.207 27.8086 143.273 27.3848 143.406 26.9941C143.539 26.5996 143.73 26.2578 143.98 25.9688C144.23 25.6758 144.533 25.4492 144.889 25.2891C145.244 25.125 145.643 25.043 146.084 25.043C146.529 25.043 146.93 25.125 147.285 25.2891C147.645 25.4492 147.949 25.6758 148.199 25.9688C148.453 26.2578 148.646 26.5996 148.779 26.9941C148.912 27.3848 148.979 27.8086 148.979 28.2656V28.4004C148.979 28.8574 148.912 29.2812 148.779 29.6719C148.646 30.0625 148.453 30.4043 148.199 30.6973C147.949 30.9863 147.646 31.2129 147.291 31.377C146.939 31.5371 146.541 31.6172 146.096 31.6172C145.65 31.6172 145.25 31.5371 144.895 31.377C144.539 31.2129 144.234 30.9863 143.98 30.6973C143.73 30.4043 143.539 30.0625 143.406 29.6719C143.273 29.2812 143.207 28.8574 143.207 28.4004ZM144.291 28.2656V28.4004C144.291 28.7168 144.328 29.0156 144.402 29.2969C144.477 29.5742 144.588 29.8203 144.736 30.0352C144.889 30.25 145.078 30.4199 145.305 30.5449C145.531 30.666 145.795 30.7266 146.096 30.7266C146.393 30.7266 146.652 30.666 146.875 30.5449C147.102 30.4199 147.289 30.25 147.438 30.0352C147.586 29.8203 147.697 29.5742 147.771 29.2969C147.85 29.0156 147.889 28.7168 147.889 28.4004V28.2656C147.889 27.9531 147.85 27.6582 147.771 27.3809C147.697 27.0996 147.584 26.8516 147.432 26.6367C147.283 26.418 147.096 26.2461 146.869 26.1211C146.646 25.9961 146.385 25.9336 146.084 25.9336C145.787 25.9336 145.525 25.9961 145.299 26.1211C145.076 26.2461 144.889 26.418 144.736 26.6367C144.588 26.8516 144.477 27.0996 144.402 27.3809C144.328 27.6582 144.291 27.9531 144.291 28.2656ZM151.955 31.5H150.871V24.4922C150.871 24.0352 150.953 23.6504 151.117 23.3379C151.285 23.0215 151.525 22.7832 151.838 22.623C152.15 22.459 152.521 22.377 152.951 22.377C153.076 22.377 153.201 22.3848 153.326 22.4004C153.455 22.416 153.58 22.4395 153.701 22.4707L153.643 23.3555C153.561 23.3359 153.467 23.3223 153.361 23.3145C153.26 23.3066 153.158 23.3027 153.057 23.3027C152.826 23.3027 152.627 23.3496 152.459 23.4434C152.295 23.5332 152.17 23.666 152.084 23.8418C151.998 24.0176 151.955 24.2344 151.955 24.4922V31.5ZM153.303 25.1602V25.9922H149.869V25.1602H153.303ZM160.568 22.9688V31.5H159.455V22.9688H160.568ZM163.311 22.9688V23.8945H156.719V22.9688H163.311ZM166.457 31.6172C166.016 31.6172 165.615 31.543 165.256 31.3945C164.9 31.2422 164.594 31.0293 164.336 30.7559C164.082 30.4824 163.887 30.1582 163.75 29.7832C163.613 29.4082 163.545 28.998 163.545 28.5527V28.3066C163.545 27.791 163.621 27.332 163.773 26.9297C163.926 26.5234 164.133 26.1797 164.395 25.8984C164.656 25.6172 164.953 25.4043 165.285 25.2598C165.617 25.1152 165.961 25.043 166.316 25.043C166.77 25.043 167.16 25.1211 167.488 25.2773C167.82 25.4336 168.092 25.6523 168.303 25.9336C168.514 26.2109 168.67 26.5391 168.771 26.918C168.873 27.293 168.924 27.7031 168.924 28.1484V28.6348H164.189V27.75H167.84V27.668C167.824 27.3867 167.766 27.1133 167.664 26.8477C167.566 26.582 167.41 26.3633 167.195 26.1914C166.98 26.0195 166.688 25.9336 166.316 25.9336C166.07 25.9336 165.844 25.9863 165.637 26.0918C165.43 26.1934 165.252 26.3457 165.104 26.5488C164.955 26.752 164.84 27 164.758 27.293C164.676 27.5859 164.635 27.9238 164.635 28.3066V28.5527C164.635 28.8535 164.676 29.1367 164.758 29.4023C164.844 29.6641 164.967 29.8945 165.127 30.0938C165.291 30.293 165.488 30.4492 165.719 30.5625C165.953 30.6758 166.219 30.7324 166.516 30.7324C166.898 30.7324 167.223 30.6543 167.488 30.498C167.754 30.3418 167.986 30.1328 168.186 29.8711L168.842 30.3926C168.705 30.5996 168.531 30.7969 168.32 30.9844C168.109 31.1719 167.85 31.3242 167.541 31.4414C167.236 31.5586 166.875 31.6172 166.457 31.6172ZM172.727 30.7266C172.984 30.7266 173.223 30.6738 173.441 30.5684C173.66 30.4629 173.84 30.3184 173.98 30.1348C174.121 29.9473 174.201 29.7344 174.221 29.4961H175.252C175.232 29.8711 175.105 30.2207 174.871 30.5449C174.641 30.8652 174.338 31.125 173.963 31.3242C173.588 31.5195 173.176 31.6172 172.727 31.6172C172.25 31.6172 171.834 31.5332 171.479 31.3652C171.127 31.1973 170.834 30.9668 170.6 30.6738C170.369 30.3809 170.195 30.0449 170.078 29.666C169.965 29.2832 169.908 28.8789 169.908 28.4531V28.207C169.908 27.7812 169.965 27.3789 170.078 27C170.195 26.6172 170.369 26.2793 170.6 25.9863C170.834 25.6934 171.127 25.4629 171.479 25.2949C171.834 25.127 172.25 25.043 172.727 25.043C173.223 25.043 173.656 25.1445 174.027 25.3477C174.398 25.5469 174.689 25.8203 174.9 26.168C175.115 26.5117 175.232 26.9023 175.252 27.3398H174.221C174.201 27.0781 174.127 26.8418 173.998 26.6309C173.873 26.4199 173.701 26.252 173.482 26.127C173.268 25.998 173.016 25.9336 172.727 25.9336C172.395 25.9336 172.115 26 171.889 26.1328C171.666 26.2617 171.488 26.4375 171.355 26.6602C171.227 26.8789 171.133 27.123 171.074 27.3926C171.02 27.6582 170.992 27.9297 170.992 28.207V28.4531C170.992 28.7305 171.02 29.0039 171.074 29.2734C171.129 29.543 171.221 29.7871 171.35 30.0059C171.482 30.2246 171.66 30.4004 171.883 30.5332C172.109 30.6621 172.391 30.7266 172.727 30.7266ZM177.555 22.5V31.5H176.471V22.5H177.555ZM177.297 28.0898L176.846 28.0723C176.85 27.6387 176.914 27.2383 177.039 26.8711C177.164 26.5 177.34 26.1777 177.566 25.9043C177.793 25.6309 178.062 25.4199 178.375 25.2715C178.691 25.1191 179.041 25.043 179.424 25.043C179.736 25.043 180.018 25.0859 180.268 25.1719C180.518 25.2539 180.73 25.3867 180.906 25.5703C181.086 25.7539 181.223 25.9922 181.316 26.2852C181.41 26.5742 181.457 26.9277 181.457 27.3457V31.5H180.367V27.334C180.367 27.002 180.318 26.7363 180.221 26.5371C180.123 26.334 179.98 26.1875 179.793 26.0977C179.605 26.0039 179.375 25.957 179.102 25.957C178.832 25.957 178.586 26.0137 178.363 26.127C178.145 26.2402 177.955 26.3965 177.795 26.5957C177.639 26.7949 177.516 27.0234 177.426 27.2812C177.34 27.5352 177.297 27.8047 177.297 28.0898ZM184.164 26.5137V31.5H183.08V25.1602H184.105L184.164 26.5137ZM183.906 28.0898L183.455 28.0723C183.459 27.6387 183.523 27.2383 183.648 26.8711C183.773 26.5 183.949 26.1777 184.176 25.9043C184.402 25.6309 184.672 25.4199 184.984 25.2715C185.301 25.1191 185.65 25.043 186.033 25.043C186.346 25.043 186.627 25.0859 186.877 25.1719C187.127 25.2539 187.34 25.3867 187.516 25.5703C187.695 25.7539 187.832 25.9922 187.926 26.2852C188.02 26.5742 188.066 26.9277 188.066 27.3457V31.5H186.977V27.334C186.977 27.002 186.928 26.7363 186.83 26.5371C186.732 26.334 186.59 26.1875 186.402 26.0977C186.215 26.0039 185.984 25.957 185.711 25.957C185.441 25.957 185.195 26.0137 184.973 26.127C184.754 26.2402 184.564 26.3965 184.404 26.5957C184.248 26.7949 184.125 27.0234 184.035 27.2812C183.949 27.5352 183.906 27.8047 183.906 28.0898ZM189.426 28.4004V28.2656C189.426 27.8086 189.492 27.3848 189.625 26.9941C189.758 26.5996 189.949 26.2578 190.199 25.9688C190.449 25.6758 190.752 25.4492 191.107 25.2891C191.463 25.125 191.861 25.043 192.303 25.043C192.748 25.043 193.148 25.125 193.504 25.2891C193.863 25.4492 194.168 25.6758 194.418 25.9688C194.672 26.2578 194.865 26.5996 194.998 26.9941C195.131 27.3848 195.197 27.8086 195.197 28.2656V28.4004C195.197 28.8574 195.131 29.2812 194.998 29.6719C194.865 30.0625 194.672 30.4043 194.418 30.6973C194.168 30.9863 193.865 31.2129 193.51 31.377C193.158 31.5371 192.76 31.6172 192.314 31.6172C191.869 31.6172 191.469 31.5371 191.113 31.377C190.758 31.2129 190.453 30.9863 190.199 30.6973C189.949 30.4043 189.758 30.0625 189.625 29.6719C189.492 29.2812 189.426 28.8574 189.426 28.4004ZM190.51 28.2656V28.4004C190.51 28.7168 190.547 29.0156 190.621 29.2969C190.695 29.5742 190.807 29.8203 190.955 30.0352C191.107 30.25 191.297 30.4199 191.523 30.5449C191.75 30.666 192.014 30.7266 192.314 30.7266C192.611 30.7266 192.871 30.666 193.094 30.5449C193.32 30.4199 193.508 30.25 193.656 30.0352C193.805 29.8203 193.916 29.5742 193.99 29.2969C194.068 29.0156 194.107 28.7168 194.107 28.4004V28.2656C194.107 27.9531 194.068 27.6582 193.99 27.3809C193.916 27.0996 193.803 26.8516 193.65 26.6367C193.502 26.418 193.314 26.2461 193.088 26.1211C192.865 25.9961 192.604 25.9336 192.303 25.9336C192.006 25.9336 191.744 25.9961 191.518 26.1211C191.295 26.2461 191.107 26.418 190.955 26.6367C190.807 26.8516 190.695 27.0996 190.621 27.3809C190.547 27.6582 190.51 27.9531 190.51 28.2656ZM197.734 22.5V31.5H196.645V22.5H197.734ZM199.188 28.4004V28.2656C199.188 27.8086 199.254 27.3848 199.387 26.9941C199.52 26.5996 199.711 26.2578 199.961 25.9688C200.211 25.6758 200.514 25.4492 200.869 25.2891C201.225 25.125 201.623 25.043 202.064 25.043C202.51 25.043 202.91 25.125 203.266 25.2891C203.625 25.4492 203.93 25.6758 204.18 25.9688C204.434 26.2578 204.627 26.5996 204.76 26.9941C204.893 27.3848 204.959 27.8086 204.959 28.2656V28.4004C204.959 28.8574 204.893 29.2812 204.76 29.6719C204.627 30.0625 204.434 30.4043 204.18 30.6973C203.93 30.9863 203.627 31.2129 203.271 31.377C202.92 31.5371 202.521 31.6172 202.076 31.6172C201.631 31.6172 201.23 31.5371 200.875 31.377C200.52 31.2129 200.215 30.9863 199.961 30.6973C199.711 30.4043 199.52 30.0625 199.387 29.6719C199.254 29.2812 199.188 28.8574 199.188 28.4004ZM200.271 28.2656V28.4004C200.271 28.7168 200.309 29.0156 200.383 29.2969C200.457 29.5742 200.568 29.8203 200.717 30.0352C200.869 30.25 201.059 30.4199 201.285 30.5449C201.512 30.666 201.775 30.7266 202.076 30.7266C202.373 30.7266 202.633 30.666 202.855 30.5449C203.082 30.4199 203.27 30.25 203.418 30.0352C203.566 29.8203 203.678 29.5742 203.752 29.2969C203.83 29.0156 203.869 28.7168 203.869 28.4004V28.2656C203.869 27.9531 203.83 27.6582 203.752 27.3809C203.678 27.0996 203.564 26.8516 203.412 26.6367C203.264 26.418 203.076 26.2461 202.85 26.1211C202.627 25.9961 202.365 25.9336 202.064 25.9336C201.768 25.9336 201.506 25.9961 201.279 26.1211C201.057 26.2461 200.869 26.418 200.717 26.6367C200.568 26.8516 200.457 27.0996 200.383 27.3809C200.309 27.6582 200.271 27.9531 200.271 28.2656ZM210.426 25.1602H211.41V31.3652C211.41 31.9238 211.297 32.4004 211.07 32.7949C210.844 33.1895 210.527 33.4883 210.121 33.6914C209.719 33.8984 209.254 34.002 208.727 34.002C208.508 34.002 208.25 33.9668 207.953 33.8965C207.66 33.8301 207.371 33.7148 207.086 33.5508C206.805 33.3906 206.568 33.1738 206.377 32.9004L206.945 32.2559C207.211 32.5762 207.488 32.7988 207.777 32.9238C208.07 33.0488 208.359 33.1113 208.645 33.1113C208.988 33.1113 209.285 33.0469 209.535 32.918C209.785 32.7891 209.979 32.5977 210.115 32.3438C210.256 32.0938 210.326 31.7852 210.326 31.418V26.5547L210.426 25.1602ZM206.061 28.4004V28.2773C206.061 27.793 206.117 27.3535 206.23 26.959C206.348 26.5605 206.514 26.2188 206.729 25.9336C206.947 25.6484 207.211 25.4297 207.52 25.2773C207.828 25.1211 208.176 25.043 208.562 25.043C208.961 25.043 209.309 25.1133 209.605 25.2539C209.906 25.3906 210.16 25.5918 210.367 25.8574C210.578 26.1191 210.744 26.4355 210.865 26.8066C210.986 27.1777 211.07 27.5977 211.117 28.0664V28.6055C211.074 29.0703 210.99 29.4883 210.865 29.8594C210.744 30.2305 210.578 30.5469 210.367 30.8086C210.16 31.0703 209.906 31.2715 209.605 31.4121C209.305 31.5488 208.953 31.6172 208.551 31.6172C208.172 31.6172 207.828 31.5371 207.52 31.377C207.215 31.2168 206.953 30.9922 206.734 30.7031C206.516 30.4141 206.348 30.0742 206.23 29.6836C206.117 29.2891 206.061 28.8613 206.061 28.4004ZM207.145 28.2773V28.4004C207.145 28.7168 207.176 29.0137 207.238 29.291C207.305 29.5684 207.404 29.8125 207.537 30.0234C207.674 30.2344 207.848 30.4004 208.059 30.5215C208.27 30.6387 208.521 30.6973 208.814 30.6973C209.174 30.6973 209.471 30.6211 209.705 30.4688C209.939 30.3164 210.125 30.1152 210.262 29.8652C210.402 29.6152 210.512 29.3438 210.59 29.0508V27.6387C210.547 27.4238 210.48 27.2168 210.391 27.0176C210.305 26.8145 210.191 26.6348 210.051 26.4785C209.914 26.3184 209.744 26.1914 209.541 26.0977C209.338 26.0039 209.1 25.957 208.826 25.957C208.529 25.957 208.273 26.0195 208.059 26.1445C207.848 26.2656 207.674 26.4336 207.537 26.6484C207.404 26.8594 207.305 27.1055 207.238 27.3867C207.176 27.6641 207.145 27.9609 207.145 28.2773ZM214.838 30.8438L216.602 25.1602H217.762L215.219 32.4785C215.16 32.6348 215.082 32.8027 214.984 32.9824C214.891 33.166 214.77 33.3398 214.621 33.5039C214.473 33.668 214.293 33.8008 214.082 33.9023C213.875 34.0078 213.627 34.0605 213.338 34.0605C213.252 34.0605 213.143 34.0488 213.01 34.0254C212.877 34.002 212.783 33.9824 212.729 33.9668L212.723 33.0879C212.754 33.0918 212.803 33.0957 212.869 33.0996C212.939 33.1074 212.988 33.1113 213.016 33.1113C213.262 33.1113 213.471 33.0781 213.643 33.0117C213.814 32.9492 213.959 32.8418 214.076 32.6895C214.197 32.541 214.301 32.3359 214.387 32.0742L214.838 30.8438ZM213.543 25.1602L215.189 30.082L215.471 31.2246L214.691 31.623L212.359 25.1602H213.543ZM219.092 30.2109V31.084C219.092 31.4395 219.002 31.8145 218.822 32.209C218.643 32.6074 218.391 32.9395 218.066 33.2051L217.451 32.7773C217.576 32.6055 217.682 32.4297 217.768 32.25C217.854 32.0742 217.918 31.8906 217.961 31.6992C218.008 31.5117 218.031 31.3125 218.031 31.1016V30.2109H219.092ZM223.615 22.9688H226.439C227.08 22.9688 227.621 23.0664 228.062 23.2617C228.508 23.457 228.846 23.7461 229.076 24.1289C229.311 24.5078 229.428 24.9746 229.428 25.5293C229.428 25.9199 229.348 26.2773 229.188 26.6016C229.031 26.9219 228.805 27.1953 228.508 27.4219C228.215 27.6445 227.863 27.8105 227.453 27.9199L227.137 28.043H224.482L224.471 27.123H226.475C226.881 27.123 227.219 27.0527 227.488 26.9121C227.758 26.7676 227.961 26.5742 228.098 26.332C228.234 26.0898 228.303 25.8223 228.303 25.5293C228.303 25.2012 228.238 24.9141 228.109 24.668C227.98 24.4219 227.777 24.2324 227.5 24.0996C227.227 23.9629 226.873 23.8945 226.439 23.8945H224.746V31.5H223.615V22.9688ZM228.602 31.5L226.527 27.6328L227.705 27.627L229.809 31.4297V31.5H228.602ZM230.559 28.4004V28.2656C230.559 27.8086 230.625 27.3848 230.758 26.9941C230.891 26.5996 231.082 26.2578 231.332 25.9688C231.582 25.6758 231.885 25.4492 232.24 25.2891C232.596 25.125 232.994 25.043 233.436 25.043C233.881 25.043 234.281 25.125 234.637 25.2891C234.996 25.4492 235.301 25.6758 235.551 25.9688C235.805 26.2578 235.998 26.5996 236.131 26.9941C236.264 27.3848 236.33 27.8086 236.33 28.2656V28.4004C236.33 28.8574 236.264 29.2812 236.131 29.6719C235.998 30.0625 235.805 30.4043 235.551 30.6973C235.301 30.9863 234.998 31.2129 234.643 31.377C234.291 31.5371 233.893 31.6172 233.447 31.6172C233.002 31.6172 232.602 31.5371 232.246 31.377C231.891 31.2129 231.586 30.9863 231.332 30.6973C231.082 30.4043 230.891 30.0625 230.758 29.6719C230.625 29.2812 230.559 28.8574 230.559 28.4004ZM231.643 28.2656V28.4004C231.643 28.7168 231.68 29.0156 231.754 29.2969C231.828 29.5742 231.939 29.8203 232.088 30.0352C232.24 30.25 232.43 30.4199 232.656 30.5449C232.883 30.666 233.146 30.7266 233.447 30.7266C233.744 30.7266 234.004 30.666 234.227 30.5449C234.453 30.4199 234.641 30.25 234.789 30.0352C234.938 29.8203 235.049 29.5742 235.123 29.2969C235.201 29.0156 235.24 28.7168 235.24 28.4004V28.2656C235.24 27.9531 235.201 27.6582 235.123 27.3809C235.049 27.0996 234.936 26.8516 234.783 26.6367C234.635 26.418 234.447 26.2461 234.221 26.1211C233.998 25.9961 233.736 25.9336 233.436 25.9336C233.139 25.9336 232.877 25.9961 232.65 26.1211C232.428 26.2461 232.24 26.418 232.088 26.6367C231.939 26.8516 231.828 27.0996 231.754 27.3809C231.68 27.6582 231.643 27.9531 231.643 28.2656ZM241.568 30.0352V25.1602H242.658V31.5H241.621L241.568 30.0352ZM241.773 28.6992L242.225 28.6875C242.225 29.1094 242.18 29.5 242.09 29.8594C242.004 30.2148 241.863 30.5234 241.668 30.7852C241.473 31.0469 241.217 31.252 240.9 31.4004C240.584 31.5449 240.199 31.6172 239.746 31.6172C239.438 31.6172 239.154 31.5723 238.896 31.4824C238.643 31.3926 238.424 31.2539 238.24 31.0664C238.057 30.8789 237.914 30.6348 237.812 30.334C237.715 30.0332 237.666 29.6719 237.666 29.25V25.1602H238.75V29.2617C238.75 29.5469 238.781 29.7832 238.844 29.9707C238.91 30.1543 238.998 30.3008 239.107 30.4102C239.221 30.5156 239.346 30.5898 239.482 30.6328C239.623 30.6758 239.768 30.6973 239.916 30.6973C240.377 30.6973 240.742 30.6094 241.012 30.4336C241.281 30.2539 241.475 30.0137 241.592 29.7129C241.713 29.4082 241.773 29.0703 241.773 28.6992ZM245.395 26.1562V31.5H244.311V25.1602H245.365L245.395 26.1562ZM247.375 25.125L247.369 26.1328C247.279 26.1133 247.193 26.1016 247.111 26.0977C247.033 26.0898 246.943 26.0859 246.842 26.0859C246.592 26.0859 246.371 26.125 246.18 26.2031C245.988 26.2812 245.826 26.3906 245.693 26.5312C245.561 26.6719 245.455 26.8398 245.377 27.0352C245.303 27.2266 245.254 27.4375 245.23 27.668L244.926 27.8438C244.926 27.4609 244.963 27.1016 245.037 26.7656C245.115 26.4297 245.234 26.1328 245.395 25.875C245.555 25.6133 245.758 25.4102 246.004 25.2656C246.254 25.1172 246.551 25.043 246.895 25.043C246.973 25.043 247.062 25.0527 247.164 25.0723C247.266 25.0879 247.336 25.1055 247.375 25.125ZM249.467 22.5V31.5H248.377V22.5H249.467ZM253.34 25.1602L250.574 28.1191L249.027 29.7246L248.939 28.5703L250.047 27.2461L252.016 25.1602H253.34ZM252.35 31.5L250.088 28.4766L250.65 27.5098L253.627 31.5H252.35ZM256.973 31.6172C256.531 31.6172 256.131 31.543 255.771 31.3945C255.416 31.2422 255.109 31.0293 254.852 30.7559C254.598 30.4824 254.402 30.1582 254.266 29.7832C254.129 29.4082 254.061 28.998 254.061 28.5527V28.3066C254.061 27.791 254.137 27.332 254.289 26.9297C254.441 26.5234 254.648 26.1797 254.91 25.8984C255.172 25.6172 255.469 25.4043 255.801 25.2598C256.133 25.1152 256.477 25.043 256.832 25.043C257.285 25.043 257.676 25.1211 258.004 25.2773C258.336 25.4336 258.607 25.6523 258.818 25.9336C259.029 26.2109 259.186 26.5391 259.287 26.918C259.389 27.293 259.439 27.7031 259.439 28.1484V28.6348H254.705V27.75H258.355V27.668C258.34 27.3867 258.281 27.1133 258.18 26.8477C258.082 26.582 257.926 26.3633 257.711 26.1914C257.496 26.0195 257.203 25.9336 256.832 25.9336C256.586 25.9336 256.359 25.9863 256.152 26.0918C255.945 26.1934 255.768 26.3457 255.619 26.5488C255.471 26.752 255.355 27 255.273 27.293C255.191 27.5859 255.15 27.9238 255.15 28.3066V28.5527C255.15 28.8535 255.191 29.1367 255.273 29.4023C255.359 29.6641 255.482 29.8945 255.643 30.0938C255.807 30.293 256.004 30.4492 256.234 30.5625C256.469 30.6758 256.734 30.7324 257.031 30.7324C257.414 30.7324 257.738 30.6543 258.004 30.498C258.27 30.3418 258.502 30.1328 258.701 29.8711L259.357 30.3926C259.221 30.5996 259.047 30.7969 258.836 30.9844C258.625 31.1719 258.365 31.3242 258.057 31.4414C257.752 31.5586 257.391 31.6172 256.973 31.6172ZM261.883 22.5V31.5H260.793V22.5H261.883ZM267.361 30.416V27.1523C267.361 26.9023 267.311 26.6855 267.209 26.502C267.111 26.3145 266.963 26.1699 266.764 26.0684C266.564 25.9668 266.318 25.916 266.025 25.916C265.752 25.916 265.512 25.9629 265.305 26.0566C265.102 26.1504 264.941 26.2734 264.824 26.4258C264.711 26.5781 264.654 26.7422 264.654 26.918H263.57C263.57 26.6914 263.629 26.4668 263.746 26.2441C263.863 26.0215 264.031 25.8203 264.25 25.6406C264.473 25.457 264.738 25.3125 265.047 25.207C265.359 25.0977 265.707 25.043 266.09 25.043C266.551 25.043 266.957 25.1211 267.309 25.2773C267.664 25.4336 267.941 25.6699 268.141 25.9863C268.344 26.2988 268.445 26.6914 268.445 27.1641V30.1172C268.445 30.3281 268.463 30.5527 268.498 30.791C268.537 31.0293 268.594 31.2344 268.668 31.4062V31.5H267.537C267.482 31.375 267.439 31.209 267.408 31.002C267.377 30.791 267.361 30.5957 267.361 30.416ZM267.549 27.6562L267.561 28.418H266.465C266.156 28.418 265.881 28.4434 265.639 28.4941C265.396 28.541 265.193 28.6133 265.029 28.7109C264.865 28.8086 264.74 28.9316 264.654 29.0801C264.568 29.2246 264.525 29.3945 264.525 29.5898C264.525 29.7891 264.57 29.9707 264.66 30.1348C264.75 30.2988 264.885 30.4297 265.064 30.5273C265.248 30.6211 265.473 30.668 265.738 30.668C266.07 30.668 266.363 30.5977 266.617 30.457C266.871 30.3164 267.072 30.1445 267.221 29.9414C267.373 29.7383 267.455 29.541 267.467 29.3496L267.93 29.8711C267.902 30.0352 267.828 30.2168 267.707 30.416C267.586 30.6152 267.424 30.8066 267.221 30.9902C267.021 31.1699 266.783 31.3203 266.506 31.4414C266.232 31.5586 265.924 31.6172 265.58 31.6172C265.15 31.6172 264.773 31.5332 264.449 31.3652C264.129 31.1973 263.879 30.9727 263.699 30.6914C263.523 30.4062 263.436 30.0879 263.436 29.7363C263.436 29.3965 263.502 29.0977 263.635 28.8398C263.768 28.5781 263.959 28.3613 264.209 28.1895C264.459 28.0137 264.76 27.8809 265.111 27.791C265.463 27.7012 265.855 27.6562 266.289 27.6562H267.549Z" fill="#646464"/>
</svg>
