<svg width="423" height="115" viewBox="0 0 423 115" fill="none" xmlns="http://www.w3.org/2000/svg">
<path d="M192.656 17.5882L204.343 10.7782C204.997 10.3986 205.57 9.89341 206.03 9.29137C206.49 8.68933 206.827 8.00228 207.022 7.26945C207.217 6.53661 207.267 5.77233 207.168 5.02025C207.069 4.26818 206.823 3.54304 206.445 2.88623C206.067 2.22942 205.564 1.65381 204.965 1.19225C204.365 0.730695 203.681 0.392232 202.951 0.196199C202.221 0.000166556 201.46 -0.0495934 200.711 0.0497413C199.962 0.149076 199.24 0.39557 198.586 0.775149L178.391 12.4807L192.656 17.5882Z" fill="#E84336"/>
<path d="M201.457 35.0063C202.723 35.0061 203.954 34.5866 204.959 33.8128C205.964 33.0389 206.687 31.954 207.016 30.7259C207.344 29.4978 207.261 28.1951 206.777 27.0197C206.294 25.8442 205.438 24.8615 204.343 24.2239L184.148 12.5183C182.825 11.7517 181.253 11.5442 179.777 11.9416C178.302 12.3389 177.044 13.3084 176.281 14.6369C175.517 15.9654 175.311 17.5441 175.706 19.0255C176.102 20.507 177.068 21.7699 178.391 22.5365L198.586 34.2421C199.459 34.7466 200.449 35.0102 201.457 35.0063Z" fill="#4283F2"/>
<path d="M221.546 35.0073C222.553 35.0153 223.544 34.7542 224.417 34.2506L244.612 22.5375L230.536 17.3619L218.667 24.24C217.572 24.8774 216.717 25.8594 216.233 27.0341C215.75 28.2088 215.666 29.5107 215.994 30.7384C216.321 31.966 217.043 33.051 218.047 33.8255C219.05 34.5999 220.28 35.0206 221.546 35.0224V35.0073Z" fill="#F9BA07"/>
<path d="M241.734 23.2939C243 23.2954 244.232 22.8769 245.237 22.1034C246.243 21.3299 246.966 20.2448 247.294 19.0164C247.622 17.7881 247.537 16.4853 247.052 15.3104C246.567 14.1355 245.71 13.1543 244.612 12.519L224.418 0.81347C223.763 0.434388 223.041 0.188393 222.293 0.0895171C221.544 -0.00935857 220.783 0.0408264 220.053 0.23721C219.324 0.433594 218.64 0.772324 218.041 1.23407C217.442 1.69582 216.939 2.27154 216.562 2.92835C216.184 3.58516 215.939 4.3102 215.841 5.06208C215.742 5.81397 215.792 6.57796 215.988 7.31045C216.184 8.04293 216.521 8.72957 216.981 9.33115C217.441 9.93272 218.014 10.4375 218.668 10.8165L238.863 22.5372C239.737 23.0378 240.727 23.2987 241.734 23.2939Z" fill="#35A653"/>
<path d="M14.9952 47.5988H22.9074C25.3442 47.5434 27.7545 48.1165 29.9077 49.2635C31.8549 50.3266 33.452 51.9356 34.5043 53.8943C35.5597 56.0079 36.1093 58.3397 36.1093 60.7042C36.1093 63.0687 35.5597 65.4005 34.5043 67.5142C33.4577 69.4771 31.8591 71.0875 29.9077 72.1449C27.7565 73.2981 25.3453 73.8741 22.9074 73.8172H14.9952V47.5988ZM22.9074 70.8511C25.9969 70.8511 28.4408 69.9582 30.2393 68.1725C32.0377 66.3868 32.937 63.8973 32.937 60.7042C32.937 57.5111 32.0377 55.0217 30.2393 53.236C28.4408 51.4502 25.9969 50.5599 22.9074 50.5649H18.0922V70.8511H22.9074Z" fill="#646464"/>
<path d="M43.1023 73.1519C41.7322 72.3274 40.616 71.1385 39.8771 69.7166C39.0794 68.1811 38.6778 66.4693 38.7091 64.7378C38.6905 63.0551 39.0647 61.3914 39.8017 59.88C40.5001 58.4438 41.5796 57.2289 42.9214 56.3691C44.3125 55.4913 45.928 55.0391 47.5708 55.0676C49.1869 55.0357 50.7812 55.4464 52.1825 56.2556C53.492 57.0529 54.54 58.2183 55.1966 59.6076C55.924 61.164 56.285 62.8676 56.2516 64.5865C56.2665 64.8411 56.241 65.0965 56.1763 65.3431H41.8664C41.8702 66.5653 42.2119 67.7625 42.8536 68.8011C43.4046 69.6959 44.1855 70.4251 45.1142 70.9122C45.9885 71.3633 46.9571 71.5993 47.94 71.6007C50.2258 71.6007 51.984 70.4783 53.2148 68.2336L55.9502 69.5577C55.1945 70.9941 54.0807 72.209 52.7175 73.0838C51.2623 73.9449 49.6072 74.4067 47.9182 74.4226C46.2292 74.4385 44.5657 74.0081 43.0947 73.1746L43.1023 73.1519ZM53.0038 62.7175C52.9429 61.9516 52.7302 61.2055 52.3784 60.5232C51.9763 59.7468 51.3654 59.0993 50.6151 58.6542C49.6661 58.114 48.5853 57.8519 47.4954 57.8976C46.1945 57.8749 44.9327 58.3449 43.9613 59.2142C42.9431 60.1288 42.272 61.3695 42.0624 62.7251L53.0038 62.7175Z" fill="#646464"/>
<path d="M57.0344 55.6572H60.3877L65.9338 70.1548H66.0016L71.6155 55.6572H74.901L67.5012 73.8171H64.3589L57.0344 55.6572Z" fill="#646464"/>
<path d="M80.5678 73.1519C79.1978 72.3274 78.0816 71.1385 77.3426 69.7166C76.5486 68.1798 76.1472 66.4689 76.1747 64.7378C76.1597 63.0555 76.5337 61.3926 77.2673 59.88C77.9657 58.4438 79.0452 57.2289 80.387 56.3691C81.7784 55.4921 83.3937 55.0399 85.0363 55.0676C86.6525 55.0357 88.2467 55.4464 89.648 56.2556C90.9576 57.0529 92.0055 58.2183 92.6622 59.6076C93.3931 61.1628 93.7543 62.8672 93.7171 64.5865C93.7293 64.8406 93.7065 65.0952 93.6493 65.3431H79.3094C79.3166 66.5648 79.6581 67.761 80.2965 68.8011C80.8475 69.6959 81.6284 70.4251 82.5571 70.9121C83.4314 71.3633 84.4 71.5993 85.3829 71.6007C87.6436 71.6007 89.4295 70.4809 90.6577 68.2336L93.3931 69.5577C92.6404 70.9938 91.529 72.2088 90.1679 73.0838C88.7114 73.9449 87.0551 74.4065 85.3649 74.4224C83.6747 74.4384 82.01 74.0081 80.5377 73.1746L80.5678 73.1519ZM90.4693 62.7175C90.4076 61.9526 90.1977 61.2073 89.8515 60.5232C89.4441 59.7482 88.8312 59.1013 88.0806 58.6542C87.1317 58.114 86.0508 57.8519 84.9609 57.8976C83.6601 57.8756 82.3986 58.3456 81.4268 59.2142C80.4111 60.1307 79.7405 61.3705 79.5279 62.7251L90.4693 62.7175Z" fill="#646464"/>
<path d="M96.8827 47.5995H99.9873V73.8178H96.8827V47.5995Z" fill="#646464"/>
<path d="M107.425 73.1372C106.024 72.3073 104.881 71.102 104.124 69.6565C103.348 68.1343 102.943 66.4485 102.943 64.7382C102.943 63.028 103.348 61.3422 104.124 59.8199C104.883 58.3758 106.025 57.1711 107.425 56.3393C108.872 55.4875 110.524 55.0505 112.202 55.0757C113.884 55.0535 115.54 55.4902 116.995 56.3393C118.401 57.1664 119.55 58.372 120.31 59.8199C121.091 61.3407 121.499 63.0271 121.499 64.7382C121.499 66.4494 121.091 68.1357 120.31 69.6565C119.552 71.1062 118.403 72.3124 116.995 73.1372C115.538 73.9783 113.882 74.4072 112.202 74.3781C110.527 74.4102 108.874 73.981 107.425 73.1372ZM115.261 70.7386C116.217 70.1591 116.998 69.3301 117.522 68.34C118.082 67.2213 118.374 65.9865 118.374 64.7345C118.374 63.4824 118.082 62.2477 117.522 61.129C116.998 60.1388 116.217 59.3098 115.261 58.7304C114.34 58.1808 113.289 57.8908 112.217 57.8908C111.146 57.8908 110.094 58.1808 109.173 58.7304C108.215 59.3071 107.433 60.1368 106.912 61.129C106.348 62.2463 106.053 63.4815 106.053 64.7345C106.053 65.9874 106.348 67.2227 106.912 68.34C107.433 69.3321 108.215 70.1618 109.173 70.7386C110.094 71.2881 111.146 71.5781 112.217 71.5781C113.289 71.5781 114.34 71.2881 115.261 70.7386Z" fill="#646464"/>
<path d="M124.304 55.6573H127.258V58.3283H127.401C128.034 57.3553 128.899 56.5568 129.918 56.0053C131.071 55.3675 132.37 55.0441 133.686 55.0671C135.209 55.0601 136.702 55.4992 137.981 56.3307C139.31 57.1871 140.391 58.3797 141.115 59.7886C141.884 61.3229 142.284 63.0162 142.284 64.7334C142.284 66.4506 141.884 68.144 141.115 69.6782C140.391 71.0871 139.31 72.2797 137.981 73.1361C136.702 73.9677 135.209 74.4068 133.686 74.3998C132.356 74.4264 131.042 74.1057 129.873 73.4691C128.845 72.916 127.981 72.0987 127.371 71.1007H127.228L127.371 73.628V81.7242H124.274L124.304 55.6573ZM136.21 70.7375C137.143 70.153 137.898 69.3236 138.395 68.3389C138.934 67.2139 139.213 65.9816 139.213 64.7334C139.213 63.4852 138.934 62.253 138.395 61.1279C137.898 60.1433 137.143 59.3138 136.21 58.7293C135.318 58.175 134.29 57.8839 133.241 57.8894C132.192 57.882 131.161 58.1675 130.264 58.7142C129.329 59.2848 128.571 60.1081 128.079 61.0901C127.539 62.2253 127.258 63.4676 127.258 64.7258C127.258 65.9841 127.539 67.2264 128.079 68.3616C128.571 69.3501 129.328 70.1809 130.264 70.7602C131.163 71.3013 132.193 71.584 133.241 71.5774C134.29 71.5829 135.318 71.2919 136.21 70.7375Z" fill="#646464"/>
<path d="M149.555 73.152C148.185 72.3258 147.066 71.1375 146.322 69.7167C145.531 68.1793 145.132 66.4684 145.162 64.7379C145.143 63.0552 145.518 61.3915 146.255 59.8801C146.945 58.4453 148.016 57.2301 149.352 56.3692C150.74 55.4924 152.353 55.0402 153.993 55.0678C155.612 55.0348 157.209 55.4455 158.613 56.2557C159.921 57.055 160.968 58.2199 161.627 59.6077C162.354 61.1641 162.715 62.8677 162.682 64.5866C162.697 64.8412 162.671 65.0966 162.606 65.3432H148.297C148.302 66.5642 148.641 67.7604 149.276 68.8012C149.83 69.6939 150.61 70.4225 151.537 70.9123C152.411 71.3634 153.38 71.5994 154.363 71.6008C156.648 71.6008 158.407 70.4784 159.638 68.2337L162.373 69.5578C161.62 70.9939 160.509 72.2089 159.148 73.0839C157.693 73.945 156.037 74.4068 154.348 74.4227C152.659 74.4387 150.996 74.0082 149.525 73.1747L149.555 73.152ZM159.457 62.7176C159.396 61.9517 159.183 61.2056 158.831 60.5233C158.428 59.7449 157.814 59.097 157.06 58.6543C156.114 58.114 155.036 57.8518 153.948 57.8977C152.647 57.875 151.386 58.345 150.414 59.2143C149.393 60.1269 148.722 61.3686 148.515 62.7252L159.457 62.7176Z" fill="#646464"/>
<path d="M165.869 55.6575H168.823V58.6236H168.944C169.33 57.5629 170.07 56.6696 171.039 56.0964C171.968 55.4507 173.066 55.0929 174.196 55.0673C174.919 55.0603 175.636 55.186 176.314 55.4381V58.7674C175.522 58.371 174.643 58.1811 173.759 58.215C172.904 58.2143 172.07 58.4785 171.37 58.9717C170.623 59.4782 170.014 60.1651 169.6 60.9693C169.162 61.8067 168.936 62.7398 168.944 63.6857V73.8174H165.847L165.869 55.6575Z" fill="#646464"/>
<path d="M189.915 73.5759C188.672 73.0156 187.564 72.1923 186.667 71.1621C185.708 70.0459 185.017 68.723 184.648 67.2956L187.602 66.0925C187.958 67.5708 188.745 68.909 189.862 69.9363C190.922 70.9192 192.315 71.4603 193.758 71.4497C195.148 71.4958 196.512 71.0633 197.624 70.2239C198.134 69.8323 198.542 69.3234 198.815 68.74C199.088 68.1566 199.217 67.5159 199.191 66.8719C199.206 66.3004 199.094 65.7328 198.865 65.2096C198.636 64.6864 198.294 64.2205 197.865 63.8452C196.565 62.8375 195.087 62.0853 193.509 61.6282L191.867 61.0456C190.2 60.4929 188.662 59.6075 187.345 58.4426C186.751 57.8691 186.287 57.1731 185.985 56.4026C185.683 55.632 185.551 54.805 185.597 53.9783C185.592 52.7506 185.946 51.5484 186.615 50.5204C187.313 49.4346 188.289 48.5567 189.44 47.978C190.698 47.3291 192.096 47.0016 193.509 47.0246C194.873 46.9939 196.224 47.2815 197.458 47.8645C198.492 48.3482 199.411 49.0471 200.156 49.9151C200.767 50.6097 201.233 51.4201 201.527 52.2986L198.649 53.5395C198.322 52.4624 197.645 51.5267 196.725 50.883C195.805 50.2393 194.696 49.9251 193.577 49.9907C192.338 49.9588 191.126 50.3599 190.149 51.1257C189.706 51.4557 189.346 51.886 189.1 52.3817C188.854 52.8774 188.728 53.4244 188.732 53.9783C188.722 54.462 188.826 54.9411 189.034 55.3774C189.242 55.8137 189.549 56.1949 189.93 56.4905C191.039 57.2897 192.271 57.9007 193.577 58.2989L195.258 58.8815C197.178 59.5187 198.946 60.5493 200.45 61.9082C201.087 62.5508 201.584 63.3205 201.907 64.1677C202.23 65.0148 202.373 65.9205 202.326 66.8265C202.377 68.3481 201.924 69.8437 201.037 71.0789C200.2 72.2032 199.072 73.0749 197.774 73.5986C196.479 74.133 195.091 74.4081 193.69 74.4082C192.387 74.4021 191.101 74.1184 189.915 73.5759Z" fill="#646464"/>
<path d="M209.892 74.0288C209.304 73.7997 208.766 73.4579 208.309 73.0225C207.828 72.5572 207.46 71.9878 207.232 71.3578C206.983 70.6278 206.865 69.8591 206.885 69.0878V58.487H203.682V55.6722H206.885V50.2469H209.952V55.6722H214.398V58.487H209.952V68.3766C209.885 69.1993 210.103 70.0199 210.57 70.6995C210.798 70.9788 211.089 71.1994 211.42 71.3428C211.75 71.4863 212.11 71.5485 212.469 71.5243C213.159 71.5397 213.84 71.3615 214.435 71.0098V74.0364C214.074 74.1734 213.7 74.2773 213.32 74.3466C212.847 74.3961 212.371 74.4062 211.896 74.3769C211.212 74.3854 210.533 74.2674 209.892 74.0288Z" fill="#646464"/>
<path d="M219.227 72.4626C217.997 70.9485 217.379 69.0257 217.494 67.0752V55.6572H220.591V66.5682C220.591 69.9127 222.098 71.5824 225.112 71.5773C226.07 71.589 227.007 71.2949 227.788 70.7374C228.577 70.1798 229.206 69.4229 229.611 68.5431C230.037 67.6504 230.256 66.6726 230.252 65.6829V55.6572H233.311V73.8171H230.395V71.1006H230.252C229.663 72.0838 228.826 72.8931 227.825 73.4463C226.772 74.074 225.569 74.4034 224.344 74.3997C222.073 74.3846 220.368 73.7389 219.227 72.4626Z" fill="#646464"/>
<path d="M240.576 73.152C239.242 72.3014 238.16 71.1073 237.441 69.694C236.674 68.1543 236.274 66.4561 236.274 64.7341C236.274 63.0121 236.674 61.3139 237.441 59.7742C238.16 58.3609 239.242 57.1668 240.576 56.3162C241.861 55.4922 243.355 55.0587 244.879 55.0677C246.195 55.0486 247.493 55.3718 248.647 56.006C249.677 56.5405 250.546 57.3426 251.164 58.3289H251.307L251.164 55.8395V47.5995H254.231V73.8178H251.307V71.1014H251.164C250.553 72.1049 249.684 72.9234 248.647 73.4698C247.491 74.0981 246.193 74.4185 244.879 74.4004C243.355 74.4095 241.861 73.976 240.576 73.152ZM248.323 70.7609C249.26 70.1796 250.019 69.3495 250.516 68.3623C251.051 67.2258 251.329 65.984 251.329 64.7265C251.329 63.4691 251.051 62.2273 250.516 61.0908C250.018 60.1099 249.259 59.2872 248.323 58.7149C247.427 58.1707 246.4 57.883 245.354 57.883C244.307 57.883 243.28 58.1707 242.385 58.7149C241.451 59.3001 240.693 60.1292 240.192 61.1135C239.653 62.2385 239.374 63.4707 239.374 64.719C239.374 65.9672 239.653 67.1994 240.192 68.3245C240.693 69.3088 241.451 70.1379 242.385 70.7231C243.276 71.2774 244.305 71.5685 245.354 71.563C246.398 71.5739 247.425 71.2964 248.323 70.7609Z" fill="#646464"/>
<path d="M261.63 73.1519C260.261 72.3253 259.146 71.1369 258.405 69.7166C257.611 68.1798 257.209 66.4689 257.237 64.7378C257.221 63.0545 257.597 61.3908 258.337 59.88C259.03 58.4426 260.107 57.227 261.449 56.3691C262.84 55.4921 264.456 55.0399 266.098 55.0676C267.714 55.0357 269.309 55.4464 270.71 56.2556C272.022 57.0504 273.07 58.2166 273.724 59.6076C274.457 61.1622 274.821 62.8666 274.787 64.5865C274.797 64.841 274.772 65.0958 274.711 65.3431H260.371C260.379 66.5648 260.72 67.761 261.359 68.8011C261.912 69.6938 262.692 70.4224 263.619 70.9121C264.491 71.3632 265.457 71.5993 266.437 71.6007C268.728 71.6007 270.486 70.4783 271.712 68.2336L274.448 69.5577C273.695 70.9938 272.583 72.2088 271.222 73.0838C269.766 73.9449 268.11 74.4065 266.419 74.4224C264.729 74.4384 263.065 74.0081 261.592 73.1746L261.63 73.1519ZM271.531 62.7175C271.473 61.952 271.263 61.2059 270.913 60.5232C270.508 59.7465 269.895 59.0991 269.143 58.6542C268.194 58.114 267.113 57.8519 266.023 57.8976C264.722 57.8756 263.461 58.3456 262.489 59.2142C261.473 60.1296 260.804 61.3703 260.597 62.7251L271.531 62.7175Z" fill="#646464"/>
<path d="M277.944 55.6572H280.897V58.3661H281.048C281.619 57.3772 282.451 56.5656 283.452 56.0204C284.514 55.3934 285.724 55.0641 286.956 55.067C289.164 55.067 290.852 55.7178 292.005 57.0117C293.225 58.4958 293.843 60.3868 293.738 62.3083V73.8096H290.671V62.7926C290.671 59.5238 289.164 57.8894 286.15 57.8894C285.208 57.8795 284.289 58.174 283.527 58.7293C282.748 59.2924 282.128 60.0484 281.726 60.9236C281.301 61.8165 281.082 62.7942 281.086 63.7838V73.8171H277.981L277.944 55.6572Z" fill="#646464"/>
<path d="M301.808 74.0288C301.221 73.7997 300.683 73.4579 300.226 73.0225C299.745 72.5572 299.376 71.9878 299.148 71.3578C298.903 70.6269 298.786 69.8589 298.801 69.0878V58.487H295.591V55.6722H298.801V50.2469H301.868V55.6722H306.314V58.487H301.868V68.3766C301.801 69.1993 302.02 70.0199 302.486 70.6995C302.715 70.9788 303.006 71.1994 303.336 71.3428C303.667 71.4863 304.026 71.5485 304.385 71.5243C305.075 71.5369 305.756 71.3589 306.352 71.0097V74.0364C305.99 74.1734 305.617 74.2773 305.237 74.3466C304.769 74.395 304.297 74.4051 303.828 74.3769C303.139 74.3873 302.454 74.2693 301.808 74.0288Z" fill="#646464"/>
<path d="M326.215 72.6138C324.172 71.4439 322.486 69.7353 321.339 67.6728C320.183 65.5378 319.577 63.1459 319.577 60.7153C319.577 58.2847 320.183 55.8928 321.339 53.7578C322.486 51.6953 324.172 49.9867 326.215 48.8168C328.298 47.6163 330.663 46.9972 333.065 47.0235C334.917 46.9992 336.753 47.3787 338.445 48.1358C340.049 48.8752 341.474 49.9572 342.619 51.3062L340.434 53.4627C339.559 52.3455 338.44 51.4447 337.164 50.8295C335.875 50.251 334.476 49.9643 333.065 49.9896C331.253 49.9724 329.468 50.4315 327.888 51.3213C326.311 52.2124 325.007 53.5211 324.12 55.1046C323.2 56.8332 322.718 58.7629 322.718 60.7229C322.718 62.6828 323.2 64.6126 324.12 66.3411C325.004 67.9275 326.308 69.2371 327.888 70.1244C329.467 71.0165 331.252 71.4782 333.065 71.4637C334.621 71.4711 336.16 71.122 337.562 70.4428C338.964 69.7636 340.194 68.7723 341.158 67.5442L343.418 69.746C342.206 71.2014 340.687 72.3694 338.972 73.1662C336.958 74.0811 334.759 74.5097 332.55 74.4178C330.341 74.3258 328.184 73.7158 326.253 72.6365L326.215 72.6138Z" fill="#646464"/>
<path d="M346.41 47.606H349.507V73.8244H346.41V47.606Z" fill="#646464"/>
<path d="M355.249 72.4692C354.021 70.9543 353.405 69.0313 353.524 67.0817V55.6637H356.621V66.5748C356.621 69.9192 358.128 71.5889 361.142 71.5839C362.102 71.5971 363.042 71.3029 363.825 70.744C364.61 70.182 365.238 69.4262 365.648 68.5496C366.068 67.6553 366.284 66.6782 366.281 65.6895V55.6637H369.348V73.8236H366.432V71.1072H366.281C365.694 72.0885 364.859 72.8974 363.862 73.4528C362.793 74.0805 361.574 74.4024 360.336 74.3835C358.105 74.3835 356.41 73.7454 355.249 72.4692Z" fill="#646464"/>
<path d="M379.099 73.4763C378.07 72.9253 377.206 72.1075 376.597 71.1079H376.462V73.8243H373.508V47.606H376.605V55.8461L376.462 58.3355H376.605C377.238 57.3626 378.103 56.564 379.122 56.0125C380.275 55.3747 381.574 55.0513 382.89 55.0743C384.416 55.0662 385.911 55.5054 387.192 56.3379C388.52 57.196 389.601 58.3882 390.327 59.7958C391.095 61.3301 391.495 63.0234 391.495 64.7406C391.495 66.4578 391.095 68.1512 390.327 69.6854C389.601 71.0931 388.52 72.2853 387.192 73.1434C385.911 73.9759 384.416 74.415 382.89 74.407C381.567 74.431 380.261 74.1104 379.099 73.4763ZM385.406 70.7447C386.339 70.1602 387.095 69.3308 387.592 68.3461C388.13 67.2211 388.41 65.9889 388.41 64.7406C388.41 63.4924 388.13 62.2602 387.592 61.1351C387.095 60.1505 386.339 59.321 385.406 58.7365C384.51 58.1917 383.482 57.9037 382.434 57.9037C381.386 57.9037 380.358 58.1917 379.461 58.7365C378.525 59.3071 377.768 60.1304 377.276 61.1124C376.735 62.2476 376.455 63.4899 376.455 64.7482C376.455 66.0065 376.735 67.2488 377.276 68.384C377.767 69.3725 378.524 70.2033 379.461 70.7826C380.358 71.3223 381.384 71.605 382.43 71.5998C383.482 71.6009 384.514 71.3046 385.406 70.7447Z" fill="#646464"/>
<path d="M395.963 72.9389C394.683 72.0434 393.703 70.7799 393.152 69.3145L395.887 68.1114C396.31 69.1679 397.023 70.0814 397.945 70.7446C398.794 71.3441 399.808 71.664 400.846 71.6601C401.866 71.7007 402.875 71.4374 403.747 70.9034C404.08 70.7145 404.359 70.444 404.559 70.1172C404.76 69.7903 404.874 69.4178 404.892 69.0345C404.896 68.6936 404.821 68.3566 404.672 68.0504C404.522 67.7442 404.304 67.4774 404.033 67.2715C403.149 66.6715 402.151 66.2595 401.102 66.0608L398.623 65.4328C397.338 65.1604 396.141 64.57 395.141 63.7152C394.67 63.3112 394.295 62.8052 394.046 62.2352C393.797 61.6651 393.679 61.0458 393.702 60.4237C393.674 59.3738 394.016 58.3477 394.667 57.5257C395.344 56.696 396.232 56.0659 397.236 55.7021C398.355 55.2758 399.544 55.0628 400.74 55.0741C402.224 55.0574 403.687 55.4304 404.983 56.1561C406.211 56.8188 407.172 57.8884 407.703 59.1828L404.968 60.3556C404.619 59.5216 403.993 58.8345 403.197 58.411C402.378 57.9933 401.47 57.7805 400.552 57.7905C399.648 57.7811 398.759 58.022 397.982 58.4866C397.636 58.6503 397.343 58.9078 397.135 59.23C396.928 59.5522 396.814 59.9264 396.807 60.3102C396.797 60.6055 396.86 60.8987 396.992 61.1631C397.124 61.4274 397.319 61.6544 397.56 61.8235C398.295 62.2863 399.103 62.619 399.949 62.8072L402.647 63.4655C404.154 63.7744 405.548 64.4914 406.678 65.5387C407.106 65.968 407.444 66.4791 407.672 67.0419C407.9 67.6047 408.013 68.2076 408.004 68.8151C408.013 69.8395 407.693 70.8394 407.093 71.6677C406.443 72.5595 405.562 73.2555 404.546 73.6804C403.372 74.1944 402.103 74.4523 400.823 74.4371C399.085 74.4765 397.38 73.951 395.963 72.9389Z" fill="#646464"/>
<path d="M18.5056 94.7879V110.122H16.3395L8.15499 98.295V110.122H6V94.7879H8.15499L16.373 106.647V94.7879H18.5056Z" fill="#646464"/>
<path d="M29.1354 108.174V102.307C29.1354 101.858 29.0387 101.468 28.8451 101.138C28.659 100.801 28.3762 100.542 27.9965 100.359C27.6169 100.177 27.1479 100.085 26.5896 100.085C26.0686 100.085 25.6108 100.17 25.2163 100.338C24.8292 100.507 24.524 100.728 24.3007 101.002C24.0848 101.275 23.9769 101.57 23.9769 101.886H21.9112C21.9112 101.479 22.0228 101.075 22.2462 100.675C22.4695 100.275 22.7896 99.9133 23.2064 99.5903C23.6307 99.2604 24.1369 99.0006 24.725 98.811C25.3205 98.6144 25.983 98.5161 26.7125 98.5161C27.5908 98.5161 28.365 98.6565 29.0349 98.9374C29.7123 99.2182 30.2408 99.643 30.6205 100.212C31.0076 100.773 31.2011 101.479 31.2011 102.329V107.636C31.2011 108.016 31.2346 108.419 31.3016 108.848C31.376 109.276 31.484 109.645 31.6254 109.953V110.122H29.4704C29.3662 109.897 29.2843 109.599 29.2248 109.227C29.1652 108.848 29.1354 108.497 29.1354 108.174ZM29.4927 103.213L29.5151 104.582H27.4271C26.839 104.582 26.3142 104.628 25.8527 104.719C25.3912 104.803 25.0041 104.933 24.6915 105.109C24.3788 105.284 24.1406 105.506 23.9769 105.772C23.8131 106.032 23.7312 106.338 23.7312 106.689C23.7312 107.047 23.8168 107.373 23.988 107.668C24.1592 107.963 24.416 108.198 24.7585 108.374C25.1083 108.542 25.5363 108.626 26.0425 108.626C26.6752 108.626 27.2335 108.5 27.7174 108.247C28.2012 107.995 28.5846 107.686 28.8675 107.321C29.1578 106.955 29.3141 106.601 29.3364 106.257L30.2185 107.194C30.1664 107.489 30.025 107.816 29.7942 108.174C29.5634 108.532 29.2545 108.876 28.8675 109.206C28.4878 109.529 28.0337 109.799 27.5052 110.017C26.9842 110.227 26.3961 110.333 25.741 110.333C24.9222 110.333 24.2039 110.182 23.5861 109.88C22.9757 109.578 22.4993 109.174 22.1568 108.669C21.8219 108.156 21.6544 107.584 21.6544 106.952C21.6544 106.341 21.7809 105.804 22.034 105.341C22.2871 104.87 22.6519 104.481 23.1283 104.172C23.6047 103.856 24.1778 103.617 24.8478 103.455C25.5177 103.294 26.2658 103.213 27.0921 103.213H29.4927Z" fill="#646464"/>
<path d="M39.5084 98.7268V100.222H32.9764V98.7268H39.5084ZM35.1873 95.9569H37.2529V107.299C37.2529 107.686 37.3162 107.977 37.4427 108.174C37.5693 108.37 37.7331 108.5 37.934 108.563C38.135 108.626 38.3509 108.658 38.5817 108.658C38.7529 108.658 38.9315 108.644 39.1176 108.616C39.3111 108.581 39.4563 108.553 39.5531 108.532L39.5642 110.122C39.4005 110.171 39.1846 110.217 38.9166 110.259C38.6561 110.308 38.3397 110.333 37.9675 110.333C37.4614 110.333 36.9961 110.238 36.5718 110.048C36.1475 109.859 35.8088 109.543 35.5557 109.1C35.3101 108.651 35.1873 108.047 35.1873 107.289V95.9569Z" fill="#646464"/>
<path d="M44.1757 98.7268V110.122H42.0989V98.7268H44.1757ZM41.9425 95.7042C41.9425 95.3882 42.043 95.1214 42.244 94.9038C42.4524 94.6861 42.7576 94.5773 43.1596 94.5773C43.5541 94.5773 43.8556 94.6861 44.064 94.9038C44.2799 95.1214 44.3878 95.3882 44.3878 95.7042C44.3878 96.0061 44.2799 96.2659 44.064 96.4835C43.8556 96.6942 43.5541 96.7995 43.1596 96.7995C42.7576 96.7995 42.4524 96.6942 42.244 96.4835C42.043 96.2659 41.9425 96.0061 41.9425 95.7042Z" fill="#646464"/>
<path d="M46.9448 104.551V104.308C46.9448 103.487 47.0713 102.725 47.3244 102.023C47.5775 101.314 47.9423 100.7 48.4187 100.18C48.8951 99.6535 49.472 99.2463 50.1494 98.9584C50.8268 98.6636 51.586 98.5161 52.4272 98.5161C53.2758 98.5161 54.0388 98.6636 54.7162 98.9584C55.401 99.2463 55.9816 99.6535 56.458 100.18C56.9419 100.7 57.3103 101.314 57.5634 102.023C57.8165 102.725 57.9431 103.487 57.9431 104.308V104.551C57.9431 105.372 57.8165 106.134 57.5634 106.836C57.3103 107.538 56.9419 108.153 56.458 108.679C55.9816 109.199 55.4047 109.606 54.7273 109.901C54.0574 110.189 53.2981 110.333 52.4495 110.333C51.6009 110.333 50.8379 110.189 50.1605 109.901C49.4831 109.606 48.9025 109.199 48.4187 108.679C47.9423 108.153 47.5775 107.538 47.3244 106.836C47.0713 106.134 46.9448 105.372 46.9448 104.551ZM49.0105 104.308V104.551C49.0105 105.119 49.0812 105.657 49.2226 106.162C49.364 106.661 49.5762 107.103 49.8591 107.489C50.1494 107.875 50.5104 108.181 50.9421 108.405C51.3739 108.623 51.8763 108.732 52.4495 108.732C53.0152 108.732 53.5103 108.623 53.9346 108.405C54.3663 108.181 54.7236 107.875 55.0065 107.489C55.2893 107.103 55.5015 106.661 55.6429 106.162C55.7918 105.657 55.8662 105.119 55.8662 104.551V104.308C55.8662 103.747 55.7918 103.217 55.6429 102.718C55.5015 102.213 55.2856 101.767 54.9953 101.381C54.7124 100.988 54.3551 100.679 53.9234 100.454C53.4991 100.229 53.0004 100.117 52.4272 100.117C51.8615 100.117 51.3627 100.229 50.931 100.454C50.5067 100.679 50.1494 100.988 49.8591 101.381C49.5762 101.767 49.364 102.213 49.2226 102.718C49.0812 103.217 49.0105 103.747 49.0105 104.308Z" fill="#646464"/>
<path d="M62.5992 101.16V110.122H60.5335V98.7268H62.4875L62.5992 101.16ZM62.1079 103.993L61.2481 103.961C61.2556 103.182 61.3784 102.462 61.6166 101.802C61.8548 101.135 62.1898 100.556 62.6215 100.064C63.0532 99.5728 63.5669 99.1937 64.1624 98.9269C64.7653 98.653 65.4316 98.5161 66.161 98.5161C66.7566 98.5161 67.2925 98.5934 67.7689 98.7478C68.2453 98.8953 68.651 99.134 68.986 99.464C69.3284 99.794 69.5889 100.222 69.7676 100.749C69.9462 101.268 70.0356 101.904 70.0356 102.655V110.122H67.9587V102.634C67.9587 102.037 67.8657 101.56 67.6796 101.202C67.4935 100.837 67.2218 100.573 66.8645 100.412C66.5072 100.243 66.068 100.159 65.5469 100.159C65.0333 100.159 64.5644 100.261 64.1401 100.464C63.7232 100.668 63.3622 100.949 63.057 101.307C62.7592 101.665 62.5247 102.076 62.3535 102.539C62.1898 102.996 62.1079 103.48 62.1079 103.993Z" fill="#646464"/>
<path d="M80.2969 108.174V102.307C80.2969 101.858 80.2001 101.468 80.0066 101.138C79.8205 100.801 79.5376 100.542 79.158 100.359C78.7783 100.177 78.3094 100.085 77.7511 100.085C77.23 100.085 76.7722 100.17 76.3777 100.338C75.9906 100.507 75.6854 100.728 75.4621 101.002C75.2462 101.275 75.1383 101.57 75.1383 101.886H73.0726C73.0726 101.479 73.1843 101.075 73.4076 100.675C73.6309 100.275 73.951 99.9133 74.3679 99.5903C74.7922 99.2604 75.2984 99.0006 75.8864 98.811C76.4819 98.6144 77.1444 98.5161 77.8739 98.5161C78.7523 98.5161 79.5265 98.6565 80.1964 98.9374C80.8738 99.2182 81.4023 99.643 81.7819 100.212C82.169 100.773 82.3625 101.479 82.3625 102.329V107.636C82.3625 108.016 82.396 108.419 82.463 108.848C82.5375 109.276 82.6454 109.645 82.7868 109.953V110.122H80.6319C80.5276 109.897 80.4458 109.599 80.3862 109.227C80.3267 108.848 80.2969 108.497 80.2969 108.174ZM80.6542 103.213L80.6765 104.582H78.5885C78.0005 104.582 77.4757 104.628 77.0142 104.719C76.5526 104.803 76.1656 104.933 75.8529 105.109C75.5403 105.284 75.3021 105.506 75.1383 105.772C74.9745 106.032 74.8927 106.338 74.8927 106.689C74.8927 107.047 74.9783 107.373 75.1495 107.668C75.3207 107.963 75.5775 108.198 75.9199 108.374C76.2698 108.542 76.6978 108.626 77.204 108.626C77.8367 108.626 78.395 108.5 78.8788 108.247C79.3627 107.995 79.746 107.686 80.0289 107.321C80.3192 106.955 80.4755 106.601 80.4979 106.257L81.38 107.194C81.3279 107.489 81.1864 107.816 80.9557 108.174C80.7249 108.532 80.416 108.876 80.0289 109.206C79.6493 109.529 79.1952 109.799 78.6667 110.017C78.1456 110.227 77.5576 110.333 76.9025 110.333C76.0837 110.333 75.3653 110.182 74.7475 109.88C74.1371 109.578 73.6607 109.174 73.3183 108.669C72.9833 108.156 72.8158 107.584 72.8158 106.952C72.8158 106.341 72.9424 105.804 73.1955 105.341C73.4486 104.87 73.8133 104.481 74.2897 104.172C74.7661 103.856 75.3393 103.617 76.0092 103.455C76.6792 103.294 77.4273 103.213 78.2536 103.213H80.6542Z" fill="#646464"/>
<path d="M87.8561 93.9454V110.122H85.7793V93.9454H87.8561Z" fill="#646464"/>
<path d="M99.4685 94.7879V110.122H97.3135V94.7879H99.4685Z" fill="#646464"/>
<path d="M105.141 101.16V110.122H103.075V98.7268H105.029L105.141 101.16ZM104.649 103.993L103.79 103.961C103.797 103.182 103.92 102.462 104.158 101.802C104.396 101.135 104.731 100.556 105.163 100.064C105.595 99.5728 106.108 99.1937 106.704 98.9269C107.307 98.653 107.973 98.5161 108.703 98.5161C109.298 98.5161 109.834 98.5934 110.31 98.7478C110.787 98.8953 111.193 99.134 111.527 99.464C111.87 99.794 112.13 100.222 112.309 100.749C112.488 101.268 112.577 101.904 112.577 102.655V110.122H110.5V102.634C110.5 102.037 110.407 101.56 110.221 101.202C110.035 100.837 109.763 100.573 109.406 100.412C109.049 100.243 108.61 100.159 108.088 100.159C107.575 100.159 107.106 100.261 106.682 100.464C106.265 100.668 105.904 100.949 105.598 101.307C105.301 101.665 105.066 102.076 104.895 102.539C104.731 102.996 104.649 103.48 104.649 103.993Z" fill="#646464"/>
<path d="M122.749 107.099C122.749 106.819 122.682 106.559 122.548 106.32C122.422 106.074 122.157 105.853 121.755 105.657C121.361 105.453 120.765 105.277 119.969 105.13C119.299 104.997 118.692 104.839 118.149 104.656C117.613 104.473 117.155 104.252 116.775 103.993C116.403 103.733 116.117 103.427 115.916 103.076C115.715 102.725 115.614 102.315 115.614 101.844C115.614 101.395 115.718 100.97 115.927 100.57C116.143 100.17 116.444 99.815 116.831 99.5061C117.226 99.1972 117.698 98.9549 118.249 98.7794C118.8 98.6039 119.414 98.5161 120.092 98.5161C121.059 98.5161 121.886 98.6776 122.57 99.0006C123.255 99.3235 123.78 99.7553 124.145 100.296C124.51 100.83 124.692 101.423 124.692 102.076H122.626C122.626 101.76 122.526 101.454 122.325 101.16C122.131 100.858 121.845 100.608 121.465 100.412C121.093 100.215 120.635 100.117 120.092 100.117C119.518 100.117 119.053 100.201 118.696 100.37C118.346 100.531 118.089 100.738 117.925 100.991C117.769 101.244 117.691 101.511 117.691 101.791C117.691 102.002 117.728 102.192 117.803 102.36C117.885 102.522 118.026 102.673 118.227 102.813C118.428 102.946 118.711 103.073 119.076 103.192C119.44 103.312 119.906 103.431 120.471 103.55C121.461 103.761 122.276 104.014 122.917 104.308C123.557 104.603 124.033 104.965 124.346 105.393C124.658 105.822 124.815 106.341 124.815 106.952C124.815 107.45 124.703 107.907 124.48 108.321C124.264 108.735 123.948 109.093 123.531 109.395C123.121 109.69 122.63 109.922 122.057 110.09C121.491 110.252 120.855 110.333 120.147 110.333C119.083 110.333 118.182 110.154 117.445 109.795C116.708 109.437 116.15 108.974 115.77 108.405C115.391 107.837 115.201 107.236 115.201 106.604H117.278C117.308 107.138 117.471 107.563 117.769 107.879C118.067 108.188 118.432 108.409 118.863 108.542C119.295 108.669 119.723 108.732 120.147 108.732C120.713 108.732 121.186 108.662 121.565 108.521C121.953 108.381 122.247 108.188 122.448 107.942C122.649 107.696 122.749 107.415 122.749 107.099Z" fill="#646464"/>
<path d="M132.586 98.7268V100.222H126.054V98.7268H132.586ZM128.265 95.9569H130.331V107.299C130.331 107.686 130.394 107.977 130.52 108.174C130.647 108.37 130.811 108.5 131.012 108.563C131.213 108.626 131.429 108.658 131.659 108.658C131.831 108.658 132.009 108.644 132.195 108.616C132.389 108.581 132.534 108.553 132.631 108.532L132.642 110.122C132.478 110.171 132.262 110.217 131.994 110.259C131.734 110.308 131.417 110.333 131.045 110.333C130.539 110.333 130.074 110.238 129.65 110.048C129.225 109.859 128.887 109.543 128.633 109.1C128.388 108.651 128.265 108.047 128.265 107.289V95.9569Z" fill="#646464"/>
<path d="M137.253 98.7268V110.122H135.177V98.7268H137.253ZM135.02 95.7042C135.02 95.3882 135.121 95.1214 135.322 94.9038C135.53 94.6861 135.835 94.5773 136.237 94.5773C136.632 94.5773 136.933 94.6861 137.142 94.9038C137.358 95.1214 137.466 95.3882 137.466 95.7042C137.466 96.0061 137.358 96.2659 137.142 96.4835C136.933 96.6942 136.632 96.7995 136.237 96.7995C135.835 96.7995 135.53 96.6942 135.322 96.4835C135.121 96.2659 135.02 96.0061 135.02 95.7042Z" fill="#646464"/>
<path d="M145.628 98.7268V100.222H139.096V98.7268H145.628ZM141.307 95.9569H143.372V107.299C143.372 107.686 143.435 107.977 143.562 108.174C143.689 108.37 143.852 108.5 144.053 108.563C144.254 108.626 144.47 108.658 144.701 108.658C144.872 108.658 145.051 108.644 145.237 108.616C145.43 108.581 145.576 108.553 145.672 108.532L145.684 110.122C145.52 110.171 145.304 110.217 145.036 110.259C144.775 110.308 144.459 110.333 144.087 110.333C143.581 110.333 143.115 110.238 142.691 110.048C142.267 109.859 141.928 109.543 141.675 109.1C141.429 108.651 141.307 108.047 141.307 107.289V95.9569Z" fill="#646464"/>
<path d="M155.442 107.489V98.7268H157.519V110.122H155.543L155.442 107.489ZM155.833 105.088L156.693 105.067C156.693 105.825 156.607 106.527 156.436 107.173C156.272 107.812 156.004 108.367 155.632 108.837C155.26 109.307 154.772 109.676 154.169 109.943C153.567 110.203 152.833 110.333 151.97 110.333C151.382 110.333 150.842 110.252 150.351 110.09C149.867 109.929 149.45 109.68 149.1 109.343C148.75 109.006 148.479 108.567 148.285 108.026C148.099 107.486 148.006 106.836 148.006 106.078V98.7268H150.072V106.099C150.072 106.611 150.131 107.036 150.25 107.373C150.377 107.703 150.544 107.966 150.753 108.163C150.969 108.353 151.207 108.486 151.467 108.563C151.735 108.64 152.011 108.679 152.294 108.679C153.172 108.679 153.868 108.521 154.382 108.205C154.895 107.882 155.264 107.45 155.487 106.91C155.718 106.362 155.833 105.755 155.833 105.088Z" fill="#646464"/>
<path d="M165.681 110.333C164.84 110.333 164.077 110.199 163.392 109.932C162.715 109.659 162.131 109.276 161.639 108.784C161.156 108.293 160.783 107.71 160.523 107.036C160.262 106.362 160.132 105.625 160.132 104.825V104.382C160.132 103.455 160.277 102.63 160.567 101.907C160.858 101.177 161.252 100.559 161.751 100.054C162.25 99.5482 162.815 99.1656 163.448 98.9058C164.081 98.646 164.736 98.5161 165.413 98.5161C166.277 98.5161 167.021 98.6565 167.647 98.9374C168.279 99.2182 168.797 99.6114 169.199 100.117C169.601 100.615 169.898 101.205 170.092 101.886C170.285 102.56 170.382 103.297 170.382 104.098V104.972H161.36V103.382H168.316V103.234C168.287 102.729 168.175 102.237 167.982 101.76C167.795 101.282 167.498 100.889 167.088 100.58C166.679 100.271 166.121 100.117 165.413 100.117C164.944 100.117 164.513 100.212 164.118 100.401C163.724 100.584 163.385 100.858 163.102 101.223C162.819 101.588 162.6 102.034 162.443 102.56C162.287 103.087 162.209 103.694 162.209 104.382V104.825C162.209 105.365 162.287 105.874 162.443 106.352C162.607 106.822 162.842 107.236 163.147 107.594C163.459 107.952 163.835 108.233 164.274 108.437C164.721 108.64 165.227 108.742 165.793 108.742C166.523 108.742 167.14 108.602 167.647 108.321C168.153 108.04 168.596 107.665 168.975 107.194L170.226 108.131C169.965 108.504 169.634 108.858 169.232 109.195C168.83 109.532 168.335 109.806 167.747 110.017C167.166 110.227 166.478 110.333 165.681 110.333Z" fill="#646464"/>
<path d="M177.919 104.551V104.308C177.919 103.487 178.046 102.725 178.299 102.023C178.552 101.314 178.916 100.7 179.393 100.18C179.869 99.6535 180.446 99.2463 181.124 98.9584C181.801 98.6636 182.56 98.5161 183.401 98.5161C184.25 98.5161 185.013 98.6636 185.69 98.9584C186.375 99.2463 186.956 99.6535 187.432 100.18C187.916 100.7 188.285 101.314 188.538 102.023C188.791 102.725 188.917 103.487 188.917 104.308V104.551C188.917 105.372 188.791 106.134 188.538 106.836C188.285 107.538 187.916 108.153 187.432 108.679C186.956 109.199 186.379 109.606 185.702 109.901C185.032 110.189 184.272 110.333 183.424 110.333C182.575 110.333 181.812 110.189 181.135 109.901C180.457 109.606 179.877 109.199 179.393 108.679C178.916 108.153 178.552 107.538 178.299 106.836C178.046 106.134 177.919 105.372 177.919 104.551ZM179.985 104.308V104.551C179.985 105.119 180.055 105.657 180.197 106.162C180.338 106.661 180.55 107.103 180.833 107.489C181.124 107.875 181.485 108.181 181.916 108.405C182.348 108.623 182.851 108.732 183.424 108.732C183.989 108.732 184.484 108.623 184.909 108.405C185.341 108.181 185.698 107.875 185.981 107.489C186.264 107.103 186.476 106.661 186.617 106.162C186.766 105.657 186.84 105.119 186.84 104.551V104.308C186.84 103.747 186.766 103.217 186.617 102.718C186.476 102.213 186.26 101.767 185.97 101.381C185.687 100.988 185.329 100.679 184.898 100.454C184.473 100.229 183.975 100.117 183.401 100.117C182.836 100.117 182.337 100.229 181.905 100.454C181.481 100.679 181.124 100.988 180.833 101.381C180.55 101.767 180.338 102.213 180.197 102.718C180.055 103.217 179.985 103.747 179.985 104.308Z" fill="#646464"/>
<path d="M194.589 110.122H192.524V97.5261C192.524 96.7047 192.68 96.0131 192.993 95.4514C193.313 94.8827 193.771 94.4544 194.366 94.1666C194.962 93.8717 195.669 93.7242 196.488 93.7242C196.726 93.7242 196.964 93.7383 197.202 93.7664C197.448 93.7945 197.686 93.8366 197.917 93.8927L197.805 95.483C197.649 95.4479 197.47 95.4233 197.269 95.4093C197.076 95.3953 196.882 95.3882 196.689 95.3882C196.249 95.3882 195.87 95.4725 195.55 95.641C195.237 95.8025 194.999 96.0412 194.835 96.3571C194.671 96.6731 194.589 97.0628 194.589 97.5261V110.122ZM197.158 98.7268V100.222H190.614V98.7268H197.158Z" fill="#646464"/>
<path d="M211.003 94.7879V110.122H208.882V94.7879H211.003ZM216.229 94.7879V96.4519H203.667V94.7879H216.229Z" fill="#646464"/>
<path d="M222.225 110.333C221.384 110.333 220.621 110.199 219.936 109.932C219.258 109.659 218.674 109.276 218.183 108.784C217.699 108.293 217.327 107.71 217.066 107.036C216.806 106.362 216.675 105.625 216.675 104.825V104.382C216.675 103.455 216.82 102.63 217.111 101.907C217.401 101.177 217.796 100.559 218.294 100.054C218.793 99.5482 219.359 99.1656 219.992 98.9058C220.624 98.646 221.279 98.5161 221.957 98.5161C222.82 98.5161 223.565 98.6565 224.19 98.9374C224.823 99.2182 225.34 99.6114 225.742 100.117C226.144 100.615 226.442 101.205 226.635 101.886C226.829 102.56 226.926 103.297 226.926 104.098V104.972H217.904V103.382H224.86V103.234C224.83 102.729 224.718 102.237 224.525 101.76C224.339 101.282 224.041 100.889 223.632 100.58C223.222 100.271 222.664 100.117 221.957 100.117C221.488 100.117 221.056 100.212 220.662 100.401C220.267 100.584 219.928 100.858 219.645 101.223C219.363 101.588 219.143 102.034 218.987 102.56C218.83 103.087 218.752 103.694 218.752 104.382V104.825C218.752 105.365 218.83 105.874 218.987 106.352C219.15 106.822 219.385 107.236 219.69 107.594C220.003 107.952 220.379 108.233 220.818 108.437C221.264 108.64 221.771 108.742 222.336 108.742C223.066 108.742 223.684 108.602 224.19 108.321C224.696 108.04 225.139 107.665 225.519 107.194L226.769 108.131C226.509 108.504 226.177 108.858 225.775 109.195C225.373 109.532 224.878 109.806 224.29 110.017C223.71 110.227 223.021 110.333 222.225 110.333Z" fill="#646464"/>
<path d="M234.172 108.732C234.663 108.732 235.117 108.637 235.534 108.447C235.951 108.258 236.294 107.998 236.562 107.668C236.83 107.331 236.982 106.948 237.019 106.52H238.985C238.947 107.194 238.705 107.823 238.259 108.405C237.82 108.981 237.243 109.448 236.528 109.806C235.813 110.157 235.028 110.333 234.172 110.333C233.264 110.333 232.471 110.182 231.794 109.88C231.124 109.578 230.566 109.164 230.119 108.637C229.68 108.11 229.348 107.507 229.125 106.826C228.909 106.137 228.801 105.411 228.801 104.646V104.203C228.801 103.438 228.909 102.715 229.125 102.034C229.348 101.346 229.68 100.738 230.119 100.212C230.566 99.6851 231.124 99.2709 231.794 98.969C232.471 98.6671 233.264 98.5161 234.172 98.5161C235.117 98.5161 235.944 98.6987 236.651 99.0638C237.358 99.4218 237.913 99.9133 238.315 100.538C238.724 101.156 238.947 101.858 238.985 102.645H237.019C236.982 102.174 236.841 101.749 236.595 101.37C236.357 100.991 236.029 100.689 235.612 100.464C235.203 100.233 234.723 100.117 234.172 100.117C233.539 100.117 233.007 100.236 232.575 100.475C232.151 100.707 231.812 101.023 231.559 101.423C231.314 101.816 231.135 102.255 231.023 102.739C230.919 103.217 230.867 103.705 230.867 104.203V104.646C230.867 105.144 230.919 105.635 231.023 106.12C231.128 106.604 231.302 107.043 231.548 107.436C231.801 107.83 232.14 108.146 232.564 108.384C232.996 108.616 233.532 108.732 234.172 108.732Z" fill="#646464"/>
<path d="M243.373 93.9454V110.122H241.307V93.9454H243.373ZM242.881 103.993L242.022 103.961C242.029 103.182 242.152 102.462 242.39 101.802C242.628 101.135 242.963 100.556 243.395 100.064C243.827 99.5728 244.34 99.1937 244.936 98.9269C245.539 98.653 246.205 98.5161 246.935 98.5161C247.53 98.5161 248.066 98.5934 248.542 98.7478C249.019 98.8953 249.424 99.134 249.759 99.464C250.102 99.794 250.362 100.222 250.541 100.749C250.72 101.268 250.809 101.904 250.809 102.655V110.122H248.732V102.634C248.732 102.037 248.639 101.56 248.453 101.202C248.267 100.837 247.995 100.573 247.638 100.412C247.281 100.243 246.841 100.159 246.32 100.159C245.807 100.159 245.338 100.261 244.914 100.464C244.497 100.668 244.136 100.949 243.83 101.307C243.533 101.665 243.298 102.076 243.127 102.539C242.963 102.996 242.881 103.48 242.881 103.993Z" fill="#646464"/>
<path d="M255.968 101.16V110.122H253.902V98.7268H255.856L255.968 101.16ZM255.476 103.993L254.617 103.961C254.624 103.182 254.747 102.462 254.985 101.802C255.223 101.135 255.558 100.556 255.99 100.064C256.422 99.5728 256.935 99.1937 257.531 98.9269C258.134 98.653 258.8 98.5161 259.529 98.5161C260.125 98.5161 260.661 98.5934 261.137 98.7478C261.614 98.8953 262.019 99.134 262.354 99.464C262.697 99.794 262.957 100.222 263.136 100.749C263.315 101.268 263.404 101.904 263.404 102.655V110.122H261.327V102.634C261.327 102.037 261.234 101.56 261.048 101.202C260.862 100.837 260.59 100.573 260.233 100.412C259.876 100.243 259.436 100.159 258.915 100.159C258.402 100.159 257.933 100.261 257.508 100.464C257.092 100.668 256.731 100.949 256.425 101.307C256.128 101.665 255.893 102.076 255.722 102.539C255.558 102.996 255.476 103.48 255.476 103.993Z" fill="#646464"/>
<path d="M265.994 104.551V104.308C265.994 103.487 266.121 102.725 266.374 102.023C266.627 101.314 266.992 100.7 267.468 100.18C267.945 99.6535 268.522 99.2463 269.199 98.9584C269.876 98.6636 270.636 98.5161 271.477 98.5161C272.325 98.5161 273.088 98.6636 273.766 98.9584C274.451 99.2463 275.031 99.6535 275.508 100.18C275.992 100.7 276.36 101.314 276.613 102.023C276.866 102.725 276.993 103.487 276.993 104.308V104.551C276.993 105.372 276.866 106.134 276.613 106.836C276.36 107.538 275.992 108.153 275.508 108.679C275.031 109.199 274.454 109.606 273.777 109.901C273.107 110.189 272.348 110.333 271.499 110.333C270.651 110.333 269.888 110.189 269.21 109.901C268.533 109.606 267.952 109.199 267.468 108.679C266.992 108.153 266.627 107.538 266.374 106.836C266.121 106.134 265.994 105.372 265.994 104.551ZM268.06 104.308V104.551C268.06 105.119 268.131 105.657 268.272 106.162C268.414 106.661 268.626 107.103 268.909 107.489C269.199 107.875 269.56 108.181 269.992 108.405C270.424 108.623 270.926 108.732 271.499 108.732C272.065 108.732 272.56 108.623 272.984 108.405C273.416 108.181 273.773 107.875 274.056 107.489C274.339 107.103 274.551 106.661 274.693 106.162C274.841 105.657 274.916 105.119 274.916 104.551V104.308C274.916 103.747 274.841 103.217 274.693 102.718C274.551 102.213 274.335 101.767 274.045 101.381C273.762 100.988 273.405 100.679 272.973 100.454C272.549 100.229 272.05 100.117 271.477 100.117C270.911 100.117 270.412 100.229 269.981 100.454C269.556 100.679 269.199 100.988 268.909 101.381C268.626 101.767 268.414 102.213 268.272 102.718C268.131 103.217 268.06 103.747 268.06 104.308Z" fill="#646464"/>
<path d="M281.827 93.9454V110.122H279.751V93.9454H281.827Z" fill="#646464"/>
<path d="M284.597 104.551V104.308C284.597 103.487 284.723 102.725 284.976 102.023C285.229 101.314 285.594 100.7 286.07 100.18C286.547 99.6535 287.124 99.2463 287.801 98.9584C288.479 98.6636 289.238 98.5161 290.079 98.5161C290.928 98.5161 291.691 98.6636 292.368 98.9584C293.053 99.2463 293.633 99.6535 294.11 100.18C294.594 100.7 294.962 101.314 295.215 102.023C295.468 102.725 295.595 103.487 295.595 104.308V104.551C295.595 105.372 295.468 106.134 295.215 106.836C294.962 107.538 294.594 108.153 294.11 108.679C293.633 109.199 293.056 109.606 292.379 109.901C291.709 110.189 290.95 110.333 290.101 110.333C289.253 110.333 288.49 110.189 287.812 109.901C287.135 109.606 286.554 109.199 286.07 108.679C285.594 108.153 285.229 107.538 284.976 106.836C284.723 106.134 284.597 105.372 284.597 104.551ZM286.662 104.308V104.551C286.662 105.119 286.733 105.657 286.874 106.162C287.016 106.661 287.228 107.103 287.511 107.489C287.801 107.875 288.162 108.181 288.594 108.405C289.026 108.623 289.528 108.732 290.101 108.732C290.667 108.732 291.162 108.623 291.586 108.405C292.018 108.181 292.375 107.875 292.658 107.489C292.941 107.103 293.153 106.661 293.295 106.162C293.444 105.657 293.518 105.119 293.518 104.551V104.308C293.518 103.747 293.444 103.217 293.295 102.718C293.153 102.213 292.937 101.767 292.647 101.381C292.364 100.988 292.007 100.679 291.575 100.454C291.151 100.229 290.652 100.117 290.079 100.117C289.513 100.117 289.014 100.229 288.583 100.454C288.158 100.679 287.801 100.988 287.511 101.381C287.228 101.767 287.016 102.213 286.874 102.718C286.733 103.217 286.662 103.747 286.662 104.308Z" fill="#646464"/>
<path d="M306.013 98.7268H307.888V109.88C307.888 110.884 307.672 111.74 307.241 112.449C306.809 113.159 306.206 113.696 305.432 114.061C304.665 114.433 303.779 114.619 302.774 114.619C302.358 114.619 301.866 114.556 301.301 114.429C300.742 114.31 300.191 114.103 299.648 113.808C299.112 113.52 298.662 113.13 298.297 112.639L299.38 111.481C299.886 112.056 300.415 112.456 300.966 112.681C301.524 112.906 302.075 113.018 302.618 113.018C303.273 113.018 303.839 112.902 304.315 112.671C304.792 112.439 305.16 112.095 305.421 111.638C305.689 111.189 305.823 110.634 305.823 109.974V101.233L306.013 98.7268ZM297.694 104.551V104.33C297.694 103.459 297.802 102.669 298.018 101.96C298.241 101.244 298.557 100.629 298.967 100.117C299.384 99.6044 299.886 99.2112 300.474 98.9374C301.062 98.6565 301.725 98.5161 302.462 98.5161C303.221 98.5161 303.884 98.6425 304.449 98.8953C305.022 99.141 305.506 99.5026 305.901 99.98C306.303 100.45 306.619 101.019 306.85 101.686C307.081 102.353 307.241 103.108 307.33 103.95V104.919C307.248 105.755 307.088 106.506 306.85 107.173C306.619 107.84 306.303 108.409 305.901 108.879C305.506 109.35 305.022 109.711 304.449 109.964C303.876 110.21 303.206 110.333 302.439 110.333C301.717 110.333 301.062 110.189 300.474 109.901C299.894 109.613 299.395 109.209 298.978 108.69C298.561 108.17 298.241 107.559 298.018 106.857C297.802 106.148 297.694 105.379 297.694 104.551ZM299.76 104.33V104.551C299.76 105.119 299.819 105.653 299.938 106.152C300.065 106.65 300.255 107.089 300.508 107.468C300.768 107.847 301.1 108.146 301.502 108.363C301.904 108.574 302.384 108.679 302.942 108.679C303.627 108.679 304.192 108.542 304.639 108.268C305.086 107.995 305.439 107.633 305.7 107.184C305.968 106.734 306.176 106.246 306.325 105.72V103.182C306.243 102.795 306.117 102.423 305.945 102.065C305.782 101.7 305.566 101.377 305.298 101.096C305.037 100.808 304.714 100.58 304.326 100.412C303.939 100.243 303.485 100.159 302.964 100.159C302.399 100.159 301.911 100.271 301.502 100.496C301.1 100.714 300.768 101.016 300.508 101.402C300.255 101.781 300.065 102.223 299.938 102.729C299.819 103.227 299.76 103.761 299.76 104.33Z" fill="#646464"/>
<path d="M314.42 108.942L317.781 98.7268H319.992L315.146 111.881C315.034 112.162 314.886 112.463 314.699 112.786C314.521 113.116 314.29 113.429 314.007 113.724C313.724 114.019 313.382 114.257 312.98 114.44C312.585 114.629 312.113 114.724 311.562 114.724C311.398 114.724 311.19 114.703 310.937 114.661C310.683 114.619 310.505 114.584 310.401 114.556L310.389 112.976C310.449 112.983 310.542 112.99 310.669 112.997C310.803 113.011 310.896 113.018 310.948 113.018C311.417 113.018 311.815 112.958 312.142 112.839C312.47 112.727 312.745 112.534 312.969 112.26C313.199 111.993 313.397 111.624 313.561 111.154L314.42 108.942ZM311.953 98.7268L315.09 107.573L315.626 109.627L314.141 110.343L309.697 98.7268H311.953Z" fill="#646464"/>
<path d="M322.527 107.805V109.374C322.527 110.013 322.355 110.687 322.013 111.396C321.671 112.112 321.19 112.709 320.573 113.187L319.4 112.418C319.638 112.109 319.839 111.793 320.003 111.47C320.167 111.154 320.29 110.824 320.372 110.48C320.461 110.143 320.506 109.785 320.506 109.406V107.805H322.527Z" fill="#646464"/>
<path d="M331.147 94.7879H336.528C337.749 94.7879 338.78 94.9635 339.621 95.3145C340.47 95.6656 341.114 96.1851 341.553 96.8732C342 97.5542 342.223 98.3932 342.223 99.3902C342.223 100.092 342.07 100.735 341.765 101.318C341.467 101.893 341.036 102.385 340.47 102.792C339.912 103.192 339.242 103.491 338.46 103.687L337.857 103.908H332.799L332.777 102.255H336.595C337.37 102.255 338.014 102.128 338.527 101.876C339.041 101.616 339.428 101.268 339.688 100.833C339.949 100.398 340.079 99.9168 340.079 99.3902C340.079 98.8005 339.956 98.2844 339.711 97.8421C339.465 97.3998 339.078 97.0592 338.549 96.8205C338.028 96.5748 337.355 96.4519 336.528 96.4519H333.302V110.122H331.147V94.7879ZM340.649 110.122L336.696 103.171L338.94 103.161L342.949 109.996V110.122H340.649Z" fill="#646464"/>
<path d="M344.378 104.551V104.308C344.378 103.487 344.505 102.725 344.758 102.023C345.011 101.314 345.375 100.7 345.852 100.18C346.328 99.6535 346.905 99.2463 347.583 98.9584C348.26 98.6636 349.019 98.5161 349.86 98.5161C350.709 98.5161 351.472 98.6636 352.149 98.9584C352.834 99.2463 353.415 99.6535 353.891 100.18C354.375 100.7 354.744 101.314 354.997 102.023C355.25 102.725 355.376 103.487 355.376 104.308V104.551C355.376 105.372 355.25 106.134 354.997 106.836C354.744 107.538 354.375 108.153 353.891 108.679C353.415 109.199 352.838 109.606 352.161 109.901C351.491 110.189 350.731 110.333 349.883 110.333C349.034 110.333 348.271 110.189 347.594 109.901C346.916 109.606 346.336 109.199 345.852 108.679C345.375 108.153 345.011 107.538 344.758 106.836C344.505 106.134 344.378 105.372 344.378 104.551ZM346.444 104.308V104.551C346.444 105.119 346.514 105.657 346.656 106.162C346.797 106.661 347.009 107.103 347.292 107.489C347.583 107.875 347.944 108.181 348.375 108.405C348.807 108.623 349.31 108.732 349.883 108.732C350.448 108.732 350.943 108.623 351.368 108.405C351.799 108.181 352.157 107.875 352.44 107.489C352.723 107.103 352.935 106.661 353.076 106.162C353.225 105.657 353.299 105.119 353.299 104.551V104.308C353.299 103.747 353.225 103.217 353.076 102.718C352.935 102.213 352.719 101.767 352.428 101.381C352.146 100.988 351.788 100.679 351.357 100.454C350.932 100.229 350.434 100.117 349.86 100.117C349.295 100.117 348.796 100.229 348.364 100.454C347.94 100.679 347.583 100.988 347.292 101.381C347.009 101.767 346.797 102.213 346.656 102.718C346.514 103.217 346.444 103.747 346.444 104.308Z" fill="#646464"/>
<path d="M365.358 107.489V98.7268H367.435V110.122H365.459L365.358 107.489ZM365.749 105.088L366.609 105.067C366.609 105.825 366.523 106.527 366.352 107.173C366.188 107.812 365.92 108.367 365.548 108.837C365.176 109.307 364.689 109.676 364.086 109.943C363.483 110.203 362.749 110.333 361.886 110.333C361.298 110.333 360.758 110.252 360.267 110.09C359.783 109.929 359.366 109.68 359.016 109.343C358.666 109.006 358.395 108.567 358.201 108.026C358.015 107.486 357.922 106.836 357.922 106.078V98.7268H359.988V106.099C359.988 106.611 360.047 107.036 360.166 107.373C360.293 107.703 360.46 107.966 360.669 108.163C360.885 108.353 361.123 108.486 361.383 108.563C361.651 108.64 361.927 108.679 362.21 108.679C363.088 108.679 363.784 108.521 364.298 108.205C364.811 107.882 365.18 107.45 365.403 106.91C365.634 106.362 365.749 105.755 365.749 105.088Z" fill="#646464"/>
<path d="M372.65 100.517V110.122H370.584V98.7268H372.594L372.65 100.517ZM376.424 98.6636L376.413 100.475C376.241 100.44 376.078 100.419 375.921 100.412C375.772 100.398 375.601 100.391 375.408 100.391C374.931 100.391 374.511 100.461 374.146 100.601C373.781 100.742 373.472 100.938 373.219 101.191C372.966 101.444 372.765 101.746 372.616 102.097C372.475 102.441 372.382 102.82 372.337 103.234L371.756 103.55C371.756 102.862 371.827 102.216 371.969 101.612C372.117 101.009 372.344 100.475 372.65 100.012C372.955 99.5412 373.342 99.1761 373.811 98.9163C374.287 98.6495 374.853 98.5161 375.508 98.5161C375.657 98.5161 375.828 98.5337 376.022 98.5688C376.215 98.5969 376.349 98.6285 376.424 98.6636Z" fill="#646464"/>
<path d="M380.41 93.9454V110.122H378.333V93.9454H380.41ZM387.79 98.7268L382.52 104.045L379.572 106.931L379.405 104.856L381.515 102.476L385.267 98.7268H387.79ZM385.903 110.122L381.593 104.688L382.665 102.95L388.338 110.122H385.903Z" fill="#646464"/>
<path d="M394.713 110.333C393.872 110.333 393.109 110.199 392.424 109.932C391.747 109.659 391.163 109.276 390.671 108.784C390.187 108.293 389.815 107.71 389.555 107.036C389.294 106.362 389.164 105.625 389.164 104.825V104.382C389.164 103.455 389.309 102.63 389.599 101.907C389.89 101.177 390.284 100.559 390.783 100.054C391.282 99.5482 391.847 99.1656 392.48 98.9058C393.113 98.646 393.768 98.5161 394.445 98.5161C395.309 98.5161 396.053 98.6565 396.678 98.9374C397.311 99.2182 397.828 99.6114 398.23 100.117C398.632 100.615 398.93 101.205 399.124 101.886C399.317 102.56 399.414 103.297 399.414 104.098V104.972H390.392V103.382H397.348V103.234C397.319 102.729 397.207 102.237 397.013 101.76C396.827 101.282 396.53 100.889 396.12 100.58C395.711 100.271 395.152 100.117 394.445 100.117C393.976 100.117 393.545 100.212 393.15 100.401C392.755 100.584 392.417 100.858 392.134 101.223C391.851 101.588 391.631 102.034 391.475 102.56C391.319 103.087 391.241 103.694 391.241 104.382V104.825C391.241 105.365 391.319 105.874 391.475 106.352C391.639 106.822 391.873 107.236 392.179 107.594C392.491 107.952 392.867 108.233 393.306 108.437C393.753 108.64 394.259 108.742 394.825 108.742C395.554 108.742 396.172 108.602 396.678 108.321C397.185 108.04 397.627 107.665 398.007 107.194L399.258 108.131C398.997 108.504 398.666 108.858 398.264 109.195C397.862 109.532 397.367 109.806 396.779 110.017C396.198 110.227 395.51 110.333 394.713 110.333Z" fill="#646464"/>
<path d="M404.07 93.9454V110.122H401.993V93.9454H404.07Z" fill="#646464"/>
<path d="M414.51 108.174V102.307C414.51 101.858 414.413 101.468 414.22 101.138C414.034 100.801 413.751 100.542 413.371 100.359C412.992 100.177 412.523 100.085 411.964 100.085C411.443 100.085 410.985 100.17 410.591 100.338C410.204 100.507 409.899 100.728 409.675 101.002C409.459 101.275 409.352 101.57 409.352 101.886H407.286C407.286 101.479 407.397 101.075 407.621 100.675C407.844 100.275 408.164 99.9133 408.581 99.5903C409.005 99.2604 409.512 99.0006 410.1 98.811C410.695 98.6144 411.358 98.5161 412.087 98.5161C412.965 98.5161 413.74 98.6565 414.41 98.9374C415.087 99.2182 415.615 99.643 415.995 100.212C416.382 100.773 416.576 101.479 416.576 102.329V107.636C416.576 108.016 416.609 108.419 416.676 108.848C416.751 109.276 416.859 109.645 417 109.953V110.122H414.845C414.741 109.897 414.659 109.599 414.599 109.227C414.54 108.848 414.51 108.497 414.51 108.174ZM414.867 103.213L414.89 104.582H412.802C412.214 104.582 411.689 104.628 411.227 104.719C410.766 104.803 410.379 104.933 410.066 105.109C409.753 105.284 409.515 105.506 409.352 105.772C409.188 106.032 409.106 106.338 409.106 106.689C409.106 107.047 409.191 107.373 409.363 107.668C409.534 107.963 409.791 108.198 410.133 108.374C410.483 108.542 410.911 108.626 411.417 108.626C412.05 108.626 412.608 108.5 413.092 108.247C413.576 107.995 413.959 107.686 414.242 107.321C414.532 106.955 414.689 106.601 414.711 106.257L415.593 107.194C415.541 107.489 415.4 107.816 415.169 108.174C414.938 108.532 414.629 108.876 414.242 109.206C413.862 109.529 413.408 109.799 412.88 110.017C412.359 110.227 411.771 110.333 411.116 110.333C410.297 110.333 409.579 110.182 408.961 109.88C408.35 109.578 407.874 109.174 407.531 108.669C407.197 108.156 407.029 107.584 407.029 106.952C407.029 106.341 407.156 105.804 407.409 105.341C407.662 104.87 408.026 104.481 408.503 104.172C408.979 103.856 409.552 103.617 410.222 103.455C410.892 103.294 411.64 103.213 412.467 103.213H414.867Z" fill="#646464"/>
</svg>
