<svg width="423" height="115" viewBox="0 0 423 115" fill="none" xmlns="http://www.w3.org/2000/svg">
<path d="M192.656 17.5882L204.343 10.7782C204.997 10.3986 205.57 9.89341 206.03 9.29137C206.49 8.68933 206.827 8.00228 207.022 7.26945C207.217 6.53661 207.267 5.77233 207.168 5.02025C207.069 4.26818 206.823 3.54304 206.445 2.88623C206.067 2.22942 205.564 1.65381 204.965 1.19225C204.365 0.730695 203.681 0.392232 202.951 0.196199C202.221 0.000166556 201.46 -0.0495934 200.711 0.0497413C199.962 0.149076 199.24 0.39557 198.586 0.775149L178.391 12.4807L192.656 17.5882Z" fill="#E84336"/>
<path d="M201.457 35.0063C202.723 35.0061 203.954 34.5866 204.959 33.8128C205.964 33.0389 206.687 31.954 207.016 30.7259C207.344 29.4978 207.261 28.1951 206.777 27.0197C206.294 25.8442 205.438 24.8615 204.343 24.2239L184.148 12.5183C182.825 11.7517 181.253 11.5442 179.777 11.9416C178.302 12.3389 177.044 13.3084 176.281 14.6369C175.517 15.9654 175.311 17.5441 175.706 19.0255C176.102 20.507 177.068 21.7699 178.391 22.5365L198.586 34.2421C199.459 34.7466 200.449 35.0102 201.457 35.0063Z" fill="#4283F2"/>
<path d="M221.546 35.0073C222.553 35.0153 223.544 34.7542 224.417 34.2506L244.612 22.5375L230.536 17.3619L218.667 24.24C217.572 24.8774 216.717 25.8594 216.233 27.0341C215.75 28.2088 215.666 29.5107 215.994 30.7384C216.321 31.966 217.043 33.051 218.047 33.8255C219.05 34.5999 220.28 35.0206 221.546 35.0224V35.0073Z" fill="#F9BA07"/>
<path d="M241.734 23.2938C243 23.2953 244.232 22.8768 245.237 22.1033C246.243 21.3299 246.966 20.2447 247.294 19.0164C247.622 17.788 247.537 16.4853 247.052 15.3104C246.567 14.1355 245.71 13.1542 244.612 12.519L224.418 0.813409C223.763 0.434327 223.041 0.188332 222.293 0.0894561C221.544 -0.0094196 220.783 0.0407654 220.053 0.237149C219.324 0.433533 218.64 0.772263 218.041 1.23401C217.442 1.69575 216.939 2.27148 216.562 2.92829C216.184 3.5851 215.939 4.31014 215.841 5.06202C215.742 5.81391 215.792 6.5779 215.988 7.31038C216.184 8.04287 216.521 8.72951 216.981 9.33109C217.441 9.93266 218.014 10.4374 218.668 10.8165L238.863 22.5372C239.737 23.0377 240.727 23.2986 241.734 23.2938Z" fill="#35A653"/>
<path d="M2.26776 47.5989H10.1799C12.6168 47.5434 15.0271 48.1166 17.1803 49.2635C19.1274 50.3267 20.7245 51.9357 21.7769 53.8943C22.8323 56.008 23.3819 58.3398 23.3819 60.7043C23.3819 63.0687 22.8323 65.4006 21.7769 67.5142C20.7302 69.4771 19.1317 71.0876 17.1803 72.145C15.0291 73.2981 12.6178 73.8741 10.1799 73.8172H2.26776V47.5989ZM10.1799 70.8511C13.2695 70.8511 15.7134 69.9583 17.5119 68.1725C19.3103 66.3868 20.2096 63.8974 20.2096 60.7043C20.2096 57.5112 19.3103 55.0217 17.5119 53.236C15.7134 51.4503 13.2695 50.56 10.1799 50.565H5.3648V70.8511H10.1799Z" fill="#646464"/>
<path d="M30.3749 73.152C29.0048 72.3275 27.8886 71.1386 27.1497 69.7167C26.352 68.1813 25.9504 66.4695 25.9817 64.7379C25.9631 63.0552 26.3373 61.3915 27.0743 59.8801C27.7728 58.4439 28.8523 57.2291 30.194 56.3692C31.5851 55.4914 33.2006 55.0392 34.8434 55.0678C36.4595 55.0358 38.0538 55.4465 39.4551 56.2557C40.7647 57.053 41.8126 58.2184 42.4692 59.6077C43.1966 61.1641 43.5576 62.8677 43.5242 64.5866C43.5391 64.8412 43.5136 65.0966 43.4489 65.3432H29.139C29.1428 66.5654 29.4846 67.7626 30.1262 68.8012C30.6772 69.696 31.4581 70.4252 32.3868 70.9123C33.2611 71.3634 34.2297 71.5994 35.2126 71.6008C37.4984 71.6008 39.2567 70.4785 40.4874 68.2337L43.2228 69.5579C42.4671 70.9942 41.3533 72.2091 39.9901 73.0839C38.535 73.9451 36.8798 74.4068 35.1908 74.4227C33.5018 74.4387 31.8383 74.0083 30.3673 73.1747L30.3749 73.152ZM40.2765 62.7176C40.2155 61.9517 40.0028 61.2057 39.651 60.5233C39.249 59.7469 38.638 59.0994 37.8877 58.6544C36.9387 58.1141 35.8579 57.852 34.768 57.8977C33.4671 57.875 32.2053 58.345 31.2339 59.2143C30.2157 60.1289 29.5446 61.3696 29.335 62.7252L40.2765 62.7176Z" fill="#646464"/>
<path d="M44.307 55.6572H47.6603L53.2064 70.1549H53.2742L58.8881 55.6572H62.1736L54.7737 73.8171H51.6315L44.307 55.6572Z" fill="#646464"/>
<path d="M67.8404 73.152C66.4704 72.3275 65.3541 71.1386 64.6152 69.7167C63.8211 68.1799 63.4198 66.4691 63.4472 64.7379C63.4323 63.0556 63.8063 61.3927 64.5399 59.8801C65.2383 58.4439 66.3178 57.2291 67.6595 56.3692C69.051 55.4922 70.6663 55.04 72.3089 55.0678C73.925 55.0358 75.5193 55.4465 76.9206 56.2557C78.2302 57.053 79.2781 58.2184 79.9347 59.6077C80.6657 61.1629 81.0269 62.8673 80.9897 64.5866C81.0019 64.8407 80.9791 65.0954 80.9219 65.3432H66.582C66.5892 66.5649 66.9307 67.7611 67.5691 68.8012C68.1201 69.696 68.901 70.4252 69.8297 70.9123C70.704 71.3634 71.6726 71.5994 72.6555 71.6008C74.9161 71.6008 76.702 70.481 77.9303 68.2337L80.6657 69.5578C79.9129 70.9939 78.8016 72.2089 77.4405 73.0839C75.984 73.945 74.3277 74.4066 72.6375 74.4226C70.9473 74.4385 69.2826 74.0082 67.8102 73.1747L67.8404 73.152ZM77.7419 62.7176C77.6802 61.9528 77.4703 61.2074 77.124 60.5233C76.7167 59.7483 76.1038 59.1014 75.3532 58.6544C74.4043 58.1141 73.3234 57.852 72.2335 57.8977C70.9327 57.8757 69.6712 58.3457 68.6994 59.2143C67.6837 60.1309 67.0131 61.3706 66.8005 62.7252L77.7419 62.7176Z" fill="#646464"/>
<path d="M84.1553 47.5996H87.2599V73.8179H84.1553V47.5996Z" fill="#646464"/>
<path d="M94.6972 73.1372C93.2964 72.3073 92.1536 71.1021 91.3966 69.6566C90.6203 68.1343 90.2154 66.4486 90.2154 64.7383C90.2154 63.028 90.6203 61.3423 91.3966 59.82C92.1555 58.3759 93.2979 57.1711 94.6972 56.3394C96.1447 55.4876 97.7971 55.0506 99.4746 55.0757C101.157 55.0536 102.813 55.4903 104.267 56.3394C105.674 57.1664 106.822 58.372 107.583 59.82C108.364 61.3408 108.772 63.0271 108.772 64.7383C108.772 66.4495 108.364 68.1358 107.583 69.6566C106.825 71.1062 105.676 72.3124 104.267 73.1372C102.811 73.9784 101.155 74.4072 99.4746 74.3782C97.7992 74.4102 96.147 73.9811 94.6972 73.1372ZM102.534 70.7386C103.49 70.1591 104.271 69.3302 104.795 68.34C105.355 67.2213 105.646 65.9866 105.646 64.7345C105.646 63.4824 105.355 62.2477 104.795 61.129C104.271 60.1389 103.49 59.3099 102.534 58.7304C101.613 58.1809 100.561 57.8909 99.4897 57.8909C98.4182 57.8909 97.3666 58.1809 96.4454 58.7304C95.4875 59.3072 94.7055 60.1369 94.1847 61.129C93.6201 62.2463 93.3259 63.4816 93.3259 64.7345C93.3259 65.9874 93.6201 67.2227 94.1847 68.34C94.7055 69.3322 95.4875 70.1618 96.4454 70.7386C97.3666 71.2881 98.4182 71.5782 99.4897 71.5782C100.561 71.5782 101.613 71.2881 102.534 70.7386Z" fill="#646464"/>
<path d="M111.577 55.6574H114.53V58.3284H114.674C115.307 57.3555 116.172 56.5569 117.19 56.0055C118.343 55.3677 119.642 55.0442 120.958 55.0672C122.482 55.0602 123.974 55.4993 125.253 56.3308C126.582 57.1873 127.663 58.3799 128.388 59.7888C129.156 61.323 129.556 63.0164 129.556 64.7335C129.556 66.4507 129.156 68.1441 128.388 69.6783C127.663 71.0872 126.582 72.2798 125.253 73.1363C123.974 73.9678 122.482 74.4069 120.958 74.3999C119.628 74.4265 118.314 74.1058 117.145 73.4692C116.117 72.9161 115.254 72.0988 114.643 71.1008H114.5L114.643 73.6281V81.7244H111.546L111.577 55.6574ZM123.483 70.7377C124.415 70.1532 125.171 69.3237 125.668 68.339C126.206 67.214 126.486 65.9818 126.486 64.7335C126.486 63.4853 126.206 62.2531 125.668 61.1281C125.171 60.1434 124.415 59.3139 123.483 58.7294C122.591 58.1751 121.562 57.884 120.514 57.8895C119.464 57.8821 118.434 58.1676 117.537 58.7143C116.601 59.2849 115.844 60.1082 115.352 61.0902C114.811 62.2254 114.531 63.4677 114.531 64.726C114.531 65.9842 114.811 67.2265 115.352 68.3617C115.843 69.3502 116.6 70.1811 117.537 70.7604C118.436 71.3014 119.466 71.5841 120.514 71.5775C121.562 71.5831 122.591 71.292 123.483 70.7377Z" fill="#646464"/>
<path d="M136.828 73.1521C135.457 72.326 134.339 71.1376 133.595 69.7168C132.803 68.1795 132.404 66.4685 132.435 64.738C132.416 63.0553 132.79 61.3916 133.527 59.8802C134.217 58.4454 135.289 57.2302 136.624 56.3693C138.013 55.4925 139.626 55.0403 141.266 55.0679C142.885 55.035 144.482 55.4457 145.885 56.2558C147.193 57.0552 148.241 58.22 148.899 59.6078C149.627 61.1642 149.988 62.8678 149.954 64.5867C149.969 64.8413 149.944 65.0967 149.879 65.3433H135.569C135.574 66.5643 135.913 67.7605 136.549 68.8013C137.102 69.694 137.883 70.4226 138.809 70.9124C139.684 71.3635 140.652 71.5995 141.635 71.6009C143.921 71.6009 145.679 70.4786 146.91 68.2338L149.645 69.558C148.893 70.994 147.781 72.209 146.42 73.084C144.965 73.9452 143.31 74.4069 141.621 74.4228C139.932 74.4388 138.269 74.0084 136.798 73.1748L136.828 73.1521ZM146.729 62.7177C146.668 61.9518 146.456 61.2058 146.104 60.5234C145.701 59.7451 145.087 59.0971 144.333 58.6545C143.387 58.1141 142.308 57.8519 141.221 57.8978C139.92 57.8751 138.658 58.3451 137.687 59.2144C136.666 60.127 135.994 61.3687 135.788 62.7253L146.729 62.7177Z" fill="#646464"/>
<path d="M153.142 55.6576H156.096V58.6237H156.217C156.602 57.563 157.343 56.6697 158.311 56.0965C159.241 55.4508 160.339 55.093 161.469 55.0674C162.191 55.0605 162.909 55.1861 163.586 55.4382V58.7675C162.794 58.3711 161.916 58.1812 161.032 58.2151C160.177 58.2144 159.343 58.4787 158.643 58.9718C157.895 59.4784 157.287 60.1652 156.872 60.9694C156.434 61.8068 156.209 62.7399 156.217 63.6858V73.8175H153.119L153.142 55.6576Z" fill="#646464"/>
<path d="M177.188 73.576C175.944 73.0157 174.837 72.1923 173.94 71.1622C172.98 70.046 172.289 68.723 171.92 67.2957L174.874 66.0926C175.231 67.5709 176.018 68.909 177.135 69.9364C178.195 70.9193 179.588 71.4603 181.031 71.4497C182.421 71.4959 183.785 71.0634 184.896 70.2239C185.406 69.8324 185.815 69.3235 186.088 68.7401C186.36 68.1567 186.489 67.5159 186.464 66.8719C186.478 66.3005 186.367 65.7329 186.138 65.2097C185.908 64.6865 185.567 64.2206 185.137 63.8453C183.838 62.8375 182.36 62.0854 180.782 61.6282L179.139 61.0456C177.473 60.493 175.935 59.6076 174.618 58.4427C174.023 57.8691 173.559 57.1732 173.257 56.4026C172.956 55.6321 172.823 54.8051 172.87 53.9784C172.865 52.7507 173.219 51.5485 173.887 50.5205C174.586 49.4347 175.562 48.5568 176.713 47.9781C177.971 47.3291 179.368 47.0017 180.782 47.0247C182.145 46.994 183.497 47.2815 184.731 47.8646C185.764 48.3482 186.684 49.0472 187.428 49.9151C188.039 50.6098 188.505 51.4202 188.8 52.2986L185.921 53.5395C185.595 52.4624 184.917 51.5268 183.998 50.8831C183.078 50.2394 181.969 49.9251 180.85 49.9908C179.61 49.9588 178.399 50.36 177.421 51.1258C176.978 51.4557 176.619 51.8861 176.373 52.3818C176.127 52.8775 176 53.4245 176.005 53.9784C175.995 54.462 176.098 54.9412 176.306 55.3775C176.514 55.8137 176.821 56.1949 177.203 56.4905C178.312 57.2898 179.544 57.9007 180.85 58.2989L182.53 58.8816C184.451 59.5187 186.219 60.5494 187.722 61.9082C188.36 62.5509 188.856 63.3206 189.179 64.1677C189.502 65.0149 189.645 65.9206 189.598 66.8265C189.649 68.3481 189.196 69.8438 188.31 71.079C187.473 72.2033 186.344 73.0749 185.047 73.5986C183.751 74.1331 182.364 74.4081 180.963 74.4083C179.66 74.4021 178.373 74.1185 177.188 73.576Z" fill="#646464"/>
<path d="M197.164 74.0289C196.577 73.7999 196.039 73.4581 195.582 73.0226C195.101 72.5573 194.732 71.9879 194.504 71.3579C194.255 70.6279 194.138 69.8593 194.157 69.0879V58.4871H190.955V55.6723H194.157V50.2471H197.224V55.6723H201.67V58.4871H197.224V68.3767C197.157 69.1994 197.376 70.02 197.842 70.6996C198.071 70.979 198.362 71.1995 198.692 71.343C199.023 71.4864 199.382 71.5486 199.741 71.5244C200.432 71.5398 201.113 71.3616 201.708 71.0099V74.0365C201.346 74.1736 200.973 74.2774 200.593 74.3468C200.12 74.3962 199.643 74.4064 199.169 74.377C198.485 74.3856 197.805 74.2676 197.164 74.0289Z" fill="#646464"/>
<path d="M206.5 72.4627C205.27 70.9485 204.651 69.0257 204.767 67.0753V55.6572H207.864V66.5683C207.864 69.9127 209.371 71.5824 212.385 71.5774C213.343 71.589 214.28 71.2949 215.06 70.7375C215.85 70.1799 216.479 69.423 216.884 68.5432C217.309 67.6505 217.528 66.6727 217.524 65.683V55.6572H220.584V73.8171H217.667V71.1007H217.524C216.936 72.0839 216.099 72.8932 215.098 73.4464C214.044 74.074 212.841 74.4035 211.616 74.3997C209.346 74.3846 207.64 73.7389 206.5 72.4627Z" fill="#646464"/>
<path d="M227.849 73.1521C226.515 72.3015 225.432 71.1074 224.714 69.6941C223.946 68.1544 223.546 66.4562 223.546 64.7342C223.546 63.0123 223.946 61.314 224.714 59.7743C225.432 58.361 226.515 57.1669 227.849 56.3164C229.133 55.4924 230.627 55.0588 232.152 55.0679C233.467 55.0487 234.765 55.3719 235.919 56.0061C236.95 56.5406 237.819 57.3427 238.436 58.3291H238.579L238.436 55.8397V47.5996H241.503V73.8179H238.579V71.1015H238.436C237.826 72.105 236.956 72.9235 235.919 73.4699C234.763 74.0982 233.466 74.4187 232.152 74.4006C230.627 74.4096 229.133 73.9761 227.849 73.1521ZM235.595 70.761C236.532 70.1797 237.291 69.3496 237.788 68.3624C238.324 67.2259 238.602 65.9841 238.602 64.7266C238.602 63.4692 238.324 62.2274 237.788 61.0909C237.291 60.11 236.532 59.2873 235.595 58.715C234.7 58.1708 233.673 57.8831 232.626 57.8831C231.58 57.8831 230.553 58.1708 229.657 58.715C228.723 59.3002 227.965 60.1293 227.464 61.1136C226.926 62.2386 226.646 63.4709 226.646 64.7191C226.646 65.9673 226.926 67.1995 227.464 68.3246C227.965 69.3089 228.723 70.138 229.657 70.7232C230.549 71.2775 231.578 71.5686 232.626 71.5631C233.67 71.574 234.698 71.2966 235.595 70.761Z" fill="#646464"/>
<path d="M248.902 73.152C247.534 72.3254 246.418 71.137 245.677 69.7167C244.883 68.1799 244.482 66.4691 244.509 64.7379C244.493 63.0546 244.87 61.391 245.609 59.8801C246.302 58.4427 247.38 57.2271 248.722 56.3692C250.113 55.4922 251.728 55.04 253.371 55.0678C254.987 55.0358 256.581 55.4465 257.983 56.2557C259.294 57.0506 260.343 58.2167 260.997 59.6077C261.73 61.1624 262.094 62.8667 262.059 64.5866C262.07 64.8411 262.045 65.0959 261.984 65.3432H247.644C247.651 66.5649 247.993 67.7611 248.631 68.8012C249.185 69.6939 249.965 70.4225 250.892 70.9123C251.763 71.3633 252.729 71.5994 253.71 71.6008C256.001 71.6008 257.759 70.4785 258.985 68.2337L261.72 69.5578C260.967 70.9939 259.856 72.2089 258.495 73.0839C257.038 73.945 255.382 74.4066 253.692 74.4226C252.002 74.4385 250.337 74.0082 248.865 73.1747L248.902 73.152ZM258.804 62.7176C258.746 61.9521 258.536 61.2061 258.186 60.5233C257.781 59.7466 257.168 59.0992 256.415 58.6544C255.466 58.1141 254.385 57.852 253.296 57.8977C251.995 57.8757 250.733 58.3457 249.761 59.2143C248.745 60.1297 248.077 61.3704 247.87 62.7252L258.804 62.7176Z" fill="#646464"/>
<path d="M265.216 55.6574H268.17V58.3662H268.321C268.892 57.3773 269.724 56.5658 270.725 56.0206C271.786 55.3935 272.997 55.0642 274.228 55.0672C276.436 55.0672 278.124 55.7179 279.277 57.0118C280.497 58.4959 281.116 60.3869 281.01 62.3084V73.8097H277.943V62.7927C277.943 59.5239 276.436 57.8895 273.422 57.8895C272.481 57.8796 271.562 58.1741 270.8 58.7294C270.021 59.2925 269.401 60.0485 268.999 60.9237C268.574 61.8167 268.355 62.7943 268.358 63.7839V73.8172H265.254L265.216 55.6574Z" fill="#646464"/>
<path d="M289.081 74.0289C288.493 73.7999 287.956 73.4581 287.498 73.0226C287.018 72.5573 286.649 71.9879 286.421 71.3579C286.176 70.627 286.058 69.859 286.074 69.0879V58.4871H282.864V55.6723H286.074V50.2471H289.141V55.6723H293.587V58.4871H289.141V68.3767C289.074 69.1994 289.292 70.02 289.759 70.6996C289.987 70.979 290.279 71.1995 290.609 71.343C290.939 71.4864 291.299 71.5486 291.658 71.5244C292.348 71.537 293.028 71.359 293.624 71.0099V74.0365C293.263 74.1735 292.89 74.2774 292.509 74.3468C292.041 74.3951 291.57 74.4053 291.1 74.377C290.411 74.3874 289.727 74.2694 289.081 74.0289Z" fill="#646464"/>
<path d="M313.609 72.8539C311.555 71.6835 309.854 69.9761 308.688 67.9129C307.502 65.7875 306.88 63.3918 306.88 60.9554C306.88 58.519 307.502 56.1234 308.688 53.9979C309.854 51.9348 311.555 50.2273 313.609 49.0569C315.672 47.8668 318.012 47.248 320.391 47.2636C322.246 47.2513 324.085 47.5982 325.809 48.2851C327.408 48.9075 328.839 49.9004 329.984 51.1831L327.723 53.4153C326.872 52.37 325.773 51.5557 324.528 51.0469C323.205 50.497 321.785 50.2191 320.353 50.2297C318.559 50.2193 316.793 50.6783 315.229 51.5615C313.639 52.4557 312.317 53.7623 311.401 55.3448C310.457 57.0656 309.962 58.9984 309.962 60.963C309.962 62.9276 310.457 64.8603 311.401 66.5812C312.314 68.166 313.637 69.4733 315.229 70.3645C316.68 71.148 318.286 71.6004 319.931 71.6893C321.576 71.7783 323.22 71.5016 324.747 70.879C325.901 70.3535 326.947 69.6142 327.828 68.6999C328.482 67.9721 328.993 67.1277 329.336 66.2104C329.738 65.1936 329.972 64.1176 330.029 63.0249H320.481V60.1344H333.02C333.136 60.7635 333.197 61.4015 333.201 62.0412C333.208 63.6384 332.954 65.2259 332.448 66.7401C331.949 68.2465 331.114 69.6183 330.006 70.7504C328.771 72.0421 327.276 73.0554 325.621 73.7233C323.966 74.3912 322.188 74.6984 320.406 74.6245C318.024 74.6498 315.678 74.0387 313.609 72.8539Z" fill="#646464"/>
<path d="M335.902 56.8538H338.856V59.8199H338.977C339.362 58.7592 340.103 57.8659 341.071 57.2926C342.001 56.647 343.099 56.2892 344.229 56.2636C344.951 56.2566 345.669 56.3823 346.346 56.6343V59.9637C345.554 59.5673 344.676 59.3774 343.792 59.4113C342.937 59.4106 342.103 59.6748 341.403 60.168C340.656 60.6745 340.047 61.3614 339.632 62.1655C339.194 63.003 338.969 63.9361 338.977 64.882V75.0137H335.88L335.902 56.8538Z" fill="#646464"/>
<path d="M351.361 74.3246C349.961 73.4947 348.818 72.2894 348.061 70.8439C347.284 69.3216 346.88 67.6359 346.88 65.9256C346.88 64.2153 347.284 62.5296 348.061 61.0073C348.82 59.5632 349.962 58.3585 351.361 57.5267C352.821 56.6985 354.469 56.2633 356.146 56.2633C357.823 56.2633 359.471 56.6985 360.931 57.5267C362.34 58.3533 363.491 59.5588 364.254 61.0073C365.031 62.5296 365.436 64.2153 365.436 65.9256C365.436 67.6359 365.031 69.3216 364.254 70.8439C363.494 72.2941 362.342 73.5002 360.931 74.3246C359.471 75.1527 357.823 75.5879 356.146 75.5879C354.469 75.5879 352.821 75.1527 351.361 74.3246ZM359.206 71.9259C360.16 71.345 360.941 70.5164 361.466 69.5273C362.031 68.41 362.325 67.1748 362.325 65.9218C362.325 64.6689 362.031 63.4336 361.466 62.3163C360.941 61.3273 360.16 60.4987 359.206 59.9177C358.278 59.3641 357.218 59.0738 356.139 59.0778C355.077 59.0796 354.035 59.3699 353.125 59.9177C352.17 60.4987 351.389 61.3273 350.864 62.3163C350.299 63.4336 350.005 64.6689 350.005 65.9218C350.005 67.1748 350.299 68.41 350.864 69.5273C351.389 70.5164 352.17 71.345 353.125 71.9259C354.035 72.4738 355.077 72.764 356.139 72.7658C357.218 72.7698 358.278 72.4795 359.206 71.9259Z" fill="#646464"/>
<path d="M369.619 73.0688C368.392 71.5539 367.776 69.6309 367.894 67.6813V56.2633H370.991V67.1744C370.991 70.5188 372.498 72.1885 375.512 72.1835C376.473 72.1967 377.412 71.9026 378.195 71.3436C378.98 70.7816 379.608 70.0258 380.018 69.1493C380.438 68.2549 380.654 67.2778 380.651 66.2891V56.2633H383.718V74.4232H380.802V71.7068H380.651C380.064 72.6881 379.23 73.497 378.233 74.0524C377.164 74.6801 375.944 75.002 374.706 74.9831C372.475 74.9831 370.78 74.345 369.619 73.0688Z" fill="#646464"/>
<path d="M386.91 55.8546H389.864V58.5257H390.007C390.64 57.5527 391.505 56.7542 392.524 56.2027C393.676 55.5649 394.975 55.2414 396.291 55.2645C397.815 55.2574 399.308 55.6966 400.586 56.5281C401.915 57.3845 402.997 58.5771 403.721 59.986C404.489 61.5203 404.889 63.2136 404.889 64.9308C404.889 66.648 404.489 68.3414 403.721 69.8756C402.997 71.2845 401.915 72.4771 400.586 73.3335C399.308 74.165 397.815 74.6042 396.291 74.5972C394.961 74.6238 393.648 74.3031 392.478 73.6665C391.45 73.1134 390.587 72.2961 389.977 71.2981H389.833L389.977 73.8254V81.9216H386.88L386.91 55.8546ZM398.816 70.9349C399.748 70.3504 400.504 69.521 401.001 68.5363C401.539 67.4113 401.819 66.179 401.819 64.9308C401.819 63.6826 401.539 62.4503 401.001 61.3253C400.504 60.3407 399.748 59.5112 398.816 58.9267C397.924 58.3724 396.895 58.0813 395.847 58.0868C394.798 58.0794 393.767 58.3649 392.87 58.9116C391.934 59.4822 391.177 60.3055 390.685 61.2875C390.144 62.4227 389.864 63.665 389.864 64.9232C389.864 66.1815 390.144 67.4238 390.685 68.559C391.176 69.5475 391.933 70.3783 392.87 70.9576C393.769 71.4987 394.799 71.7814 395.847 71.7748C396.895 71.7803 397.924 71.4893 398.816 70.9349Z" fill="#646464"/>
<path d="M408.69 73.1286C407.41 72.2332 406.43 70.9696 405.88 69.5042L408.615 68.3011C409.037 69.3576 409.751 70.2712 410.672 70.9343C411.521 71.5339 412.535 71.8538 413.573 71.8499C414.593 71.8904 415.603 71.6272 416.474 71.0932C416.807 70.9043 417.087 70.6338 417.287 70.3069C417.487 69.9801 417.602 69.6076 417.62 69.2242C417.624 68.8834 417.548 68.5463 417.399 68.2401C417.25 67.9339 417.031 67.6672 416.761 67.4612C415.876 66.8612 414.878 66.4492 413.829 66.2506L411.35 65.6225C410.065 65.3501 408.869 64.7597 407.869 63.9049C407.397 63.501 407.023 62.995 406.773 62.4249C406.524 61.8549 406.406 61.2356 406.43 60.6134C406.402 59.5636 406.743 58.5374 407.394 57.7154C408.071 56.8858 408.959 56.2556 409.964 55.8919C411.083 55.4656 412.271 55.2526 413.468 55.2638C414.952 55.2471 416.414 55.6201 417.71 56.3459C418.938 57.0086 419.899 58.0781 420.43 59.3725L417.695 60.5453C417.346 59.7114 416.72 59.0243 415.924 58.6007C415.105 58.1831 414.198 57.9702 413.279 57.9803C412.375 57.9709 411.486 58.2117 410.71 58.6764C410.364 58.84 410.071 59.0975 409.863 59.4198C409.655 59.742 409.541 60.1161 409.534 60.4999C409.524 60.7953 409.588 61.0885 409.719 61.3528C409.851 61.6172 410.046 61.8442 410.288 62.0133C411.022 62.476 411.83 62.8087 412.676 62.9969L415.374 63.6552C416.881 63.9642 418.275 64.6811 419.406 65.7285C419.834 66.1577 420.172 66.6689 420.399 67.2316C420.627 67.7944 420.74 68.3974 420.732 69.0048C420.74 70.0292 420.42 71.0292 419.82 71.8574C419.17 72.7492 418.289 73.4453 417.273 73.8702C416.1 74.3842 414.831 74.6421 413.551 74.6268C411.812 74.6663 410.107 74.1408 408.69 73.1286Z" fill="#646464"/>
<path d="M18.5056 94.9853V110.319H16.3395L8.15499 98.4923V110.319H6V94.9853H8.15499L16.373 106.844V94.9853H18.5056Z" fill="#646464"/>
<path d="M29.1354 108.371V102.505C29.1354 102.056 29.0387 101.666 28.8451 101.336C28.659 100.999 28.3762 100.739 27.9965 100.557C27.6169 100.374 27.1479 100.283 26.5896 100.283C26.0686 100.283 25.6108 100.367 25.2163 100.535C24.8292 100.704 24.524 100.925 24.3007 101.199C24.0848 101.473 23.9769 101.768 23.9769 102.084H21.9112C21.9112 101.676 22.0228 101.273 22.2462 100.872C22.4695 100.472 22.7896 100.111 23.2064 99.7877C23.6307 99.4577 24.1369 99.198 24.725 99.0084C25.3205 98.8118 25.983 98.7135 26.7125 98.7135C27.5908 98.7135 28.365 98.8539 29.0349 99.1348C29.7123 99.4156 30.2408 99.8404 30.6205 100.409C31.0076 100.971 31.2011 101.676 31.2011 102.526V107.834C31.2011 108.213 31.2346 108.617 31.3016 109.045C31.376 109.473 31.484 109.842 31.6254 110.151V110.319H29.4704C29.3662 110.095 29.2843 109.796 29.2248 109.424C29.1652 109.045 29.1354 108.694 29.1354 108.371ZM29.4927 103.411L29.5151 104.78H27.4271C26.839 104.78 26.3142 104.825 25.8527 104.917C25.3912 105.001 25.0041 105.131 24.6915 105.306C24.3788 105.482 24.1406 105.703 23.9769 105.97C23.8131 106.23 23.7312 106.535 23.7312 106.886C23.7312 107.244 23.8168 107.571 23.988 107.865C24.1592 108.16 24.416 108.396 24.7585 108.571C25.1083 108.74 25.5363 108.824 26.0425 108.824C26.6752 108.824 27.2335 108.697 27.7174 108.445C28.2012 108.192 28.5846 107.883 28.8675 107.518C29.1578 107.153 29.3141 106.798 29.3364 106.454L30.2185 107.392C30.1664 107.686 30.025 108.013 29.7942 108.371C29.5634 108.729 29.2545 109.073 28.8675 109.403C28.4878 109.726 28.0337 109.996 27.5052 110.214C26.9842 110.425 26.3961 110.53 25.741 110.53C24.9222 110.53 24.2039 110.379 23.5861 110.077C22.9757 109.775 22.4993 109.371 22.1568 108.866C21.8219 108.353 21.6544 107.781 21.6544 107.149C21.6544 106.538 21.7809 106.001 22.034 105.538C22.2871 105.068 22.6519 104.678 23.1283 104.369C23.6047 104.053 24.1778 103.814 24.8478 103.653C25.5177 103.491 26.2658 103.411 27.0921 103.411H29.4927Z" fill="#646464"/>
<path d="M39.5084 98.9241V100.42H32.9764V98.9241H39.5084ZM35.1873 96.1543H37.2529V107.497C37.2529 107.883 37.3162 108.174 37.4427 108.371C37.5693 108.568 37.7331 108.697 37.934 108.761C38.135 108.824 38.3509 108.855 38.5817 108.855C38.7529 108.855 38.9315 108.841 39.1176 108.813C39.3111 108.778 39.4563 108.75 39.5531 108.729L39.5642 110.319C39.4005 110.368 39.1846 110.414 38.9166 110.456C38.6561 110.505 38.3397 110.53 37.9675 110.53C37.4614 110.53 36.9961 110.435 36.5718 110.246C36.1475 110.056 35.8088 109.74 35.5557 109.298C35.3101 108.848 35.1873 108.245 35.1873 107.486V96.1543Z" fill="#646464"/>
<path d="M44.1757 98.9241V110.319H42.0989V98.9241H44.1757ZM41.9425 95.9016C41.9425 95.5856 42.043 95.3188 42.244 95.1012C42.4524 94.8835 42.7576 94.7747 43.1596 94.7747C43.5541 94.7747 43.8556 94.8835 44.064 95.1012C44.2799 95.3188 44.3878 95.5856 44.3878 95.9016C44.3878 96.2035 44.2799 96.4633 44.064 96.6809C43.8556 96.8915 43.5541 96.9969 43.1596 96.9969C42.7576 96.9969 42.4524 96.8915 42.244 96.6809C42.043 96.4633 41.9425 96.2035 41.9425 95.9016Z" fill="#646464"/>
<path d="M46.9448 104.748V104.506C46.9448 103.684 47.0713 102.923 47.3244 102.221C47.5775 101.511 47.9423 100.897 48.4187 100.377C48.8951 99.8509 49.472 99.4437 50.1494 99.1558C50.8268 98.8609 51.586 98.7135 52.4272 98.7135C53.2758 98.7135 54.0388 98.8609 54.7162 99.1558C55.401 99.4437 55.9816 99.8509 56.458 100.377C56.9419 100.897 57.3103 101.511 57.5634 102.221C57.8165 102.923 57.9431 103.684 57.9431 104.506V104.748C57.9431 105.57 57.8165 106.331 57.5634 107.033C57.3103 107.736 56.9419 108.35 56.458 108.876C55.9816 109.396 55.4047 109.803 54.7273 110.098C54.0574 110.386 53.2981 110.53 52.4495 110.53C51.6009 110.53 50.8379 110.386 50.1605 110.098C49.4831 109.803 48.9025 109.396 48.4187 108.876C47.9423 108.35 47.5775 107.736 47.3244 107.033C47.0713 106.331 46.9448 105.57 46.9448 104.748ZM49.0105 104.506V104.748C49.0105 105.317 49.0812 105.854 49.2226 106.359C49.364 106.858 49.5762 107.3 49.8591 107.686C50.1494 108.073 50.5104 108.378 50.9421 108.603C51.3739 108.82 51.8763 108.929 52.4495 108.929C53.0152 108.929 53.5103 108.82 53.9346 108.603C54.3663 108.378 54.7236 108.073 55.0065 107.686C55.2893 107.3 55.5015 106.858 55.6429 106.359C55.7918 105.854 55.8662 105.317 55.8662 104.748V104.506C55.8662 103.944 55.7918 103.414 55.6429 102.916C55.5015 102.41 55.2856 101.964 54.9953 101.578C54.7124 101.185 54.3551 100.876 53.9234 100.651C53.4991 100.427 53.0004 100.314 52.4272 100.314C51.8615 100.314 51.3627 100.427 50.931 100.651C50.5067 100.876 50.1494 101.185 49.8591 101.578C49.5762 101.964 49.364 102.41 49.2226 102.916C49.0812 103.414 49.0105 103.944 49.0105 104.506Z" fill="#646464"/>
<path d="M62.5992 101.357V110.319H60.5335V98.9241H62.4875L62.5992 101.357ZM62.1079 104.19L61.2481 104.158C61.2556 103.379 61.3784 102.659 61.6166 101.999C61.8548 101.332 62.1898 100.753 62.6215 100.262C63.0532 99.7702 63.5669 99.391 64.1624 99.1242C64.7653 98.8504 65.4316 98.7135 66.161 98.7135C66.7566 98.7135 67.2925 98.7907 67.7689 98.9452C68.2453 99.0926 68.651 99.3314 68.986 99.6613C69.3284 99.9913 69.5889 100.42 69.7676 100.946C69.9462 101.466 70.0356 102.101 70.0356 102.852V110.319H67.9587V102.831C67.9587 102.235 67.8657 101.757 67.6796 101.399C67.4935 101.034 67.2218 100.771 66.8645 100.609C66.5072 100.441 66.068 100.356 65.5469 100.356C65.0333 100.356 64.5644 100.458 64.1401 100.662C63.7232 100.865 63.3622 101.146 63.057 101.504C62.7592 101.862 62.5247 102.273 62.3535 102.737C62.1898 103.193 62.1079 103.677 62.1079 104.19Z" fill="#646464"/>
<path d="M80.2969 108.371V102.505C80.2969 102.056 80.2001 101.666 80.0066 101.336C79.8205 100.999 79.5376 100.739 79.158 100.557C78.7783 100.374 78.3094 100.283 77.7511 100.283C77.23 100.283 76.7722 100.367 76.3777 100.535C75.9906 100.704 75.6854 100.925 75.4621 101.199C75.2462 101.473 75.1383 101.768 75.1383 102.084H73.0726C73.0726 101.676 73.1843 101.273 73.4076 100.872C73.6309 100.472 73.951 100.111 74.3679 99.7877C74.7922 99.4577 75.2984 99.198 75.8864 99.0084C76.4819 98.8118 77.1444 98.7135 77.8739 98.7135C78.7523 98.7135 79.5265 98.8539 80.1964 99.1348C80.8738 99.4156 81.4023 99.8404 81.7819 100.409C82.169 100.971 82.3625 101.676 82.3625 102.526V107.834C82.3625 108.213 82.396 108.617 82.463 109.045C82.5375 109.473 82.6454 109.842 82.7868 110.151V110.319H80.6319C80.5276 110.095 80.4458 109.796 80.3862 109.424C80.3267 109.045 80.2969 108.694 80.2969 108.371ZM80.6542 103.411L80.6765 104.78H78.5885C78.0005 104.78 77.4757 104.825 77.0142 104.917C76.5526 105.001 76.1656 105.131 75.8529 105.306C75.5403 105.482 75.3021 105.703 75.1383 105.97C74.9745 106.23 74.8927 106.535 74.8927 106.886C74.8927 107.244 74.9783 107.571 75.1495 107.865C75.3207 108.16 75.5775 108.396 75.9199 108.571C76.2698 108.74 76.6978 108.824 77.204 108.824C77.8367 108.824 78.395 108.697 78.8788 108.445C79.3627 108.192 79.746 107.883 80.0289 107.518C80.3192 107.153 80.4755 106.798 80.4979 106.454L81.38 107.392C81.3279 107.686 81.1864 108.013 80.9557 108.371C80.7249 108.729 80.416 109.073 80.0289 109.403C79.6493 109.726 79.1952 109.996 78.6667 110.214C78.1456 110.425 77.5576 110.53 76.9025 110.53C76.0837 110.53 75.3653 110.379 74.7475 110.077C74.1371 109.775 73.6607 109.371 73.3183 108.866C72.9833 108.353 72.8158 107.781 72.8158 107.149C72.8158 106.538 72.9424 106.001 73.1955 105.538C73.4486 105.068 73.8133 104.678 74.2897 104.369C74.7661 104.053 75.3393 103.814 76.0092 103.653C76.6792 103.491 77.4273 103.411 78.2536 103.411H80.6542Z" fill="#646464"/>
<path d="M87.8561 94.1428V110.319H85.7793V94.1428H87.8561Z" fill="#646464"/>
<path d="M99.4685 94.9853V110.319H97.3135V94.9853H99.4685Z" fill="#646464"/>
<path d="M105.141 101.357V110.319H103.075V98.9241H105.029L105.141 101.357ZM104.649 104.19L103.79 104.158C103.797 103.379 103.92 102.659 104.158 101.999C104.396 101.332 104.731 100.753 105.163 100.262C105.595 99.7702 106.108 99.391 106.704 99.1242C107.307 98.8504 107.973 98.7135 108.703 98.7135C109.298 98.7135 109.834 98.7907 110.31 98.9452C110.787 99.0926 111.193 99.3314 111.527 99.6613C111.87 99.9913 112.13 100.42 112.309 100.946C112.488 101.466 112.577 102.101 112.577 102.852V110.319H110.5V102.831C110.5 102.235 110.407 101.757 110.221 101.399C110.035 101.034 109.763 100.771 109.406 100.609C109.049 100.441 108.61 100.356 108.088 100.356C107.575 100.356 107.106 100.458 106.682 100.662C106.265 100.865 105.904 101.146 105.598 101.504C105.301 101.862 105.066 102.273 104.895 102.737C104.731 103.193 104.649 103.677 104.649 104.19Z" fill="#646464"/>
<path d="M122.749 107.297C122.749 107.016 122.682 106.756 122.548 106.517C122.422 106.272 122.157 106.051 121.755 105.854C121.361 105.65 120.765 105.475 119.969 105.327C119.299 105.194 118.692 105.036 118.149 104.853C117.613 104.671 117.155 104.45 116.775 104.19C116.403 103.93 116.117 103.625 115.916 103.274C115.715 102.923 115.614 102.512 115.614 102.041C115.614 101.592 115.718 101.167 115.927 100.767C116.143 100.367 116.444 100.012 116.831 99.7035C117.226 99.3945 117.698 99.1523 118.249 98.9768C118.8 98.8013 119.414 98.7135 120.092 98.7135C121.059 98.7135 121.886 98.875 122.57 99.198C123.255 99.5209 123.78 99.9527 124.145 100.493C124.51 101.027 124.692 101.62 124.692 102.273H122.626C122.626 101.957 122.526 101.652 122.325 101.357C122.131 101.055 121.845 100.806 121.465 100.609C121.093 100.413 120.635 100.314 120.092 100.314C119.518 100.314 119.053 100.399 118.696 100.567C118.346 100.729 118.089 100.936 117.925 101.188C117.769 101.441 117.691 101.708 117.691 101.989C117.691 102.199 117.728 102.389 117.803 102.558C117.885 102.719 118.026 102.87 118.227 103.01C118.428 103.144 118.711 103.27 119.076 103.39C119.44 103.509 119.906 103.628 120.471 103.748C121.461 103.958 122.276 104.211 122.917 104.506C123.557 104.801 124.033 105.162 124.346 105.591C124.658 106.019 124.815 106.538 124.815 107.149C124.815 107.648 124.703 108.104 124.48 108.518C124.264 108.933 123.948 109.291 123.531 109.593C123.121 109.888 122.63 110.119 122.057 110.288C121.491 110.449 120.855 110.53 120.147 110.53C119.083 110.53 118.182 110.351 117.445 109.993C116.708 109.635 116.15 109.171 115.77 108.603C115.391 108.034 115.201 107.434 115.201 106.802H117.278C117.308 107.335 117.471 107.76 117.769 108.076C118.067 108.385 118.432 108.606 118.863 108.74C119.295 108.866 119.723 108.929 120.147 108.929C120.713 108.929 121.186 108.859 121.565 108.719C121.953 108.578 122.247 108.385 122.448 108.139C122.649 107.894 122.749 107.613 122.749 107.297Z" fill="#646464"/>
<path d="M132.586 98.9241V100.42H126.054V98.9241H132.586ZM128.265 96.1543H130.331V107.497C130.331 107.883 130.394 108.174 130.52 108.371C130.647 108.568 130.811 108.697 131.012 108.761C131.213 108.824 131.429 108.855 131.659 108.855C131.831 108.855 132.009 108.841 132.195 108.813C132.389 108.778 132.534 108.75 132.631 108.729L132.642 110.319C132.478 110.368 132.262 110.414 131.994 110.456C131.734 110.505 131.417 110.53 131.045 110.53C130.539 110.53 130.074 110.435 129.65 110.246C129.225 110.056 128.887 109.74 128.633 109.298C128.388 108.848 128.265 108.245 128.265 107.486V96.1543Z" fill="#646464"/>
<path d="M137.253 98.9241V110.319H135.177V98.9241H137.253ZM135.02 95.9016C135.02 95.5856 135.121 95.3188 135.322 95.1012C135.53 94.8835 135.835 94.7747 136.237 94.7747C136.632 94.7747 136.933 94.8835 137.142 95.1012C137.358 95.3188 137.466 95.5856 137.466 95.9016C137.466 96.2035 137.358 96.4633 137.142 96.6809C136.933 96.8915 136.632 96.9969 136.237 96.9969C135.835 96.9969 135.53 96.8915 135.322 96.6809C135.121 96.4633 135.02 96.2035 135.02 95.9016Z" fill="#646464"/>
<path d="M145.628 98.9241V100.42H139.096V98.9241H145.628ZM141.307 96.1543H143.372V107.497C143.372 107.883 143.435 108.174 143.562 108.371C143.689 108.568 143.852 108.697 144.053 108.761C144.254 108.824 144.47 108.855 144.701 108.855C144.872 108.855 145.051 108.841 145.237 108.813C145.43 108.778 145.576 108.75 145.672 108.729L145.684 110.319C145.52 110.368 145.304 110.414 145.036 110.456C144.775 110.505 144.459 110.53 144.087 110.53C143.581 110.53 143.115 110.435 142.691 110.246C142.267 110.056 141.928 109.74 141.675 109.298C141.429 108.848 141.307 108.245 141.307 107.486V96.1543Z" fill="#646464"/>
<path d="M155.442 107.686V98.9241H157.519V110.319H155.543L155.442 107.686ZM155.833 105.285L156.693 105.264C156.693 106.022 156.607 106.725 156.436 107.37C156.272 108.009 156.004 108.564 155.632 109.034C155.26 109.505 154.772 109.873 154.169 110.14C153.567 110.4 152.833 110.53 151.97 110.53C151.382 110.53 150.842 110.449 150.351 110.288C149.867 110.126 149.45 109.877 149.1 109.54C148.75 109.203 148.479 108.764 148.285 108.224C148.099 107.683 148.006 107.033 148.006 106.275V98.9241H150.072V106.296C150.072 106.809 150.131 107.234 150.25 107.571C150.377 107.901 150.544 108.164 150.753 108.36C150.969 108.55 151.207 108.683 151.467 108.761C151.735 108.838 152.011 108.876 152.294 108.876C153.172 108.876 153.868 108.719 154.382 108.403C154.895 108.08 155.264 107.648 155.487 107.107C155.718 106.56 155.833 105.952 155.833 105.285Z" fill="#646464"/>
<path d="M165.681 110.53C164.84 110.53 164.077 110.397 163.392 110.13C162.715 109.856 162.131 109.473 161.639 108.982C161.156 108.49 160.783 107.908 160.523 107.234C160.262 106.56 160.132 105.822 160.132 105.022V104.58C160.132 103.653 160.277 102.828 160.567 102.105C160.858 101.374 161.252 100.757 161.751 100.251C162.25 99.7456 162.815 99.363 163.448 99.1032C164.081 98.8434 164.736 98.7135 165.413 98.7135C166.277 98.7135 167.021 98.8539 167.647 99.1348C168.279 99.4156 168.797 99.8088 169.199 100.314C169.601 100.813 169.898 101.403 170.092 102.084C170.285 102.758 170.382 103.495 170.382 104.295V105.169H161.36V103.579H168.316V103.432C168.287 102.926 168.175 102.435 167.982 101.957C167.795 101.48 167.498 101.087 167.088 100.778C166.679 100.469 166.121 100.314 165.413 100.314C164.944 100.314 164.513 100.409 164.118 100.599C163.724 100.781 163.385 101.055 163.102 101.42C162.819 101.785 162.6 102.231 162.443 102.758C162.287 103.284 162.209 103.892 162.209 104.58V105.022C162.209 105.563 162.287 106.072 162.443 106.549C162.607 107.019 162.842 107.434 163.147 107.792C163.459 108.15 163.835 108.431 164.274 108.634C164.721 108.838 165.227 108.94 165.793 108.94C166.523 108.94 167.14 108.799 167.647 108.518C168.153 108.238 168.596 107.862 168.975 107.392L170.226 108.329C169.965 108.701 169.634 109.056 169.232 109.393C168.83 109.73 168.335 110.003 167.747 110.214C167.166 110.425 166.478 110.53 165.681 110.53Z" fill="#646464"/>
<path d="M177.919 104.748V104.506C177.919 103.684 178.046 102.923 178.299 102.221C178.552 101.511 178.916 100.897 179.393 100.377C179.869 99.8509 180.446 99.4437 181.124 99.1558C181.801 98.8609 182.56 98.7135 183.401 98.7135C184.25 98.7135 185.013 98.8609 185.69 99.1558C186.375 99.4437 186.956 99.8509 187.432 100.377C187.916 100.897 188.285 101.511 188.538 102.221C188.791 102.923 188.917 103.684 188.917 104.506V104.748C188.917 105.57 188.791 106.331 188.538 107.033C188.285 107.736 187.916 108.35 187.432 108.876C186.956 109.396 186.379 109.803 185.702 110.098C185.032 110.386 184.272 110.53 183.424 110.53C182.575 110.53 181.812 110.386 181.135 110.098C180.457 109.803 179.877 109.396 179.393 108.876C178.916 108.35 178.552 107.736 178.299 107.033C178.046 106.331 177.919 105.57 177.919 104.748ZM179.985 104.506V104.748C179.985 105.317 180.055 105.854 180.197 106.359C180.338 106.858 180.55 107.3 180.833 107.686C181.124 108.073 181.485 108.378 181.916 108.603C182.348 108.82 182.851 108.929 183.424 108.929C183.989 108.929 184.484 108.82 184.909 108.603C185.341 108.378 185.698 108.073 185.981 107.686C186.264 107.3 186.476 106.858 186.617 106.359C186.766 105.854 186.84 105.317 186.84 104.748V104.506C186.84 103.944 186.766 103.414 186.617 102.916C186.476 102.41 186.26 101.964 185.97 101.578C185.687 101.185 185.329 100.876 184.898 100.651C184.473 100.427 183.975 100.314 183.401 100.314C182.836 100.314 182.337 100.427 181.905 100.651C181.481 100.876 181.124 101.185 180.833 101.578C180.55 101.964 180.338 102.41 180.197 102.916C180.055 103.414 179.985 103.944 179.985 104.506Z" fill="#646464"/>
<path d="M194.589 110.319H192.524V97.7235C192.524 96.9021 192.68 96.2105 192.993 95.6488C193.313 95.0801 193.771 94.6518 194.366 94.364C194.962 94.0691 195.669 93.9216 196.488 93.9216C196.726 93.9216 196.964 93.9357 197.202 93.9638C197.448 93.9918 197.686 94.034 197.917 94.0901L197.805 95.6804C197.649 95.6453 197.47 95.6207 197.269 95.6067C197.076 95.5926 196.882 95.5856 196.689 95.5856C196.249 95.5856 195.87 95.6699 195.55 95.8384C195.237 95.9999 194.999 96.2386 194.835 96.5545C194.671 96.8705 194.589 97.2601 194.589 97.7235V110.319ZM197.158 98.9241V100.42H190.614V98.9241H197.158Z" fill="#646464"/>
<path d="M211.003 94.9853V110.319H208.882V94.9853H211.003ZM216.229 94.9853V96.6493H203.667V94.9853H216.229Z" fill="#646464"/>
<path d="M222.225 110.53C221.384 110.53 220.621 110.397 219.936 110.13C219.258 109.856 218.674 109.473 218.183 108.982C217.699 108.49 217.327 107.908 217.066 107.234C216.806 106.56 216.675 105.822 216.675 105.022V104.58C216.675 103.653 216.82 102.828 217.111 102.105C217.401 101.374 217.796 100.757 218.294 100.251C218.793 99.7456 219.359 99.363 219.992 99.1032C220.624 98.8434 221.279 98.7135 221.957 98.7135C222.82 98.7135 223.565 98.8539 224.19 99.1348C224.823 99.4156 225.34 99.8088 225.742 100.314C226.144 100.813 226.442 101.403 226.635 102.084C226.829 102.758 226.926 103.495 226.926 104.295V105.169H217.904V103.579H224.86V103.432C224.83 102.926 224.718 102.435 224.525 101.957C224.339 101.48 224.041 101.087 223.632 100.778C223.222 100.469 222.664 100.314 221.957 100.314C221.488 100.314 221.056 100.409 220.662 100.599C220.267 100.781 219.928 101.055 219.645 101.42C219.363 101.785 219.143 102.231 218.987 102.758C218.83 103.284 218.752 103.892 218.752 104.58V105.022C218.752 105.563 218.83 106.072 218.987 106.549C219.15 107.019 219.385 107.434 219.69 107.792C220.003 108.15 220.379 108.431 220.818 108.634C221.264 108.838 221.771 108.94 222.336 108.94C223.066 108.94 223.684 108.799 224.19 108.518C224.696 108.238 225.139 107.862 225.519 107.392L226.769 108.329C226.509 108.701 226.177 109.056 225.775 109.393C225.373 109.73 224.878 110.003 224.29 110.214C223.71 110.425 223.021 110.53 222.225 110.53Z" fill="#646464"/>
<path d="M234.172 108.929C234.663 108.929 235.117 108.834 235.534 108.645C235.951 108.455 236.294 108.195 236.562 107.865C236.83 107.528 236.982 107.146 237.019 106.718H238.985C238.947 107.392 238.705 108.02 238.259 108.603C237.82 109.178 237.243 109.645 236.528 110.003C235.813 110.354 235.028 110.53 234.172 110.53C233.264 110.53 232.471 110.379 231.794 110.077C231.124 109.775 230.566 109.361 230.119 108.834C229.68 108.308 229.348 107.704 229.125 107.023C228.909 106.335 228.801 105.608 228.801 104.843V104.401C228.801 103.635 228.909 102.912 229.125 102.231C229.348 101.543 229.68 100.936 230.119 100.409C230.566 99.8825 231.124 99.4683 231.794 99.1664C232.471 98.8645 233.264 98.7135 234.172 98.7135C235.117 98.7135 235.944 98.8961 236.651 99.2611C237.358 99.6192 237.913 100.111 238.315 100.736C238.724 101.353 238.947 102.056 238.985 102.842H237.019C236.982 102.371 236.841 101.947 236.595 101.568C236.357 101.188 236.029 100.887 235.612 100.662C235.203 100.43 234.723 100.314 234.172 100.314C233.539 100.314 233.007 100.434 232.575 100.672C232.151 100.904 231.812 101.22 231.559 101.62C231.314 102.013 231.135 102.452 231.023 102.937C230.919 103.414 230.867 103.902 230.867 104.401V104.843C230.867 105.341 230.919 105.833 231.023 106.317C231.128 106.802 231.302 107.241 231.548 107.634C231.801 108.027 232.14 108.343 232.564 108.582C232.996 108.813 233.532 108.929 234.172 108.929Z" fill="#646464"/>
<path d="M243.373 94.1428V110.319H241.307V94.1428H243.373ZM242.881 104.19L242.022 104.158C242.029 103.379 242.152 102.659 242.39 101.999C242.628 101.332 242.963 100.753 243.395 100.262C243.827 99.7702 244.34 99.391 244.936 99.1242C245.539 98.8504 246.205 98.7135 246.935 98.7135C247.53 98.7135 248.066 98.7907 248.542 98.9452C249.019 99.0926 249.424 99.3314 249.759 99.6613C250.102 99.9913 250.362 100.42 250.541 100.946C250.72 101.466 250.809 102.101 250.809 102.852V110.319H248.732V102.831C248.732 102.235 248.639 101.757 248.453 101.399C248.267 101.034 247.995 100.771 247.638 100.609C247.281 100.441 246.841 100.356 246.32 100.356C245.807 100.356 245.338 100.458 244.914 100.662C244.497 100.865 244.136 101.146 243.83 101.504C243.533 101.862 243.298 102.273 243.127 102.737C242.963 103.193 242.881 103.677 242.881 104.19Z" fill="#646464"/>
<path d="M255.968 101.357V110.319H253.902V98.9241H255.856L255.968 101.357ZM255.476 104.19L254.617 104.158C254.624 103.379 254.747 102.659 254.985 101.999C255.223 101.332 255.558 100.753 255.99 100.262C256.422 99.7702 256.935 99.391 257.531 99.1242C258.134 98.8504 258.8 98.7135 259.529 98.7135C260.125 98.7135 260.661 98.7907 261.137 98.9452C261.614 99.0926 262.019 99.3314 262.354 99.6613C262.697 99.9913 262.957 100.42 263.136 100.946C263.315 101.466 263.404 102.101 263.404 102.852V110.319H261.327V102.831C261.327 102.235 261.234 101.757 261.048 101.399C260.862 101.034 260.59 100.771 260.233 100.609C259.876 100.441 259.436 100.356 258.915 100.356C258.402 100.356 257.933 100.458 257.508 100.662C257.092 100.865 256.731 101.146 256.425 101.504C256.128 101.862 255.893 102.273 255.722 102.737C255.558 103.193 255.476 103.677 255.476 104.19Z" fill="#646464"/>
<path d="M265.994 104.748V104.506C265.994 103.684 266.121 102.923 266.374 102.221C266.627 101.511 266.992 100.897 267.468 100.377C267.945 99.8509 268.522 99.4437 269.199 99.1558C269.876 98.8609 270.636 98.7135 271.477 98.7135C272.325 98.7135 273.088 98.8609 273.766 99.1558C274.451 99.4437 275.031 99.8509 275.508 100.377C275.992 100.897 276.36 101.511 276.613 102.221C276.866 102.923 276.993 103.684 276.993 104.506V104.748C276.993 105.57 276.866 106.331 276.613 107.033C276.36 107.736 275.992 108.35 275.508 108.876C275.031 109.396 274.454 109.803 273.777 110.098C273.107 110.386 272.348 110.53 271.499 110.53C270.651 110.53 269.888 110.386 269.21 110.098C268.533 109.803 267.952 109.396 267.468 108.876C266.992 108.35 266.627 107.736 266.374 107.033C266.121 106.331 265.994 105.57 265.994 104.748ZM268.06 104.506V104.748C268.06 105.317 268.131 105.854 268.272 106.359C268.414 106.858 268.626 107.3 268.909 107.686C269.199 108.073 269.56 108.378 269.992 108.603C270.424 108.82 270.926 108.929 271.499 108.929C272.065 108.929 272.56 108.82 272.984 108.603C273.416 108.378 273.773 108.073 274.056 107.686C274.339 107.3 274.551 106.858 274.693 106.359C274.841 105.854 274.916 105.317 274.916 104.748V104.506C274.916 103.944 274.841 103.414 274.693 102.916C274.551 102.41 274.335 101.964 274.045 101.578C273.762 101.185 273.405 100.876 272.973 100.651C272.549 100.427 272.05 100.314 271.477 100.314C270.911 100.314 270.412 100.427 269.981 100.651C269.556 100.876 269.199 101.185 268.909 101.578C268.626 101.964 268.414 102.41 268.272 102.916C268.131 103.414 268.06 103.944 268.06 104.506Z" fill="#646464"/>
<path d="M281.827 94.1428V110.319H279.751V94.1428H281.827Z" fill="#646464"/>
<path d="M284.597 104.748V104.506C284.597 103.684 284.723 102.923 284.976 102.221C285.229 101.511 285.594 100.897 286.07 100.377C286.547 99.8509 287.124 99.4437 287.801 99.1558C288.479 98.8609 289.238 98.7135 290.079 98.7135C290.928 98.7135 291.691 98.8609 292.368 99.1558C293.053 99.4437 293.633 99.8509 294.11 100.377C294.594 100.897 294.962 101.511 295.215 102.221C295.468 102.923 295.595 103.684 295.595 104.506V104.748C295.595 105.57 295.468 106.331 295.215 107.033C294.962 107.736 294.594 108.35 294.11 108.876C293.633 109.396 293.056 109.803 292.379 110.098C291.709 110.386 290.95 110.53 290.101 110.53C289.253 110.53 288.49 110.386 287.812 110.098C287.135 109.803 286.554 109.396 286.07 108.876C285.594 108.35 285.229 107.736 284.976 107.033C284.723 106.331 284.597 105.57 284.597 104.748ZM286.662 104.506V104.748C286.662 105.317 286.733 105.854 286.874 106.359C287.016 106.858 287.228 107.3 287.511 107.686C287.801 108.073 288.162 108.378 288.594 108.603C289.026 108.82 289.528 108.929 290.101 108.929C290.667 108.929 291.162 108.82 291.586 108.603C292.018 108.378 292.375 108.073 292.658 107.686C292.941 107.3 293.153 106.858 293.295 106.359C293.444 105.854 293.518 105.317 293.518 104.748V104.506C293.518 103.944 293.444 103.414 293.295 102.916C293.153 102.41 292.937 101.964 292.647 101.578C292.364 101.185 292.007 100.876 291.575 100.651C291.151 100.427 290.652 100.314 290.079 100.314C289.513 100.314 289.014 100.427 288.583 100.651C288.158 100.876 287.801 101.185 287.511 101.578C287.228 101.964 287.016 102.41 286.874 102.916C286.733 103.414 286.662 103.944 286.662 104.506Z" fill="#646464"/>
<path d="M306.013 98.9241H307.888V110.077C307.888 111.081 307.672 111.938 307.241 112.647C306.809 113.356 306.206 113.893 305.432 114.258C304.665 114.63 303.779 114.816 302.774 114.816C302.358 114.816 301.866 114.753 301.301 114.627C300.742 114.507 300.191 114.3 299.648 114.005C299.112 113.718 298.662 113.328 298.297 112.836L299.38 111.678C299.886 112.254 300.415 112.654 300.966 112.878C301.524 113.103 302.075 113.216 302.618 113.216C303.273 113.216 303.839 113.1 304.315 112.868C304.792 112.636 305.16 112.292 305.421 111.836C305.689 111.387 305.823 110.832 305.823 110.172V101.431L306.013 98.9241ZM297.694 104.748V104.527C297.694 103.656 297.802 102.866 298.018 102.157C298.241 101.441 298.557 100.827 298.967 100.314C299.384 99.8018 299.886 99.4086 300.474 99.1348C301.062 98.8539 301.725 98.7135 302.462 98.7135C303.221 98.7135 303.884 98.8399 304.449 99.0926C305.022 99.3384 305.506 99.7 305.901 100.177C306.303 100.648 306.619 101.217 306.85 101.884C307.081 102.551 307.241 103.305 307.33 104.148V105.117C307.248 105.952 307.088 106.703 306.85 107.37C306.619 108.037 306.303 108.606 305.901 109.077C305.506 109.547 305.022 109.909 304.449 110.161C303.876 110.407 303.206 110.53 302.439 110.53C301.717 110.53 301.062 110.386 300.474 110.098C299.894 109.81 299.395 109.407 298.978 108.887C298.561 108.367 298.241 107.757 298.018 107.055C297.802 106.345 297.694 105.577 297.694 104.748ZM299.76 104.527V104.748C299.76 105.317 299.819 105.85 299.938 106.349C300.065 106.847 300.255 107.286 300.508 107.665C300.768 108.044 301.1 108.343 301.502 108.561C301.904 108.771 302.384 108.876 302.942 108.876C303.627 108.876 304.192 108.74 304.639 108.466C305.086 108.192 305.439 107.83 305.7 107.381C305.968 106.932 306.176 106.444 306.325 105.917V103.379C306.243 102.993 306.117 102.621 305.945 102.263C305.782 101.898 305.566 101.575 305.298 101.294C305.037 101.006 304.714 100.778 304.326 100.609C303.939 100.441 303.485 100.356 302.964 100.356C302.399 100.356 301.911 100.469 301.502 100.693C301.1 100.911 300.768 101.213 300.508 101.599C300.255 101.978 300.065 102.421 299.938 102.926C299.819 103.425 299.76 103.958 299.76 104.527Z" fill="#646464"/>
<path d="M314.42 109.14L317.781 98.9241H319.992L315.146 112.078C315.034 112.359 314.886 112.661 314.699 112.984C314.521 113.314 314.29 113.626 314.007 113.921C313.724 114.216 313.382 114.455 312.98 114.637C312.585 114.827 312.113 114.922 311.562 114.922C311.398 114.922 311.19 114.901 310.937 114.858C310.683 114.816 310.505 114.781 310.401 114.753L310.389 113.173C310.449 113.18 310.542 113.187 310.669 113.194C310.803 113.208 310.896 113.216 310.948 113.216C311.417 113.216 311.815 113.156 312.142 113.036C312.47 112.924 312.745 112.731 312.969 112.457C313.199 112.19 313.397 111.822 313.561 111.351L314.42 109.14ZM311.953 98.9241L315.09 107.771L315.626 109.824L314.141 110.54L309.697 98.9241H311.953Z" fill="#646464"/>
<path d="M322.527 108.002V109.572C322.527 110.21 322.355 110.885 322.013 111.594C321.671 112.31 321.19 112.907 320.573 113.384L319.4 112.615C319.638 112.306 319.839 111.99 320.003 111.667C320.167 111.351 320.29 111.021 320.372 110.677C320.461 110.34 320.506 109.982 320.506 109.603V108.002H322.527Z" fill="#646464"/>
<path d="M331.147 94.9853H336.528C337.749 94.9853 338.78 95.1608 339.621 95.5119C340.47 95.863 341.114 96.3825 341.553 97.0706C342 97.7516 342.223 98.5906 342.223 99.5876C342.223 100.29 342.07 100.932 341.765 101.515C341.467 102.091 341.036 102.582 340.47 102.989C339.912 103.39 339.242 103.688 338.46 103.885L337.857 104.106H332.799L332.777 102.452H336.595C337.37 102.452 338.014 102.326 338.527 102.073C339.041 101.813 339.428 101.466 339.688 101.03C339.949 100.595 340.079 100.114 340.079 99.5876C340.079 98.9979 339.956 98.4818 339.711 98.0395C339.465 97.5972 339.078 97.2566 338.549 97.0179C338.028 96.7722 337.355 96.6493 336.528 96.6493H333.302V110.319H331.147V94.9853ZM340.649 110.319L336.696 103.368L338.94 103.358L342.949 110.193V110.319H340.649Z" fill="#646464"/>
<path d="M344.378 104.748V104.506C344.378 103.684 344.505 102.923 344.758 102.221C345.011 101.511 345.375 100.897 345.852 100.377C346.328 99.8509 346.905 99.4437 347.583 99.1558C348.26 98.8609 349.019 98.7135 349.86 98.7135C350.709 98.7135 351.472 98.8609 352.149 99.1558C352.834 99.4437 353.415 99.8509 353.891 100.377C354.375 100.897 354.744 101.511 354.997 102.221C355.25 102.923 355.376 103.684 355.376 104.506V104.748C355.376 105.57 355.25 106.331 354.997 107.033C354.744 107.736 354.375 108.35 353.891 108.876C353.415 109.396 352.838 109.803 352.161 110.098C351.491 110.386 350.731 110.53 349.883 110.53C349.034 110.53 348.271 110.386 347.594 110.098C346.916 109.803 346.336 109.396 345.852 108.876C345.375 108.35 345.011 107.736 344.758 107.033C344.505 106.331 344.378 105.57 344.378 104.748ZM346.444 104.506V104.748C346.444 105.317 346.514 105.854 346.656 106.359C346.797 106.858 347.009 107.3 347.292 107.686C347.583 108.073 347.944 108.378 348.375 108.603C348.807 108.82 349.31 108.929 349.883 108.929C350.448 108.929 350.943 108.82 351.368 108.603C351.799 108.378 352.157 108.073 352.44 107.686C352.723 107.3 352.935 106.858 353.076 106.359C353.225 105.854 353.299 105.317 353.299 104.748V104.506C353.299 103.944 353.225 103.414 353.076 102.916C352.935 102.41 352.719 101.964 352.428 101.578C352.146 101.185 351.788 100.876 351.357 100.651C350.932 100.427 350.434 100.314 349.86 100.314C349.295 100.314 348.796 100.427 348.364 100.651C347.94 100.876 347.583 101.185 347.292 101.578C347.009 101.964 346.797 102.41 346.656 102.916C346.514 103.414 346.444 103.944 346.444 104.506Z" fill="#646464"/>
<path d="M365.358 107.686V98.9241H367.435V110.319H365.459L365.358 107.686ZM365.749 105.285L366.609 105.264C366.609 106.022 366.523 106.725 366.352 107.37C366.188 108.009 365.92 108.564 365.548 109.034C365.176 109.505 364.689 109.873 364.086 110.14C363.483 110.4 362.749 110.53 361.886 110.53C361.298 110.53 360.758 110.449 360.267 110.288C359.783 110.126 359.366 109.877 359.016 109.54C358.666 109.203 358.395 108.764 358.201 108.224C358.015 107.683 357.922 107.033 357.922 106.275V98.9241H359.988V106.296C359.988 106.809 360.047 107.234 360.166 107.571C360.293 107.901 360.46 108.164 360.669 108.36C360.885 108.55 361.123 108.683 361.383 108.761C361.651 108.838 361.927 108.876 362.21 108.876C363.088 108.876 363.784 108.719 364.298 108.403C364.811 108.08 365.18 107.648 365.403 107.107C365.634 106.56 365.749 105.952 365.749 105.285Z" fill="#646464"/>
<path d="M372.65 100.715V110.319H370.584V98.9241H372.594L372.65 100.715ZM376.424 98.8609L376.413 100.672C376.241 100.637 376.078 100.616 375.921 100.609C375.772 100.595 375.601 100.588 375.408 100.588C374.931 100.588 374.511 100.658 374.146 100.799C373.781 100.939 373.472 101.136 373.219 101.389C372.966 101.641 372.765 101.943 372.616 102.294C372.475 102.638 372.382 103.017 372.337 103.432L371.756 103.748C371.756 103.06 371.827 102.414 371.969 101.81C372.117 101.206 372.344 100.672 372.65 100.209C372.955 99.7386 373.342 99.3735 373.811 99.1137C374.287 98.8469 374.853 98.7135 375.508 98.7135C375.657 98.7135 375.828 98.7311 376.022 98.7662C376.215 98.7942 376.349 98.8258 376.424 98.8609Z" fill="#646464"/>
<path d="M380.41 94.1428V110.319H378.333V94.1428H380.41ZM387.79 98.9241L382.52 104.243L379.572 107.128L379.405 105.054L381.515 102.673L385.267 98.9241H387.79ZM385.903 110.319L381.593 104.885L382.665 103.147L388.338 110.319H385.903Z" fill="#646464"/>
<path d="M394.713 110.53C393.872 110.53 393.109 110.397 392.424 110.13C391.747 109.856 391.163 109.473 390.671 108.982C390.187 108.49 389.815 107.908 389.555 107.234C389.294 106.56 389.164 105.822 389.164 105.022V104.58C389.164 103.653 389.309 102.828 389.599 102.105C389.89 101.374 390.284 100.757 390.783 100.251C391.282 99.7456 391.847 99.363 392.48 99.1032C393.113 98.8434 393.768 98.7135 394.445 98.7135C395.309 98.7135 396.053 98.8539 396.678 99.1348C397.311 99.4156 397.828 99.8088 398.23 100.314C398.632 100.813 398.93 101.403 399.124 102.084C399.317 102.758 399.414 103.495 399.414 104.295V105.169H390.392V103.579H397.348V103.432C397.319 102.926 397.207 102.435 397.013 101.957C396.827 101.48 396.53 101.087 396.12 100.778C395.711 100.469 395.152 100.314 394.445 100.314C393.976 100.314 393.545 100.409 393.15 100.599C392.755 100.781 392.417 101.055 392.134 101.42C391.851 101.785 391.631 102.231 391.475 102.758C391.319 103.284 391.241 103.892 391.241 104.58V105.022C391.241 105.563 391.319 106.072 391.475 106.549C391.639 107.019 391.873 107.434 392.179 107.792C392.491 108.15 392.867 108.431 393.306 108.634C393.753 108.838 394.259 108.94 394.825 108.94C395.554 108.94 396.172 108.799 396.678 108.518C397.185 108.238 397.627 107.862 398.007 107.392L399.258 108.329C398.997 108.701 398.666 109.056 398.264 109.393C397.862 109.73 397.367 110.003 396.779 110.214C396.198 110.425 395.51 110.53 394.713 110.53Z" fill="#646464"/>
<path d="M404.07 94.1428V110.319H401.993V94.1428H404.07Z" fill="#646464"/>
<path d="M414.51 108.371V102.505C414.51 102.056 414.413 101.666 414.22 101.336C414.034 100.999 413.751 100.739 413.371 100.557C412.992 100.374 412.523 100.283 411.964 100.283C411.443 100.283 410.985 100.367 410.591 100.535C410.204 100.704 409.899 100.925 409.675 101.199C409.459 101.473 409.352 101.768 409.352 102.084H407.286C407.286 101.676 407.397 101.273 407.621 100.872C407.844 100.472 408.164 100.111 408.581 99.7877C409.005 99.4577 409.512 99.198 410.1 99.0084C410.695 98.8118 411.358 98.7135 412.087 98.7135C412.965 98.7135 413.74 98.8539 414.41 99.1348C415.087 99.4156 415.615 99.8404 415.995 100.409C416.382 100.971 416.576 101.676 416.576 102.526V107.834C416.576 108.213 416.609 108.617 416.676 109.045C416.751 109.473 416.859 109.842 417 110.151V110.319H414.845C414.741 110.095 414.659 109.796 414.599 109.424C414.54 109.045 414.51 108.694 414.51 108.371ZM414.867 103.411L414.89 104.78H412.802C412.214 104.78 411.689 104.825 411.227 104.917C410.766 105.001 410.379 105.131 410.066 105.306C409.753 105.482 409.515 105.703 409.352 105.97C409.188 106.23 409.106 106.535 409.106 106.886C409.106 107.244 409.191 107.571 409.363 107.865C409.534 108.16 409.791 108.396 410.133 108.571C410.483 108.74 410.911 108.824 411.417 108.824C412.05 108.824 412.608 108.697 413.092 108.445C413.576 108.192 413.959 107.883 414.242 107.518C414.532 107.153 414.689 106.798 414.711 106.454L415.593 107.392C415.541 107.686 415.4 108.013 415.169 108.371C414.938 108.729 414.629 109.073 414.242 109.403C413.862 109.726 413.408 109.996 412.88 110.214C412.359 110.425 411.771 110.53 411.116 110.53C410.297 110.53 409.579 110.379 408.961 110.077C408.35 109.775 407.874 109.371 407.531 108.866C407.197 108.353 407.029 107.781 407.029 107.149C407.029 106.538 407.156 106.001 407.409 105.538C407.662 105.068 408.026 104.678 408.503 104.369C408.979 104.053 409.552 103.814 410.222 103.653C410.892 103.491 411.64 103.411 412.467 103.411H414.867Z" fill="#646464"/>
</svg>
