<svg width="307" height="307" viewBox="0 0 307 307" fill="none" xmlns="http://www.w3.org/2000/svg">
<path d="M294.67 153.5C301.48 153.5 307.051 147.971 306.505 141.183C304.88 120.998 299.273 101.291 289.964 83.2156C278.768 61.4787 262.542 42.7307 242.637 28.5323C222.731 14.334 199.721 5.09626 175.524 1.58817C151.326 -1.91993 126.641 0.40313 103.522 8.36395C80.4039 16.3248 59.5218 29.693 42.6144 47.3556C25.7069 65.0183 13.2634 86.4643 6.3198 109.908C-0.623802 133.352 -1.86659 158.116 2.69491 182.137C6.48797 202.112 14.2032 221.092 25.3506 237.999C29.0993 243.684 36.8943 244.61 42.2604 240.417C47.6264 236.225 48.5216 228.503 44.8608 222.761C36.0836 208.994 29.9825 193.65 26.9225 177.536C23.0939 157.374 24.137 136.589 29.9651 116.912C35.7931 97.234 46.2375 79.2334 60.4287 64.4083C74.6199 49.5832 92.1472 38.3627 111.551 31.6808C130.956 24.9989 151.675 23.0491 171.986 25.9936C192.296 28.9381 211.609 36.6918 228.316 48.609C245.024 60.5263 258.643 76.2624 268.04 94.5072C275.55 109.089 280.19 124.936 281.75 141.188C282.401 147.967 287.86 153.5 294.67 153.5Z" fill="#508FF2"/>
<path d="M83.2954 274.167C79.436 280.801 81.6631 289.37 88.6183 292.614C112.089 303.56 138.023 308.423 164.01 306.64C189.997 304.856 215.024 296.496 236.779 282.445C243.226 278.282 244.261 269.489 239.532 263.445C234.802 257.401 226.103 256.409 219.574 260.443C202.262 271.139 182.547 277.51 162.107 278.913C141.667 280.316 121.267 276.698 102.656 268.467C95.6372 265.363 87.1547 267.534 83.2954 274.167Z" fill="#5090F2"/>
<path d="M153 63.5271C153 57.7131 148.274 52.9426 142.492 53.5535C125.659 55.3321 109.491 61.3627 95.5439 71.1538C78.7139 82.9685 65.9352 99.6843 58.9488 119.024C51.9623 138.364 51.1077 159.387 56.5014 179.23C60.9713 195.675 69.5523 210.646 81.3621 222.771C85.4186 226.936 92.1025 226.288 95.8182 221.816C99.5339 217.344 98.859 210.75 94.921 206.472C86.3819 197.198 80.152 185.972 76.8184 173.708C72.5603 158.042 73.235 141.445 78.7505 126.177C84.266 110.909 94.3542 97.7131 107.641 88.3859C118.043 81.0838 130.009 76.4311 142.504 74.755C148.266 73.982 153 69.341 153 63.5271Z" fill="#F8BE1A"/>
<path d="M183.593 68.92C185.581 63.4565 191.654 60.5896 196.878 63.1406C214.524 71.7568 229.32 85.4199 239.314 102.503C251.088 122.629 255.459 146.235 251.672 169.242C247.885 192.248 236.178 213.209 218.575 228.498C203.632 241.477 185.238 249.677 165.761 252.183C159.995 252.924 155.162 248.262 155.03 242.45C154.898 236.637 159.525 231.89 165.269 230.987C179.83 228.696 193.534 222.36 204.768 212.603C218.666 200.532 227.908 183.985 230.898 165.822C233.887 147.66 230.436 129.023 221.141 113.135C213.627 100.292 202.676 89.897 189.618 83.0601C184.467 80.3634 181.606 74.3835 183.593 68.92Z" fill="#ED4F47"/>
<circle cx="193" cy="73" r="10" fill="#B42320"/>
<path d="M216 153C216 187.794 187.794 216 153 216C118.206 216 90 187.794 90 153C90 118.206 118.206 90 153 90C187.794 90 216 118.206 216 153ZM113.992 153C113.992 174.543 131.457 192.008 153 192.008C174.543 192.008 192.008 174.543 192.008 153C192.008 131.457 174.543 113.992 153 113.992C131.457 113.992 113.992 131.457 113.992 153Z" fill="#46AE63"/>
<circle cx="153.5" cy="153.5" r="14.5" fill="#568FEF"/>
<circle cx="87.5" cy="215.5" r="10.5" fill="#EB9016"/>
<circle cx="35.5" cy="230.5" r="12.5" fill="#2868BF"/>
<circle cx="144" cy="203" r="12" fill="#277F45"/>
</svg>
